<svg height="2400" width="2400">
<rect x="0" y="0" width="2400" height="2400" rx="0" fill="#ddddcc"/>
<rect x="150" y="150" width="2100" height="2100" rx="150" fill="#478547"/>
<path d="M 677 1015 L 694 1106 L 785 1123 L 733 1200 L 785 1277 L 694 1294 L 677 1385 L 600 1333 L 523 1385 L 506 1294 L 415 1277 L 467 1200 L 415 1123 L 506 1106 L 523 1015 L 600 1067 Z" fill="#ddddcc"/>
<path d="M 1277 1015 L 1294 1106 L 1385 1123 L 1333 1200 L 1385 1277 L 1294 1294 L 1277 1385 L 1200 1333 L 1123 1385 L 1106 1294 L 1015 1277 L 1067 1200 L 1015 1123 L 1106 1106 L 1123 1015 L 1200 1067 Z" fill="#ddddcc"/>
<path d="M 1877 1015 L 1894 1106 L 1985 1123 L 1933 1200 L 1985 1277 L 1894 1294 L 1877 1385 L 1800 1333 L 1723 1385 L 1706 1294 L 1615 1277 L 1667 1200 L 1615 1123 L 1706 1106 L 1723 1015 L 1800 1067 Z" fill="#ddddcc"/>
</svg>