<svg height="1200" width="1200">
<rect x="0" y="0" width="1200" height="1200" rx="0" fill="#ddddcc"/>
<rect x="75" y="75" width="1050" height="1050" rx="75" fill="#dbb448"/>
<path d="M 300 500 L 328 572 L 400 600 L 328 628 L 300 700 L 272 628 L 200 600 L 272 572 Z" fill="#ddddcc"/>
<path d="M 600 200 L 628 272 L 700 300 L 628 328 L 600 400 L 572 328 L 500 300 L 572 272 Z" fill="#ddddcc"/>
<path d="M 900 500 L 928 572 L 1000 600 L 928 628 L 900 700 L 872 628 L 800 600 L 872 572 Z" fill="#ddddcc"/>
<path d="M 600 800 L 628 872 L 700 900 L 628 928 L 600 1000 L 572 928 L 500 900 L 572 872 Z" fill="#ddddcc"/>
</svg>