<svg height="2400" width="2400">
<rect x="0" y="0" width="2400" height="2400" rx="0" fill="#ddddcc"/>
<rect x="150" y="150" width="2100" height="2100" rx="150" fill="#994936"/>

                        <mask id="bodymask">
                            <rect x="0" y="0" width="2400" height="2400" rx="0" fill="black"/>
                            <rect x="150" y="150" width="2100" height="2100" rx="150" fill="white"/>
                        </mask>
                    
<path d="M0,0 C60.0,0 60.0,-30.0 120.0,-30.0 C180.0,-30.0 180.0,0 240.0,0 C180.0,0 180.0,30.0 120.0,30.0 C60.0,30.0 60.0,0 0,0Z" stroke="#a76754" stroke-width="10.0" fill="none" mask="url(#bodymask)"/>
<path d="M0,60 C60.0,60 60.0,30.0 120.0,30.0 C180.0,30.0 180.0,60 240.0,60 C180.0,60 180.0,90.0 120.0,90.0 C60.0,90.0 60.0,60 0,60Z" stroke="#a76754" stroke-width="10.0" fill="none" mask="url(#bodymask)"/>
<path d="M0,120 C60.0,120 60.0,90.0 120.0,90.0 C180.0,90.0 180.0,120 240.0,120 C180.0,120 180.0,150.0 120.0,150.0 C60.0,150.0 60.0,120 0,120Z" stroke="#a76754" stroke-width="10.0" fill="none" mask="url(#bodymask)"/>
<path d="M0,180 C60.0,180 60.0,150.0 120.0,150.0 C180.0,150.0 180.0,180 240.0,180 C180.0,180 180.0,210.0 120.0,210.0 C60.0,210.0 60.0,180 0,180Z" stroke="#a76754" stroke-width="10.0" fill="none" mask="url(#bodymask)"/>
<path d="M0,240 C60.0,240 60.0,210.0 120.0,210.0 C180.0,210.0 180.0,240 240.0,240 C180.0,240 180.0,270.0 120.0,270.0 C60.0,270.0 60.0,240 0,240Z" stroke="#a76754" stroke-width="10.0" fill="none" mask="url(#bodymask)"/>
<path d="M0,300 C60.0,300 60.0,270.0 120.0,270.0 C180.0,270.0 180.0,300 240.0,300 C180.0,300 180.0,330.0 120.0,330.0 C60.0,330.0 60.0,300 0,300Z" stroke="#a76754" stroke-width="10.0" fill="none" mask="url(#bodymask)"/>
<path d="M0,360 C60.0,360 60.0,330.0 120.0,330.0 C180.0,330.0 180.0,360 240.0,360 C180.0,360 180.0,390.0 120.0,390.0 C60.0,390.0 60.0,360 0,360Z" stroke="#a76754" stroke-width="10.0" fill="none" mask="url(#bodymask)"/>
<path d="M0,420 C60.0,420 60.0,390.0 120.0,390.0 C180.0,390.0 180.0,420 240.0,420 C180.0,420 180.0,450.0 120.0,450.0 C60.0,450.0 60.0,420 0,420Z" stroke="#a76754" stroke-width="10.0" fill="none" mask="url(#bodymask)"/>
<path d="M0,480 C60.0,480 60.0,450.0 120.0,450.0 C180.0,450.0 180.0,480 240.0,480 C180.0,480 180.0,510.0 120.0,510.0 C60.0,510.0 60.0,480 0,480Z" stroke="#a76754" stroke-width="10.0" fill="none" mask="url(#bodymask)"/>
<path d="M0,540 C60.0,540 60.0,510.0 120.0,510.0 C180.0,510.0 180.0,540 240.0,540 C180.0,540 180.0,570.0 120.0,570.0 C60.0,570.0 60.0,540 0,540Z" stroke="#a76754" stroke-width="10.0" fill="none" mask="url(#bodymask)"/>
<path d="M0,600 C60.0,600 60.0,570.0 120.0,570.0 C180.0,570.0 180.0,600 240.0,600 C180.0,600 180.0,630.0 120.0,630.0 C60.0,630.0 60.0,600 0,600Z" stroke="#a76754" stroke-width="10.0" fill="none" mask="url(#bodymask)"/>
<path d="M0,660 C60.0,660 60.0,630.0 120.0,630.0 C180.0,630.0 180.0,660 240.0,660 C180.0,660 180.0,690.0 120.0,690.0 C60.0,690.0 60.0,660 0,660Z" stroke="#a76754" stroke-width="10.0" fill="none" mask="url(#bodymask)"/>
<path d="M0,720 C60.0,720 60.0,690.0 120.0,690.0 C180.0,690.0 180.0,720 240.0,720 C180.0,720 180.0,750.0 120.0,750.0 C60.0,750.0 60.0,720 0,720Z" stroke="#a76754" stroke-width="10.0" fill="none" mask="url(#bodymask)"/>
<path d="M0,780 C60.0,780 60.0,750.0 120.0,750.0 C180.0,750.0 180.0,780 240.0,780 C180.0,780 180.0,810.0 120.0,810.0 C60.0,810.0 60.0,780 0,780Z" stroke="#a76754" stroke-width="10.0" fill="none" mask="url(#bodymask)"/>
<path d="M0,840 C60.0,840 60.0,810.0 120.0,810.0 C180.0,810.0 180.0,840 240.0,840 C180.0,840 180.0,870.0 120.0,870.0 C60.0,870.0 60.0,840 0,840Z" stroke="#a76754" stroke-width="10.0" fill="none" mask="url(#bodymask)"/>
<path d="M0,900 C60.0,900 60.0,870.0 120.0,870.0 C180.0,870.0 180.0,900 240.0,900 C180.0,900 180.0,930.0 120.0,930.0 C60.0,930.0 60.0,900 0,900Z" stroke="#a76754" stroke-width="10.0" fill="none" mask="url(#bodymask)"/>
<path d="M0,960 C60.0,960 60.0,930.0 120.0,930.0 C180.0,930.0 180.0,960 240.0,960 C180.0,960 180.0,990.0 120.0,990.0 C60.0,990.0 60.0,960 0,960Z" stroke="#a76754" stroke-width="10.0" fill="none" mask="url(#bodymask)"/>
<path d="M0,1020 C60.0,1020 60.0,990.0 120.0,990.0 C180.0,990.0 180.0,1020 240.0,1020 C180.0,1020 180.0,1050.0 120.0,1050.0 C60.0,1050.0 60.0,1020 0,1020Z" stroke="#a76754" stroke-width="10.0" fill="none" mask="url(#bodymask)"/>
<path d="M0,1080 C60.0,1080 60.0,1050.0 120.0,1050.0 C180.0,1050.0 180.0,1080 240.0,1080 C180.0,1080 180.0,1110.0 120.0,1110.0 C60.0,1110.0 60.0,1080 0,1080Z" stroke="#a76754" stroke-width="10.0" fill="none" mask="url(#bodymask)"/>
<path d="M0,1140 C60.0,1140 60.0,1110.0 120.0,1110.0 C180.0,1110.0 180.0,1140 240.0,1140 C180.0,1140 180.0,1170.0 120.0,1170.0 C60.0,1170.0 60.0,1140 0,1140Z" stroke="#a76754" stroke-width="10.0" fill="none" mask="url(#bodymask)"/>
<path d="M0,1200 C60.0,1200 60.0,1170.0 120.0,1170.0 C180.0,1170.0 180.0,1200 240.0,1200 C180.0,1200 180.0,1230.0 120.0,1230.0 C60.0,1230.0 60.0,1200 0,1200Z" stroke="#a76754" stroke-width="10.0" fill="none" mask="url(#bodymask)"/>
<path d="M0,1260 C60.0,1260 60.0,1230.0 120.0,1230.0 C180.0,1230.0 180.0,1260 240.0,1260 C180.0,1260 180.0,1290.0 120.0,1290.0 C60.0,1290.0 60.0,1260 0,1260Z" stroke="#a76754" stroke-width="10.0" fill="none" mask="url(#bodymask)"/>
<path d="M0,1320 C60.0,1320 60.0,1290.0 120.0,1290.0 C180.0,1290.0 180.0,1320 240.0,1320 C180.0,1320 180.0,1350.0 120.0,1350.0 C60.0,1350.0 60.0,1320 0,1320Z" stroke="#a76754" stroke-width="10.0" fill="none" mask="url(#bodymask)"/>
<path d="M0,1380 C60.0,1380 60.0,1350.0 120.0,1350.0 C180.0,1350.0 180.0,1380 240.0,1380 C180.0,1380 180.0,1410.0 120.0,1410.0 C60.0,1410.0 60.0,1380 0,1380Z" stroke="#a76754" stroke-width="10.0" fill="none" mask="url(#bodymask)"/>
<path d="M0,1440 C60.0,1440 60.0,1410.0 120.0,1410.0 C180.0,1410.0 180.0,1440 240.0,1440 C180.0,1440 180.0,1470.0 120.0,1470.0 C60.0,1470.0 60.0,1440 0,1440Z" stroke="#a76754" stroke-width="10.0" fill="none" mask="url(#bodymask)"/>
<path d="M0,1500 C60.0,1500 60.0,1470.0 120.0,1470.0 C180.0,1470.0 180.0,1500 240.0,1500 C180.0,1500 180.0,1530.0 120.0,1530.0 C60.0,1530.0 60.0,1500 0,1500Z" stroke="#a76754" stroke-width="10.0" fill="none" mask="url(#bodymask)"/>
<path d="M0,1560 C60.0,1560 60.0,1530.0 120.0,1530.0 C180.0,1530.0 180.0,1560 240.0,1560 C180.0,1560 180.0,1590.0 120.0,1590.0 C60.0,1590.0 60.0,1560 0,1560Z" stroke="#a76754" stroke-width="10.0" fill="none" mask="url(#bodymask)"/>
<path d="M0,1620 C60.0,1620 60.0,1590.0 120.0,1590.0 C180.0,1590.0 180.0,1620 240.0,1620 C180.0,1620 180.0,1650.0 120.0,1650.0 C60.0,1650.0 60.0,1620 0,1620Z" stroke="#a76754" stroke-width="10.0" fill="none" mask="url(#bodymask)"/>
<path d="M0,1680 C60.0,1680 60.0,1650.0 120.0,1650.0 C180.0,1650.0 180.0,1680 240.0,1680 C180.0,1680 180.0,1710.0 120.0,1710.0 C60.0,1710.0 60.0,1680 0,1680Z" stroke="#a76754" stroke-width="10.0" fill="none" mask="url(#bodymask)"/>
<path d="M0,1740 C60.0,1740 60.0,1710.0 120.0,1710.0 C180.0,1710.0 180.0,1740 240.0,1740 C180.0,1740 180.0,1770.0 120.0,1770.0 C60.0,1770.0 60.0,1740 0,1740Z" stroke="#a76754" stroke-width="10.0" fill="none" mask="url(#bodymask)"/>
<path d="M0,1800 C60.0,1800 60.0,1770.0 120.0,1770.0 C180.0,1770.0 180.0,1800 240.0,1800 C180.0,1800 180.0,1830.0 120.0,1830.0 C60.0,1830.0 60.0,1800 0,1800Z" stroke="#a76754" stroke-width="10.0" fill="none" mask="url(#bodymask)"/>
<path d="M0,1860 C60.0,1860 60.0,1830.0 120.0,1830.0 C180.0,1830.0 180.0,1860 240.0,1860 C180.0,1860 180.0,1890.0 120.0,1890.0 C60.0,1890.0 60.0,1860 0,1860Z" stroke="#a76754" stroke-width="10.0" fill="none" mask="url(#bodymask)"/>
<path d="M0,1920 C60.0,1920 60.0,1890.0 120.0,1890.0 C180.0,1890.0 180.0,1920 240.0,1920 C180.0,1920 180.0,1950.0 120.0,1950.0 C60.0,1950.0 60.0,1920 0,1920Z" stroke="#a76754" stroke-width="10.0" fill="none" mask="url(#bodymask)"/>
<path d="M0,1980 C60.0,1980 60.0,1950.0 120.0,1950.0 C180.0,1950.0 180.0,1980 240.0,1980 C180.0,1980 180.0,2010.0 120.0,2010.0 C60.0,2010.0 60.0,1980 0,1980Z" stroke="#a76754" stroke-width="10.0" fill="none" mask="url(#bodymask)"/>
<path d="M0,2040 C60.0,2040 60.0,2010.0 120.0,2010.0 C180.0,2010.0 180.0,2040 240.0,2040 C180.0,2040 180.0,2070.0 120.0,2070.0 C60.0,2070.0 60.0,2040 0,2040Z" stroke="#a76754" stroke-width="10.0" fill="none" mask="url(#bodymask)"/>
<path d="M0,2100 C60.0,2100 60.0,2070.0 120.0,2070.0 C180.0,2070.0 180.0,2100 240.0,2100 C180.0,2100 180.0,2130.0 120.0,2130.0 C60.0,2130.0 60.0,2100 0,2100Z" stroke="#a76754" stroke-width="10.0" fill="none" mask="url(#bodymask)"/>
<path d="M0,2160 C60.0,2160 60.0,2130.0 120.0,2130.0 C180.0,2130.0 180.0,2160 240.0,2160 C180.0,2160 180.0,2190.0 120.0,2190.0 C60.0,2190.0 60.0,2160 0,2160Z" stroke="#a76754" stroke-width="10.0" fill="none" mask="url(#bodymask)"/>
<path d="M0,2220 C60.0,2220 60.0,2190.0 120.0,2190.0 C180.0,2190.0 180.0,2220 240.0,2220 C180.0,2220 180.0,2250.0 120.0,2250.0 C60.0,2250.0 60.0,2220 0,2220Z" stroke="#a76754" stroke-width="10.0" fill="none" mask="url(#bodymask)"/>
<path d="M0,2280 C60.0,2280 60.0,2250.0 120.0,2250.0 C180.0,2250.0 180.0,2280 240.0,2280 C180.0,2280 180.0,2310.0 120.0,2310.0 C60.0,2310.0 60.0,2280 0,2280Z" stroke="#a76754" stroke-width="10.0" fill="none" mask="url(#bodymask)"/>
<path d="M0,2340 C60.0,2340 60.0,2310.0 120.0,2310.0 C180.0,2310.0 180.0,2340 240.0,2340 C180.0,2340 180.0,2370.0 120.0,2370.0 C60.0,2370.0 60.0,2340 0,2340Z" stroke="#a76754" stroke-width="10.0" fill="none" mask="url(#bodymask)"/>
<path d="M240,0 C300.0,0 300.0,-30.0 360.0,-30.0 C420.0,-30.0 420.0,0 480.0,0 C420.0,0 420.0,30.0 360.0,30.0 C300.0,30.0 300.0,0 240,0Z" stroke="#a76754" stroke-width="10.0" fill="none" mask="url(#bodymask)"/>
<path d="M240,60 C300.0,60 300.0,30.0 360.0,30.0 C420.0,30.0 420.0,60 480.0,60 C420.0,60 420.0,90.0 360.0,90.0 C300.0,90.0 300.0,60 240,60Z" stroke="#a76754" stroke-width="10.0" fill="none" mask="url(#bodymask)"/>
<path d="M240,120 C300.0,120 300.0,90.0 360.0,90.0 C420.0,90.0 420.0,120 480.0,120 C420.0,120 420.0,150.0 360.0,150.0 C300.0,150.0 300.0,120 240,120Z" stroke="#a76754" stroke-width="10.0" fill="none" mask="url(#bodymask)"/>
<path d="M240,180 C300.0,180 300.0,150.0 360.0,150.0 C420.0,150.0 420.0,180 480.0,180 C420.0,180 420.0,210.0 360.0,210.0 C300.0,210.0 300.0,180 240,180Z" stroke="#a76754" stroke-width="10.0" fill="none" mask="url(#bodymask)"/>
<path d="M240,240 C300.0,240 300.0,210.0 360.0,210.0 C420.0,210.0 420.0,240 480.0,240 C420.0,240 420.0,270.0 360.0,270.0 C300.0,270.0 300.0,240 240,240Z" stroke="#a76754" stroke-width="10.0" fill="none" mask="url(#bodymask)"/>
<path d="M240,300 C300.0,300 300.0,270.0 360.0,270.0 C420.0,270.0 420.0,300 480.0,300 C420.0,300 420.0,330.0 360.0,330.0 C300.0,330.0 300.0,300 240,300Z" stroke="#a76754" stroke-width="10.0" fill="none" mask="url(#bodymask)"/>
<path d="M240,360 C300.0,360 300.0,330.0 360.0,330.0 C420.0,330.0 420.0,360 480.0,360 C420.0,360 420.0,390.0 360.0,390.0 C300.0,390.0 300.0,360 240,360Z" stroke="#a76754" stroke-width="10.0" fill="none" mask="url(#bodymask)"/>
<path d="M240,420 C300.0,420 300.0,390.0 360.0,390.0 C420.0,390.0 420.0,420 480.0,420 C420.0,420 420.0,450.0 360.0,450.0 C300.0,450.0 300.0,420 240,420Z" stroke="#a76754" stroke-width="10.0" fill="none" mask="url(#bodymask)"/>
<path d="M240,480 C300.0,480 300.0,450.0 360.0,450.0 C420.0,450.0 420.0,480 480.0,480 C420.0,480 420.0,510.0 360.0,510.0 C300.0,510.0 300.0,480 240,480Z" stroke="#a76754" stroke-width="10.0" fill="none" mask="url(#bodymask)"/>
<path d="M240,540 C300.0,540 300.0,510.0 360.0,510.0 C420.0,510.0 420.0,540 480.0,540 C420.0,540 420.0,570.0 360.0,570.0 C300.0,570.0 300.0,540 240,540Z" stroke="#a76754" stroke-width="10.0" fill="none" mask="url(#bodymask)"/>
<path d="M240,600 C300.0,600 300.0,570.0 360.0,570.0 C420.0,570.0 420.0,600 480.0,600 C420.0,600 420.0,630.0 360.0,630.0 C300.0,630.0 300.0,600 240,600Z" stroke="#a76754" stroke-width="10.0" fill="none" mask="url(#bodymask)"/>
<path d="M240,660 C300.0,660 300.0,630.0 360.0,630.0 C420.0,630.0 420.0,660 480.0,660 C420.0,660 420.0,690.0 360.0,690.0 C300.0,690.0 300.0,660 240,660Z" stroke="#a76754" stroke-width="10.0" fill="none" mask="url(#bodymask)"/>
<path d="M240,720 C300.0,720 300.0,690.0 360.0,690.0 C420.0,690.0 420.0,720 480.0,720 C420.0,720 420.0,750.0 360.0,750.0 C300.0,750.0 300.0,720 240,720Z" stroke="#a76754" stroke-width="10.0" fill="none" mask="url(#bodymask)"/>
<path d="M240,780 C300.0,780 300.0,750.0 360.0,750.0 C420.0,750.0 420.0,780 480.0,780 C420.0,780 420.0,810.0 360.0,810.0 C300.0,810.0 300.0,780 240,780Z" stroke="#a76754" stroke-width="10.0" fill="none" mask="url(#bodymask)"/>
<path d="M240,840 C300.0,840 300.0,810.0 360.0,810.0 C420.0,810.0 420.0,840 480.0,840 C420.0,840 420.0,870.0 360.0,870.0 C300.0,870.0 300.0,840 240,840Z" stroke="#a76754" stroke-width="10.0" fill="none" mask="url(#bodymask)"/>
<path d="M240,900 C300.0,900 300.0,870.0 360.0,870.0 C420.0,870.0 420.0,900 480.0,900 C420.0,900 420.0,930.0 360.0,930.0 C300.0,930.0 300.0,900 240,900Z" stroke="#a76754" stroke-width="10.0" fill="none" mask="url(#bodymask)"/>
<path d="M240,960 C300.0,960 300.0,930.0 360.0,930.0 C420.0,930.0 420.0,960 480.0,960 C420.0,960 420.0,990.0 360.0,990.0 C300.0,990.0 300.0,960 240,960Z" stroke="#a76754" stroke-width="10.0" fill="none" mask="url(#bodymask)"/>
<path d="M240,1020 C300.0,1020 300.0,990.0 360.0,990.0 C420.0,990.0 420.0,1020 480.0,1020 C420.0,1020 420.0,1050.0 360.0,1050.0 C300.0,1050.0 300.0,1020 240,1020Z" stroke="#a76754" stroke-width="10.0" fill="none" mask="url(#bodymask)"/>
<path d="M240,1080 C300.0,1080 300.0,1050.0 360.0,1050.0 C420.0,1050.0 420.0,1080 480.0,1080 C420.0,1080 420.0,1110.0 360.0,1110.0 C300.0,1110.0 300.0,1080 240,1080Z" stroke="#a76754" stroke-width="10.0" fill="none" mask="url(#bodymask)"/>
<path d="M240,1140 C300.0,1140 300.0,1110.0 360.0,1110.0 C420.0,1110.0 420.0,1140 480.0,1140 C420.0,1140 420.0,1170.0 360.0,1170.0 C300.0,1170.0 300.0,1140 240,1140Z" stroke="#a76754" stroke-width="10.0" fill="none" mask="url(#bodymask)"/>
<path d="M240,1200 C300.0,1200 300.0,1170.0 360.0,1170.0 C420.0,1170.0 420.0,1200 480.0,1200 C420.0,1200 420.0,1230.0 360.0,1230.0 C300.0,1230.0 300.0,1200 240,1200Z" stroke="#a76754" stroke-width="10.0" fill="none" mask="url(#bodymask)"/>
<path d="M240,1260 C300.0,1260 300.0,1230.0 360.0,1230.0 C420.0,1230.0 420.0,1260 480.0,1260 C420.0,1260 420.0,1290.0 360.0,1290.0 C300.0,1290.0 300.0,1260 240,1260Z" stroke="#a76754" stroke-width="10.0" fill="none" mask="url(#bodymask)"/>
<path d="M240,1320 C300.0,1320 300.0,1290.0 360.0,1290.0 C420.0,1290.0 420.0,1320 480.0,1320 C420.0,1320 420.0,1350.0 360.0,1350.0 C300.0,1350.0 300.0,1320 240,1320Z" stroke="#a76754" stroke-width="10.0" fill="none" mask="url(#bodymask)"/>
<path d="M240,1380 C300.0,1380 300.0,1350.0 360.0,1350.0 C420.0,1350.0 420.0,1380 480.0,1380 C420.0,1380 420.0,1410.0 360.0,1410.0 C300.0,1410.0 300.0,1380 240,1380Z" stroke="#a76754" stroke-width="10.0" fill="none" mask="url(#bodymask)"/>
<path d="M240,1440 C300.0,1440 300.0,1410.0 360.0,1410.0 C420.0,1410.0 420.0,1440 480.0,1440 C420.0,1440 420.0,1470.0 360.0,1470.0 C300.0,1470.0 300.0,1440 240,1440Z" stroke="#a76754" stroke-width="10.0" fill="none" mask="url(#bodymask)"/>
<path d="M240,1500 C300.0,1500 300.0,1470.0 360.0,1470.0 C420.0,1470.0 420.0,1500 480.0,1500 C420.0,1500 420.0,1530.0 360.0,1530.0 C300.0,1530.0 300.0,1500 240,1500Z" stroke="#a76754" stroke-width="10.0" fill="none" mask="url(#bodymask)"/>
<path d="M240,1560 C300.0,1560 300.0,1530.0 360.0,1530.0 C420.0,1530.0 420.0,1560 480.0,1560 C420.0,1560 420.0,1590.0 360.0,1590.0 C300.0,1590.0 300.0,1560 240,1560Z" stroke="#a76754" stroke-width="10.0" fill="none" mask="url(#bodymask)"/>
<path d="M240,1620 C300.0,1620 300.0,1590.0 360.0,1590.0 C420.0,1590.0 420.0,1620 480.0,1620 C420.0,1620 420.0,1650.0 360.0,1650.0 C300.0,1650.0 300.0,1620 240,1620Z" stroke="#a76754" stroke-width="10.0" fill="none" mask="url(#bodymask)"/>
<path d="M240,1680 C300.0,1680 300.0,1650.0 360.0,1650.0 C420.0,1650.0 420.0,1680 480.0,1680 C420.0,1680 420.0,1710.0 360.0,1710.0 C300.0,1710.0 300.0,1680 240,1680Z" stroke="#a76754" stroke-width="10.0" fill="none" mask="url(#bodymask)"/>
<path d="M240,1740 C300.0,1740 300.0,1710.0 360.0,1710.0 C420.0,1710.0 420.0,1740 480.0,1740 C420.0,1740 420.0,1770.0 360.0,1770.0 C300.0,1770.0 300.0,1740 240,1740Z" stroke="#a76754" stroke-width="10.0" fill="none" mask="url(#bodymask)"/>
<path d="M240,1800 C300.0,1800 300.0,1770.0 360.0,1770.0 C420.0,1770.0 420.0,1800 480.0,1800 C420.0,1800 420.0,1830.0 360.0,1830.0 C300.0,1830.0 300.0,1800 240,1800Z" stroke="#a76754" stroke-width="10.0" fill="none" mask="url(#bodymask)"/>
<path d="M240,1860 C300.0,1860 300.0,1830.0 360.0,1830.0 C420.0,1830.0 420.0,1860 480.0,1860 C420.0,1860 420.0,1890.0 360.0,1890.0 C300.0,1890.0 300.0,1860 240,1860Z" stroke="#a76754" stroke-width="10.0" fill="none" mask="url(#bodymask)"/>
<path d="M240,1920 C300.0,1920 300.0,1890.0 360.0,1890.0 C420.0,1890.0 420.0,1920 480.0,1920 C420.0,1920 420.0,1950.0 360.0,1950.0 C300.0,1950.0 300.0,1920 240,1920Z" stroke="#a76754" stroke-width="10.0" fill="none" mask="url(#bodymask)"/>
<path d="M240,1980 C300.0,1980 300.0,1950.0 360.0,1950.0 C420.0,1950.0 420.0,1980 480.0,1980 C420.0,1980 420.0,2010.0 360.0,2010.0 C300.0,2010.0 300.0,1980 240,1980Z" stroke="#a76754" stroke-width="10.0" fill="none" mask="url(#bodymask)"/>
<path d="M240,2040 C300.0,2040 300.0,2010.0 360.0,2010.0 C420.0,2010.0 420.0,2040 480.0,2040 C420.0,2040 420.0,2070.0 360.0,2070.0 C300.0,2070.0 300.0,2040 240,2040Z" stroke="#a76754" stroke-width="10.0" fill="none" mask="url(#bodymask)"/>
<path d="M240,2100 C300.0,2100 300.0,2070.0 360.0,2070.0 C420.0,2070.0 420.0,2100 480.0,2100 C420.0,2100 420.0,2130.0 360.0,2130.0 C300.0,2130.0 300.0,2100 240,2100Z" stroke="#a76754" stroke-width="10.0" fill="none" mask="url(#bodymask)"/>
<path d="M240,2160 C300.0,2160 300.0,2130.0 360.0,2130.0 C420.0,2130.0 420.0,2160 480.0,2160 C420.0,2160 420.0,2190.0 360.0,2190.0 C300.0,2190.0 300.0,2160 240,2160Z" stroke="#a76754" stroke-width="10.0" fill="none" mask="url(#bodymask)"/>
<path d="M240,2220 C300.0,2220 300.0,2190.0 360.0,2190.0 C420.0,2190.0 420.0,2220 480.0,2220 C420.0,2220 420.0,2250.0 360.0,2250.0 C300.0,2250.0 300.0,2220 240,2220Z" stroke="#a76754" stroke-width="10.0" fill="none" mask="url(#bodymask)"/>
<path d="M240,2280 C300.0,2280 300.0,2250.0 360.0,2250.0 C420.0,2250.0 420.0,2280 480.0,2280 C420.0,2280 420.0,2310.0 360.0,2310.0 C300.0,2310.0 300.0,2280 240,2280Z" stroke="#a76754" stroke-width="10.0" fill="none" mask="url(#bodymask)"/>
<path d="M240,2340 C300.0,2340 300.0,2310.0 360.0,2310.0 C420.0,2310.0 420.0,2340 480.0,2340 C420.0,2340 420.0,2370.0 360.0,2370.0 C300.0,2370.0 300.0,2340 240,2340Z" stroke="#a76754" stroke-width="10.0" fill="none" mask="url(#bodymask)"/>
<path d="M480,0 C540.0,0 540.0,-30.0 600.0,-30.0 C660.0,-30.0 660.0,0 720.0,0 C660.0,0 660.0,30.0 600.0,30.0 C540.0,30.0 540.0,0 480,0Z" stroke="#a76754" stroke-width="10.0" fill="none" mask="url(#bodymask)"/>
<path d="M480,60 C540.0,60 540.0,30.0 600.0,30.0 C660.0,30.0 660.0,60 720.0,60 C660.0,60 660.0,90.0 600.0,90.0 C540.0,90.0 540.0,60 480,60Z" stroke="#a76754" stroke-width="10.0" fill="none" mask="url(#bodymask)"/>
<path d="M480,120 C540.0,120 540.0,90.0 600.0,90.0 C660.0,90.0 660.0,120 720.0,120 C660.0,120 660.0,150.0 600.0,150.0 C540.0,150.0 540.0,120 480,120Z" stroke="#a76754" stroke-width="10.0" fill="none" mask="url(#bodymask)"/>
<path d="M480,180 C540.0,180 540.0,150.0 600.0,150.0 C660.0,150.0 660.0,180 720.0,180 C660.0,180 660.0,210.0 600.0,210.0 C540.0,210.0 540.0,180 480,180Z" stroke="#a76754" stroke-width="10.0" fill="none" mask="url(#bodymask)"/>
<path d="M480,240 C540.0,240 540.0,210.0 600.0,210.0 C660.0,210.0 660.0,240 720.0,240 C660.0,240 660.0,270.0 600.0,270.0 C540.0,270.0 540.0,240 480,240Z" stroke="#a76754" stroke-width="10.0" fill="none" mask="url(#bodymask)"/>
<path d="M480,300 C540.0,300 540.0,270.0 600.0,270.0 C660.0,270.0 660.0,300 720.0,300 C660.0,300 660.0,330.0 600.0,330.0 C540.0,330.0 540.0,300 480,300Z" stroke="#a76754" stroke-width="10.0" fill="none" mask="url(#bodymask)"/>
<path d="M480,360 C540.0,360 540.0,330.0 600.0,330.0 C660.0,330.0 660.0,360 720.0,360 C660.0,360 660.0,390.0 600.0,390.0 C540.0,390.0 540.0,360 480,360Z" stroke="#a76754" stroke-width="10.0" fill="none" mask="url(#bodymask)"/>
<path d="M480,420 C540.0,420 540.0,390.0 600.0,390.0 C660.0,390.0 660.0,420 720.0,420 C660.0,420 660.0,450.0 600.0,450.0 C540.0,450.0 540.0,420 480,420Z" stroke="#a76754" stroke-width="10.0" fill="none" mask="url(#bodymask)"/>
<path d="M480,480 C540.0,480 540.0,450.0 600.0,450.0 C660.0,450.0 660.0,480 720.0,480 C660.0,480 660.0,510.0 600.0,510.0 C540.0,510.0 540.0,480 480,480Z" stroke="#a76754" stroke-width="10.0" fill="none" mask="url(#bodymask)"/>
<path d="M480,540 C540.0,540 540.0,510.0 600.0,510.0 C660.0,510.0 660.0,540 720.0,540 C660.0,540 660.0,570.0 600.0,570.0 C540.0,570.0 540.0,540 480,540Z" stroke="#a76754" stroke-width="10.0" fill="none" mask="url(#bodymask)"/>
<path d="M480,600 C540.0,600 540.0,570.0 600.0,570.0 C660.0,570.0 660.0,600 720.0,600 C660.0,600 660.0,630.0 600.0,630.0 C540.0,630.0 540.0,600 480,600Z" stroke="#a76754" stroke-width="10.0" fill="none" mask="url(#bodymask)"/>
<path d="M480,660 C540.0,660 540.0,630.0 600.0,630.0 C660.0,630.0 660.0,660 720.0,660 C660.0,660 660.0,690.0 600.0,690.0 C540.0,690.0 540.0,660 480,660Z" stroke="#a76754" stroke-width="10.0" fill="none" mask="url(#bodymask)"/>
<path d="M480,720 C540.0,720 540.0,690.0 600.0,690.0 C660.0,690.0 660.0,720 720.0,720 C660.0,720 660.0,750.0 600.0,750.0 C540.0,750.0 540.0,720 480,720Z" stroke="#a76754" stroke-width="10.0" fill="none" mask="url(#bodymask)"/>
<path d="M480,780 C540.0,780 540.0,750.0 600.0,750.0 C660.0,750.0 660.0,780 720.0,780 C660.0,780 660.0,810.0 600.0,810.0 C540.0,810.0 540.0,780 480,780Z" stroke="#a76754" stroke-width="10.0" fill="none" mask="url(#bodymask)"/>
<path d="M480,840 C540.0,840 540.0,810.0 600.0,810.0 C660.0,810.0 660.0,840 720.0,840 C660.0,840 660.0,870.0 600.0,870.0 C540.0,870.0 540.0,840 480,840Z" stroke="#a76754" stroke-width="10.0" fill="none" mask="url(#bodymask)"/>
<path d="M480,900 C540.0,900 540.0,870.0 600.0,870.0 C660.0,870.0 660.0,900 720.0,900 C660.0,900 660.0,930.0 600.0,930.0 C540.0,930.0 540.0,900 480,900Z" stroke="#a76754" stroke-width="10.0" fill="none" mask="url(#bodymask)"/>
<path d="M480,960 C540.0,960 540.0,930.0 600.0,930.0 C660.0,930.0 660.0,960 720.0,960 C660.0,960 660.0,990.0 600.0,990.0 C540.0,990.0 540.0,960 480,960Z" stroke="#a76754" stroke-width="10.0" fill="none" mask="url(#bodymask)"/>
<path d="M480,1020 C540.0,1020 540.0,990.0 600.0,990.0 C660.0,990.0 660.0,1020 720.0,1020 C660.0,1020 660.0,1050.0 600.0,1050.0 C540.0,1050.0 540.0,1020 480,1020Z" stroke="#a76754" stroke-width="10.0" fill="none" mask="url(#bodymask)"/>
<path d="M480,1080 C540.0,1080 540.0,1050.0 600.0,1050.0 C660.0,1050.0 660.0,1080 720.0,1080 C660.0,1080 660.0,1110.0 600.0,1110.0 C540.0,1110.0 540.0,1080 480,1080Z" stroke="#a76754" stroke-width="10.0" fill="none" mask="url(#bodymask)"/>
<path d="M480,1140 C540.0,1140 540.0,1110.0 600.0,1110.0 C660.0,1110.0 660.0,1140 720.0,1140 C660.0,1140 660.0,1170.0 600.0,1170.0 C540.0,1170.0 540.0,1140 480,1140Z" stroke="#a76754" stroke-width="10.0" fill="none" mask="url(#bodymask)"/>
<path d="M480,1200 C540.0,1200 540.0,1170.0 600.0,1170.0 C660.0,1170.0 660.0,1200 720.0,1200 C660.0,1200 660.0,1230.0 600.0,1230.0 C540.0,1230.0 540.0,1200 480,1200Z" stroke="#a76754" stroke-width="10.0" fill="none" mask="url(#bodymask)"/>
<path d="M480,1260 C540.0,1260 540.0,1230.0 600.0,1230.0 C660.0,1230.0 660.0,1260 720.0,1260 C660.0,1260 660.0,1290.0 600.0,1290.0 C540.0,1290.0 540.0,1260 480,1260Z" stroke="#a76754" stroke-width="10.0" fill="none" mask="url(#bodymask)"/>
<path d="M480,1320 C540.0,1320 540.0,1290.0 600.0,1290.0 C660.0,1290.0 660.0,1320 720.0,1320 C660.0,1320 660.0,1350.0 600.0,1350.0 C540.0,1350.0 540.0,1320 480,1320Z" stroke="#a76754" stroke-width="10.0" fill="none" mask="url(#bodymask)"/>
<path d="M480,1380 C540.0,1380 540.0,1350.0 600.0,1350.0 C660.0,1350.0 660.0,1380 720.0,1380 C660.0,1380 660.0,1410.0 600.0,1410.0 C540.0,1410.0 540.0,1380 480,1380Z" stroke="#a76754" stroke-width="10.0" fill="none" mask="url(#bodymask)"/>
<path d="M480,1440 C540.0,1440 540.0,1410.0 600.0,1410.0 C660.0,1410.0 660.0,1440 720.0,1440 C660.0,1440 660.0,1470.0 600.0,1470.0 C540.0,1470.0 540.0,1440 480,1440Z" stroke="#a76754" stroke-width="10.0" fill="none" mask="url(#bodymask)"/>
<path d="M480,1500 C540.0,1500 540.0,1470.0 600.0,1470.0 C660.0,1470.0 660.0,1500 720.0,1500 C660.0,1500 660.0,1530.0 600.0,1530.0 C540.0,1530.0 540.0,1500 480,1500Z" stroke="#a76754" stroke-width="10.0" fill="none" mask="url(#bodymask)"/>
<path d="M480,1560 C540.0,1560 540.0,1530.0 600.0,1530.0 C660.0,1530.0 660.0,1560 720.0,1560 C660.0,1560 660.0,1590.0 600.0,1590.0 C540.0,1590.0 540.0,1560 480,1560Z" stroke="#a76754" stroke-width="10.0" fill="none" mask="url(#bodymask)"/>
<path d="M480,1620 C540.0,1620 540.0,1590.0 600.0,1590.0 C660.0,1590.0 660.0,1620 720.0,1620 C660.0,1620 660.0,1650.0 600.0,1650.0 C540.0,1650.0 540.0,1620 480,1620Z" stroke="#a76754" stroke-width="10.0" fill="none" mask="url(#bodymask)"/>
<path d="M480,1680 C540.0,1680 540.0,1650.0 600.0,1650.0 C660.0,1650.0 660.0,1680 720.0,1680 C660.0,1680 660.0,1710.0 600.0,1710.0 C540.0,1710.0 540.0,1680 480,1680Z" stroke="#a76754" stroke-width="10.0" fill="none" mask="url(#bodymask)"/>
<path d="M480,1740 C540.0,1740 540.0,1710.0 600.0,1710.0 C660.0,1710.0 660.0,1740 720.0,1740 C660.0,1740 660.0,1770.0 600.0,1770.0 C540.0,1770.0 540.0,1740 480,1740Z" stroke="#a76754" stroke-width="10.0" fill="none" mask="url(#bodymask)"/>
<path d="M480,1800 C540.0,1800 540.0,1770.0 600.0,1770.0 C660.0,1770.0 660.0,1800 720.0,1800 C660.0,1800 660.0,1830.0 600.0,1830.0 C540.0,1830.0 540.0,1800 480,1800Z" stroke="#a76754" stroke-width="10.0" fill="none" mask="url(#bodymask)"/>
<path d="M480,1860 C540.0,1860 540.0,1830.0 600.0,1830.0 C660.0,1830.0 660.0,1860 720.0,1860 C660.0,1860 660.0,1890.0 600.0,1890.0 C540.0,1890.0 540.0,1860 480,1860Z" stroke="#a76754" stroke-width="10.0" fill="none" mask="url(#bodymask)"/>
<path d="M480,1920 C540.0,1920 540.0,1890.0 600.0,1890.0 C660.0,1890.0 660.0,1920 720.0,1920 C660.0,1920 660.0,1950.0 600.0,1950.0 C540.0,1950.0 540.0,1920 480,1920Z" stroke="#a76754" stroke-width="10.0" fill="none" mask="url(#bodymask)"/>
<path d="M480,1980 C540.0,1980 540.0,1950.0 600.0,1950.0 C660.0,1950.0 660.0,1980 720.0,1980 C660.0,1980 660.0,2010.0 600.0,2010.0 C540.0,2010.0 540.0,1980 480,1980Z" stroke="#a76754" stroke-width="10.0" fill="none" mask="url(#bodymask)"/>
<path d="M480,2040 C540.0,2040 540.0,2010.0 600.0,2010.0 C660.0,2010.0 660.0,2040 720.0,2040 C660.0,2040 660.0,2070.0 600.0,2070.0 C540.0,2070.0 540.0,2040 480,2040Z" stroke="#a76754" stroke-width="10.0" fill="none" mask="url(#bodymask)"/>
<path d="M480,2100 C540.0,2100 540.0,2070.0 600.0,2070.0 C660.0,2070.0 660.0,2100 720.0,2100 C660.0,2100 660.0,2130.0 600.0,2130.0 C540.0,2130.0 540.0,2100 480,2100Z" stroke="#a76754" stroke-width="10.0" fill="none" mask="url(#bodymask)"/>
<path d="M480,2160 C540.0,2160 540.0,2130.0 600.0,2130.0 C660.0,2130.0 660.0,2160 720.0,2160 C660.0,2160 660.0,2190.0 600.0,2190.0 C540.0,2190.0 540.0,2160 480,2160Z" stroke="#a76754" stroke-width="10.0" fill="none" mask="url(#bodymask)"/>
<path d="M480,2220 C540.0,2220 540.0,2190.0 600.0,2190.0 C660.0,2190.0 660.0,2220 720.0,2220 C660.0,2220 660.0,2250.0 600.0,2250.0 C540.0,2250.0 540.0,2220 480,2220Z" stroke="#a76754" stroke-width="10.0" fill="none" mask="url(#bodymask)"/>
<path d="M480,2280 C540.0,2280 540.0,2250.0 600.0,2250.0 C660.0,2250.0 660.0,2280 720.0,2280 C660.0,2280 660.0,2310.0 600.0,2310.0 C540.0,2310.0 540.0,2280 480,2280Z" stroke="#a76754" stroke-width="10.0" fill="none" mask="url(#bodymask)"/>
<path d="M480,2340 C540.0,2340 540.0,2310.0 600.0,2310.0 C660.0,2310.0 660.0,2340 720.0,2340 C660.0,2340 660.0,2370.0 600.0,2370.0 C540.0,2370.0 540.0,2340 480,2340Z" stroke="#a76754" stroke-width="10.0" fill="none" mask="url(#bodymask)"/>
<path d="M720,0 C780.0,0 780.0,-30.0 840.0,-30.0 C900.0,-30.0 900.0,0 960.0,0 C900.0,0 900.0,30.0 840.0,30.0 C780.0,30.0 780.0,0 720,0Z" stroke="#a76754" stroke-width="10.0" fill="none" mask="url(#bodymask)"/>
<path d="M720,60 C780.0,60 780.0,30.0 840.0,30.0 C900.0,30.0 900.0,60 960.0,60 C900.0,60 900.0,90.0 840.0,90.0 C780.0,90.0 780.0,60 720,60Z" stroke="#a76754" stroke-width="10.0" fill="none" mask="url(#bodymask)"/>
<path d="M720,120 C780.0,120 780.0,90.0 840.0,90.0 C900.0,90.0 900.0,120 960.0,120 C900.0,120 900.0,150.0 840.0,150.0 C780.0,150.0 780.0,120 720,120Z" stroke="#a76754" stroke-width="10.0" fill="none" mask="url(#bodymask)"/>
<path d="M720,180 C780.0,180 780.0,150.0 840.0,150.0 C900.0,150.0 900.0,180 960.0,180 C900.0,180 900.0,210.0 840.0,210.0 C780.0,210.0 780.0,180 720,180Z" stroke="#a76754" stroke-width="10.0" fill="none" mask="url(#bodymask)"/>
<path d="M720,240 C780.0,240 780.0,210.0 840.0,210.0 C900.0,210.0 900.0,240 960.0,240 C900.0,240 900.0,270.0 840.0,270.0 C780.0,270.0 780.0,240 720,240Z" stroke="#a76754" stroke-width="10.0" fill="none" mask="url(#bodymask)"/>
<path d="M720,300 C780.0,300 780.0,270.0 840.0,270.0 C900.0,270.0 900.0,300 960.0,300 C900.0,300 900.0,330.0 840.0,330.0 C780.0,330.0 780.0,300 720,300Z" stroke="#a76754" stroke-width="10.0" fill="none" mask="url(#bodymask)"/>
<path d="M720,360 C780.0,360 780.0,330.0 840.0,330.0 C900.0,330.0 900.0,360 960.0,360 C900.0,360 900.0,390.0 840.0,390.0 C780.0,390.0 780.0,360 720,360Z" stroke="#a76754" stroke-width="10.0" fill="none" mask="url(#bodymask)"/>
<path d="M720,420 C780.0,420 780.0,390.0 840.0,390.0 C900.0,390.0 900.0,420 960.0,420 C900.0,420 900.0,450.0 840.0,450.0 C780.0,450.0 780.0,420 720,420Z" stroke="#a76754" stroke-width="10.0" fill="none" mask="url(#bodymask)"/>
<path d="M720,480 C780.0,480 780.0,450.0 840.0,450.0 C900.0,450.0 900.0,480 960.0,480 C900.0,480 900.0,510.0 840.0,510.0 C780.0,510.0 780.0,480 720,480Z" stroke="#a76754" stroke-width="10.0" fill="none" mask="url(#bodymask)"/>
<path d="M720,540 C780.0,540 780.0,510.0 840.0,510.0 C900.0,510.0 900.0,540 960.0,540 C900.0,540 900.0,570.0 840.0,570.0 C780.0,570.0 780.0,540 720,540Z" stroke="#a76754" stroke-width="10.0" fill="none" mask="url(#bodymask)"/>
<path d="M720,600 C780.0,600 780.0,570.0 840.0,570.0 C900.0,570.0 900.0,600 960.0,600 C900.0,600 900.0,630.0 840.0,630.0 C780.0,630.0 780.0,600 720,600Z" stroke="#a76754" stroke-width="10.0" fill="none" mask="url(#bodymask)"/>
<path d="M720,660 C780.0,660 780.0,630.0 840.0,630.0 C900.0,630.0 900.0,660 960.0,660 C900.0,660 900.0,690.0 840.0,690.0 C780.0,690.0 780.0,660 720,660Z" stroke="#a76754" stroke-width="10.0" fill="none" mask="url(#bodymask)"/>
<path d="M720,720 C780.0,720 780.0,690.0 840.0,690.0 C900.0,690.0 900.0,720 960.0,720 C900.0,720 900.0,750.0 840.0,750.0 C780.0,750.0 780.0,720 720,720Z" stroke="#a76754" stroke-width="10.0" fill="none" mask="url(#bodymask)"/>
<path d="M720,780 C780.0,780 780.0,750.0 840.0,750.0 C900.0,750.0 900.0,780 960.0,780 C900.0,780 900.0,810.0 840.0,810.0 C780.0,810.0 780.0,780 720,780Z" stroke="#a76754" stroke-width="10.0" fill="none" mask="url(#bodymask)"/>
<path d="M720,840 C780.0,840 780.0,810.0 840.0,810.0 C900.0,810.0 900.0,840 960.0,840 C900.0,840 900.0,870.0 840.0,870.0 C780.0,870.0 780.0,840 720,840Z" stroke="#a76754" stroke-width="10.0" fill="none" mask="url(#bodymask)"/>
<path d="M720,900 C780.0,900 780.0,870.0 840.0,870.0 C900.0,870.0 900.0,900 960.0,900 C900.0,900 900.0,930.0 840.0,930.0 C780.0,930.0 780.0,900 720,900Z" stroke="#a76754" stroke-width="10.0" fill="none" mask="url(#bodymask)"/>
<path d="M720,960 C780.0,960 780.0,930.0 840.0,930.0 C900.0,930.0 900.0,960 960.0,960 C900.0,960 900.0,990.0 840.0,990.0 C780.0,990.0 780.0,960 720,960Z" stroke="#a76754" stroke-width="10.0" fill="none" mask="url(#bodymask)"/>
<path d="M720,1020 C780.0,1020 780.0,990.0 840.0,990.0 C900.0,990.0 900.0,1020 960.0,1020 C900.0,1020 900.0,1050.0 840.0,1050.0 C780.0,1050.0 780.0,1020 720,1020Z" stroke="#a76754" stroke-width="10.0" fill="none" mask="url(#bodymask)"/>
<path d="M720,1080 C780.0,1080 780.0,1050.0 840.0,1050.0 C900.0,1050.0 900.0,1080 960.0,1080 C900.0,1080 900.0,1110.0 840.0,1110.0 C780.0,1110.0 780.0,1080 720,1080Z" stroke="#a76754" stroke-width="10.0" fill="none" mask="url(#bodymask)"/>
<path d="M720,1140 C780.0,1140 780.0,1110.0 840.0,1110.0 C900.0,1110.0 900.0,1140 960.0,1140 C900.0,1140 900.0,1170.0 840.0,1170.0 C780.0,1170.0 780.0,1140 720,1140Z" stroke="#a76754" stroke-width="10.0" fill="none" mask="url(#bodymask)"/>
<path d="M720,1200 C780.0,1200 780.0,1170.0 840.0,1170.0 C900.0,1170.0 900.0,1200 960.0,1200 C900.0,1200 900.0,1230.0 840.0,1230.0 C780.0,1230.0 780.0,1200 720,1200Z" stroke="#a76754" stroke-width="10.0" fill="none" mask="url(#bodymask)"/>
<path d="M720,1260 C780.0,1260 780.0,1230.0 840.0,1230.0 C900.0,1230.0 900.0,1260 960.0,1260 C900.0,1260 900.0,1290.0 840.0,1290.0 C780.0,1290.0 780.0,1260 720,1260Z" stroke="#a76754" stroke-width="10.0" fill="none" mask="url(#bodymask)"/>
<path d="M720,1320 C780.0,1320 780.0,1290.0 840.0,1290.0 C900.0,1290.0 900.0,1320 960.0,1320 C900.0,1320 900.0,1350.0 840.0,1350.0 C780.0,1350.0 780.0,1320 720,1320Z" stroke="#a76754" stroke-width="10.0" fill="none" mask="url(#bodymask)"/>
<path d="M720,1380 C780.0,1380 780.0,1350.0 840.0,1350.0 C900.0,1350.0 900.0,1380 960.0,1380 C900.0,1380 900.0,1410.0 840.0,1410.0 C780.0,1410.0 780.0,1380 720,1380Z" stroke="#a76754" stroke-width="10.0" fill="none" mask="url(#bodymask)"/>
<path d="M720,1440 C780.0,1440 780.0,1410.0 840.0,1410.0 C900.0,1410.0 900.0,1440 960.0,1440 C900.0,1440 900.0,1470.0 840.0,1470.0 C780.0,1470.0 780.0,1440 720,1440Z" stroke="#a76754" stroke-width="10.0" fill="none" mask="url(#bodymask)"/>
<path d="M720,1500 C780.0,1500 780.0,1470.0 840.0,1470.0 C900.0,1470.0 900.0,1500 960.0,1500 C900.0,1500 900.0,1530.0 840.0,1530.0 C780.0,1530.0 780.0,1500 720,1500Z" stroke="#a76754" stroke-width="10.0" fill="none" mask="url(#bodymask)"/>
<path d="M720,1560 C780.0,1560 780.0,1530.0 840.0,1530.0 C900.0,1530.0 900.0,1560 960.0,1560 C900.0,1560 900.0,1590.0 840.0,1590.0 C780.0,1590.0 780.0,1560 720,1560Z" stroke="#a76754" stroke-width="10.0" fill="none" mask="url(#bodymask)"/>
<path d="M720,1620 C780.0,1620 780.0,1590.0 840.0,1590.0 C900.0,1590.0 900.0,1620 960.0,1620 C900.0,1620 900.0,1650.0 840.0,1650.0 C780.0,1650.0 780.0,1620 720,1620Z" stroke="#a76754" stroke-width="10.0" fill="none" mask="url(#bodymask)"/>
<path d="M720,1680 C780.0,1680 780.0,1650.0 840.0,1650.0 C900.0,1650.0 900.0,1680 960.0,1680 C900.0,1680 900.0,1710.0 840.0,1710.0 C780.0,1710.0 780.0,1680 720,1680Z" stroke="#a76754" stroke-width="10.0" fill="none" mask="url(#bodymask)"/>
<path d="M720,1740 C780.0,1740 780.0,1710.0 840.0,1710.0 C900.0,1710.0 900.0,1740 960.0,1740 C900.0,1740 900.0,1770.0 840.0,1770.0 C780.0,1770.0 780.0,1740 720,1740Z" stroke="#a76754" stroke-width="10.0" fill="none" mask="url(#bodymask)"/>
<path d="M720,1800 C780.0,1800 780.0,1770.0 840.0,1770.0 C900.0,1770.0 900.0,1800 960.0,1800 C900.0,1800 900.0,1830.0 840.0,1830.0 C780.0,1830.0 780.0,1800 720,1800Z" stroke="#a76754" stroke-width="10.0" fill="none" mask="url(#bodymask)"/>
<path d="M720,1860 C780.0,1860 780.0,1830.0 840.0,1830.0 C900.0,1830.0 900.0,1860 960.0,1860 C900.0,1860 900.0,1890.0 840.0,1890.0 C780.0,1890.0 780.0,1860 720,1860Z" stroke="#a76754" stroke-width="10.0" fill="none" mask="url(#bodymask)"/>
<path d="M720,1920 C780.0,1920 780.0,1890.0 840.0,1890.0 C900.0,1890.0 900.0,1920 960.0,1920 C900.0,1920 900.0,1950.0 840.0,1950.0 C780.0,1950.0 780.0,1920 720,1920Z" stroke="#a76754" stroke-width="10.0" fill="none" mask="url(#bodymask)"/>
<path d="M720,1980 C780.0,1980 780.0,1950.0 840.0,1950.0 C900.0,1950.0 900.0,1980 960.0,1980 C900.0,1980 900.0,2010.0 840.0,2010.0 C780.0,2010.0 780.0,1980 720,1980Z" stroke="#a76754" stroke-width="10.0" fill="none" mask="url(#bodymask)"/>
<path d="M720,2040 C780.0,2040 780.0,2010.0 840.0,2010.0 C900.0,2010.0 900.0,2040 960.0,2040 C900.0,2040 900.0,2070.0 840.0,2070.0 C780.0,2070.0 780.0,2040 720,2040Z" stroke="#a76754" stroke-width="10.0" fill="none" mask="url(#bodymask)"/>
<path d="M720,2100 C780.0,2100 780.0,2070.0 840.0,2070.0 C900.0,2070.0 900.0,2100 960.0,2100 C900.0,2100 900.0,2130.0 840.0,2130.0 C780.0,2130.0 780.0,2100 720,2100Z" stroke="#a76754" stroke-width="10.0" fill="none" mask="url(#bodymask)"/>
<path d="M720,2160 C780.0,2160 780.0,2130.0 840.0,2130.0 C900.0,2130.0 900.0,2160 960.0,2160 C900.0,2160 900.0,2190.0 840.0,2190.0 C780.0,2190.0 780.0,2160 720,2160Z" stroke="#a76754" stroke-width="10.0" fill="none" mask="url(#bodymask)"/>
<path d="M720,2220 C780.0,2220 780.0,2190.0 840.0,2190.0 C900.0,2190.0 900.0,2220 960.0,2220 C900.0,2220 900.0,2250.0 840.0,2250.0 C780.0,2250.0 780.0,2220 720,2220Z" stroke="#a76754" stroke-width="10.0" fill="none" mask="url(#bodymask)"/>
<path d="M720,2280 C780.0,2280 780.0,2250.0 840.0,2250.0 C900.0,2250.0 900.0,2280 960.0,2280 C900.0,2280 900.0,2310.0 840.0,2310.0 C780.0,2310.0 780.0,2280 720,2280Z" stroke="#a76754" stroke-width="10.0" fill="none" mask="url(#bodymask)"/>
<path d="M720,2340 C780.0,2340 780.0,2310.0 840.0,2310.0 C900.0,2310.0 900.0,2340 960.0,2340 C900.0,2340 900.0,2370.0 840.0,2370.0 C780.0,2370.0 780.0,2340 720,2340Z" stroke="#a76754" stroke-width="10.0" fill="none" mask="url(#bodymask)"/>
<path d="M960,0 C1020.0,0 1020.0,-30.0 1080.0,-30.0 C1140.0,-30.0 1140.0,0 1200.0,0 C1140.0,0 1140.0,30.0 1080.0,30.0 C1020.0,30.0 1020.0,0 960,0Z" stroke="#a76754" stroke-width="10.0" fill="none" mask="url(#bodymask)"/>
<path d="M960,60 C1020.0,60 1020.0,30.0 1080.0,30.0 C1140.0,30.0 1140.0,60 1200.0,60 C1140.0,60 1140.0,90.0 1080.0,90.0 C1020.0,90.0 1020.0,60 960,60Z" stroke="#a76754" stroke-width="10.0" fill="none" mask="url(#bodymask)"/>
<path d="M960,120 C1020.0,120 1020.0,90.0 1080.0,90.0 C1140.0,90.0 1140.0,120 1200.0,120 C1140.0,120 1140.0,150.0 1080.0,150.0 C1020.0,150.0 1020.0,120 960,120Z" stroke="#a76754" stroke-width="10.0" fill="none" mask="url(#bodymask)"/>
<path d="M960,180 C1020.0,180 1020.0,150.0 1080.0,150.0 C1140.0,150.0 1140.0,180 1200.0,180 C1140.0,180 1140.0,210.0 1080.0,210.0 C1020.0,210.0 1020.0,180 960,180Z" stroke="#a76754" stroke-width="10.0" fill="none" mask="url(#bodymask)"/>
<path d="M960,240 C1020.0,240 1020.0,210.0 1080.0,210.0 C1140.0,210.0 1140.0,240 1200.0,240 C1140.0,240 1140.0,270.0 1080.0,270.0 C1020.0,270.0 1020.0,240 960,240Z" stroke="#a76754" stroke-width="10.0" fill="none" mask="url(#bodymask)"/>
<path d="M960,300 C1020.0,300 1020.0,270.0 1080.0,270.0 C1140.0,270.0 1140.0,300 1200.0,300 C1140.0,300 1140.0,330.0 1080.0,330.0 C1020.0,330.0 1020.0,300 960,300Z" stroke="#a76754" stroke-width="10.0" fill="none" mask="url(#bodymask)"/>
<path d="M960,360 C1020.0,360 1020.0,330.0 1080.0,330.0 C1140.0,330.0 1140.0,360 1200.0,360 C1140.0,360 1140.0,390.0 1080.0,390.0 C1020.0,390.0 1020.0,360 960,360Z" stroke="#a76754" stroke-width="10.0" fill="none" mask="url(#bodymask)"/>
<path d="M960,420 C1020.0,420 1020.0,390.0 1080.0,390.0 C1140.0,390.0 1140.0,420 1200.0,420 C1140.0,420 1140.0,450.0 1080.0,450.0 C1020.0,450.0 1020.0,420 960,420Z" stroke="#a76754" stroke-width="10.0" fill="none" mask="url(#bodymask)"/>
<path d="M960,480 C1020.0,480 1020.0,450.0 1080.0,450.0 C1140.0,450.0 1140.0,480 1200.0,480 C1140.0,480 1140.0,510.0 1080.0,510.0 C1020.0,510.0 1020.0,480 960,480Z" stroke="#a76754" stroke-width="10.0" fill="none" mask="url(#bodymask)"/>
<path d="M960,540 C1020.0,540 1020.0,510.0 1080.0,510.0 C1140.0,510.0 1140.0,540 1200.0,540 C1140.0,540 1140.0,570.0 1080.0,570.0 C1020.0,570.0 1020.0,540 960,540Z" stroke="#a76754" stroke-width="10.0" fill="none" mask="url(#bodymask)"/>
<path d="M960,600 C1020.0,600 1020.0,570.0 1080.0,570.0 C1140.0,570.0 1140.0,600 1200.0,600 C1140.0,600 1140.0,630.0 1080.0,630.0 C1020.0,630.0 1020.0,600 960,600Z" stroke="#a76754" stroke-width="10.0" fill="none" mask="url(#bodymask)"/>
<path d="M960,660 C1020.0,660 1020.0,630.0 1080.0,630.0 C1140.0,630.0 1140.0,660 1200.0,660 C1140.0,660 1140.0,690.0 1080.0,690.0 C1020.0,690.0 1020.0,660 960,660Z" stroke="#a76754" stroke-width="10.0" fill="none" mask="url(#bodymask)"/>
<path d="M960,720 C1020.0,720 1020.0,690.0 1080.0,690.0 C1140.0,690.0 1140.0,720 1200.0,720 C1140.0,720 1140.0,750.0 1080.0,750.0 C1020.0,750.0 1020.0,720 960,720Z" stroke="#a76754" stroke-width="10.0" fill="none" mask="url(#bodymask)"/>
<path d="M960,780 C1020.0,780 1020.0,750.0 1080.0,750.0 C1140.0,750.0 1140.0,780 1200.0,780 C1140.0,780 1140.0,810.0 1080.0,810.0 C1020.0,810.0 1020.0,780 960,780Z" stroke="#a76754" stroke-width="10.0" fill="none" mask="url(#bodymask)"/>
<path d="M960,840 C1020.0,840 1020.0,810.0 1080.0,810.0 C1140.0,810.0 1140.0,840 1200.0,840 C1140.0,840 1140.0,870.0 1080.0,870.0 C1020.0,870.0 1020.0,840 960,840Z" stroke="#a76754" stroke-width="10.0" fill="none" mask="url(#bodymask)"/>
<path d="M960,900 C1020.0,900 1020.0,870.0 1080.0,870.0 C1140.0,870.0 1140.0,900 1200.0,900 C1140.0,900 1140.0,930.0 1080.0,930.0 C1020.0,930.0 1020.0,900 960,900Z" stroke="#a76754" stroke-width="10.0" fill="none" mask="url(#bodymask)"/>
<path d="M960,960 C1020.0,960 1020.0,930.0 1080.0,930.0 C1140.0,930.0 1140.0,960 1200.0,960 C1140.0,960 1140.0,990.0 1080.0,990.0 C1020.0,990.0 1020.0,960 960,960Z" stroke="#a76754" stroke-width="10.0" fill="none" mask="url(#bodymask)"/>
<path d="M960,1020 C1020.0,1020 1020.0,990.0 1080.0,990.0 C1140.0,990.0 1140.0,1020 1200.0,1020 C1140.0,1020 1140.0,1050.0 1080.0,1050.0 C1020.0,1050.0 1020.0,1020 960,1020Z" stroke="#a76754" stroke-width="10.0" fill="none" mask="url(#bodymask)"/>
<path d="M960,1080 C1020.0,1080 1020.0,1050.0 1080.0,1050.0 C1140.0,1050.0 1140.0,1080 1200.0,1080 C1140.0,1080 1140.0,1110.0 1080.0,1110.0 C1020.0,1110.0 1020.0,1080 960,1080Z" stroke="#a76754" stroke-width="10.0" fill="none" mask="url(#bodymask)"/>
<path d="M960,1140 C1020.0,1140 1020.0,1110.0 1080.0,1110.0 C1140.0,1110.0 1140.0,1140 1200.0,1140 C1140.0,1140 1140.0,1170.0 1080.0,1170.0 C1020.0,1170.0 1020.0,1140 960,1140Z" stroke="#a76754" stroke-width="10.0" fill="none" mask="url(#bodymask)"/>
<path d="M960,1200 C1020.0,1200 1020.0,1170.0 1080.0,1170.0 C1140.0,1170.0 1140.0,1200 1200.0,1200 C1140.0,1200 1140.0,1230.0 1080.0,1230.0 C1020.0,1230.0 1020.0,1200 960,1200Z" stroke="#a76754" stroke-width="10.0" fill="none" mask="url(#bodymask)"/>
<path d="M960,1260 C1020.0,1260 1020.0,1230.0 1080.0,1230.0 C1140.0,1230.0 1140.0,1260 1200.0,1260 C1140.0,1260 1140.0,1290.0 1080.0,1290.0 C1020.0,1290.0 1020.0,1260 960,1260Z" stroke="#a76754" stroke-width="10.0" fill="none" mask="url(#bodymask)"/>
<path d="M960,1320 C1020.0,1320 1020.0,1290.0 1080.0,1290.0 C1140.0,1290.0 1140.0,1320 1200.0,1320 C1140.0,1320 1140.0,1350.0 1080.0,1350.0 C1020.0,1350.0 1020.0,1320 960,1320Z" stroke="#a76754" stroke-width="10.0" fill="none" mask="url(#bodymask)"/>
<path d="M960,1380 C1020.0,1380 1020.0,1350.0 1080.0,1350.0 C1140.0,1350.0 1140.0,1380 1200.0,1380 C1140.0,1380 1140.0,1410.0 1080.0,1410.0 C1020.0,1410.0 1020.0,1380 960,1380Z" stroke="#a76754" stroke-width="10.0" fill="none" mask="url(#bodymask)"/>
<path d="M960,1440 C1020.0,1440 1020.0,1410.0 1080.0,1410.0 C1140.0,1410.0 1140.0,1440 1200.0,1440 C1140.0,1440 1140.0,1470.0 1080.0,1470.0 C1020.0,1470.0 1020.0,1440 960,1440Z" stroke="#a76754" stroke-width="10.0" fill="none" mask="url(#bodymask)"/>
<path d="M960,1500 C1020.0,1500 1020.0,1470.0 1080.0,1470.0 C1140.0,1470.0 1140.0,1500 1200.0,1500 C1140.0,1500 1140.0,1530.0 1080.0,1530.0 C1020.0,1530.0 1020.0,1500 960,1500Z" stroke="#a76754" stroke-width="10.0" fill="none" mask="url(#bodymask)"/>
<path d="M960,1560 C1020.0,1560 1020.0,1530.0 1080.0,1530.0 C1140.0,1530.0 1140.0,1560 1200.0,1560 C1140.0,1560 1140.0,1590.0 1080.0,1590.0 C1020.0,1590.0 1020.0,1560 960,1560Z" stroke="#a76754" stroke-width="10.0" fill="none" mask="url(#bodymask)"/>
<path d="M960,1620 C1020.0,1620 1020.0,1590.0 1080.0,1590.0 C1140.0,1590.0 1140.0,1620 1200.0,1620 C1140.0,1620 1140.0,1650.0 1080.0,1650.0 C1020.0,1650.0 1020.0,1620 960,1620Z" stroke="#a76754" stroke-width="10.0" fill="none" mask="url(#bodymask)"/>
<path d="M960,1680 C1020.0,1680 1020.0,1650.0 1080.0,1650.0 C1140.0,1650.0 1140.0,1680 1200.0,1680 C1140.0,1680 1140.0,1710.0 1080.0,1710.0 C1020.0,1710.0 1020.0,1680 960,1680Z" stroke="#a76754" stroke-width="10.0" fill="none" mask="url(#bodymask)"/>
<path d="M960,1740 C1020.0,1740 1020.0,1710.0 1080.0,1710.0 C1140.0,1710.0 1140.0,1740 1200.0,1740 C1140.0,1740 1140.0,1770.0 1080.0,1770.0 C1020.0,1770.0 1020.0,1740 960,1740Z" stroke="#a76754" stroke-width="10.0" fill="none" mask="url(#bodymask)"/>
<path d="M960,1800 C1020.0,1800 1020.0,1770.0 1080.0,1770.0 C1140.0,1770.0 1140.0,1800 1200.0,1800 C1140.0,1800 1140.0,1830.0 1080.0,1830.0 C1020.0,1830.0 1020.0,1800 960,1800Z" stroke="#a76754" stroke-width="10.0" fill="none" mask="url(#bodymask)"/>
<path d="M960,1860 C1020.0,1860 1020.0,1830.0 1080.0,1830.0 C1140.0,1830.0 1140.0,1860 1200.0,1860 C1140.0,1860 1140.0,1890.0 1080.0,1890.0 C1020.0,1890.0 1020.0,1860 960,1860Z" stroke="#a76754" stroke-width="10.0" fill="none" mask="url(#bodymask)"/>
<path d="M960,1920 C1020.0,1920 1020.0,1890.0 1080.0,1890.0 C1140.0,1890.0 1140.0,1920 1200.0,1920 C1140.0,1920 1140.0,1950.0 1080.0,1950.0 C1020.0,1950.0 1020.0,1920 960,1920Z" stroke="#a76754" stroke-width="10.0" fill="none" mask="url(#bodymask)"/>
<path d="M960,1980 C1020.0,1980 1020.0,1950.0 1080.0,1950.0 C1140.0,1950.0 1140.0,1980 1200.0,1980 C1140.0,1980 1140.0,2010.0 1080.0,2010.0 C1020.0,2010.0 1020.0,1980 960,1980Z" stroke="#a76754" stroke-width="10.0" fill="none" mask="url(#bodymask)"/>
<path d="M960,2040 C1020.0,2040 1020.0,2010.0 1080.0,2010.0 C1140.0,2010.0 1140.0,2040 1200.0,2040 C1140.0,2040 1140.0,2070.0 1080.0,2070.0 C1020.0,2070.0 1020.0,2040 960,2040Z" stroke="#a76754" stroke-width="10.0" fill="none" mask="url(#bodymask)"/>
<path d="M960,2100 C1020.0,2100 1020.0,2070.0 1080.0,2070.0 C1140.0,2070.0 1140.0,2100 1200.0,2100 C1140.0,2100 1140.0,2130.0 1080.0,2130.0 C1020.0,2130.0 1020.0,2100 960,2100Z" stroke="#a76754" stroke-width="10.0" fill="none" mask="url(#bodymask)"/>
<path d="M960,2160 C1020.0,2160 1020.0,2130.0 1080.0,2130.0 C1140.0,2130.0 1140.0,2160 1200.0,2160 C1140.0,2160 1140.0,2190.0 1080.0,2190.0 C1020.0,2190.0 1020.0,2160 960,2160Z" stroke="#a76754" stroke-width="10.0" fill="none" mask="url(#bodymask)"/>
<path d="M960,2220 C1020.0,2220 1020.0,2190.0 1080.0,2190.0 C1140.0,2190.0 1140.0,2220 1200.0,2220 C1140.0,2220 1140.0,2250.0 1080.0,2250.0 C1020.0,2250.0 1020.0,2220 960,2220Z" stroke="#a76754" stroke-width="10.0" fill="none" mask="url(#bodymask)"/>
<path d="M960,2280 C1020.0,2280 1020.0,2250.0 1080.0,2250.0 C1140.0,2250.0 1140.0,2280 1200.0,2280 C1140.0,2280 1140.0,2310.0 1080.0,2310.0 C1020.0,2310.0 1020.0,2280 960,2280Z" stroke="#a76754" stroke-width="10.0" fill="none" mask="url(#bodymask)"/>
<path d="M960,2340 C1020.0,2340 1020.0,2310.0 1080.0,2310.0 C1140.0,2310.0 1140.0,2340 1200.0,2340 C1140.0,2340 1140.0,2370.0 1080.0,2370.0 C1020.0,2370.0 1020.0,2340 960,2340Z" stroke="#a76754" stroke-width="10.0" fill="none" mask="url(#bodymask)"/>
<path d="M1200,0 C1260.0,0 1260.0,-30.0 1320.0,-30.0 C1380.0,-30.0 1380.0,0 1440.0,0 C1380.0,0 1380.0,30.0 1320.0,30.0 C1260.0,30.0 1260.0,0 1200,0Z" stroke="#a76754" stroke-width="10.0" fill="none" mask="url(#bodymask)"/>
<path d="M1200,60 C1260.0,60 1260.0,30.0 1320.0,30.0 C1380.0,30.0 1380.0,60 1440.0,60 C1380.0,60 1380.0,90.0 1320.0,90.0 C1260.0,90.0 1260.0,60 1200,60Z" stroke="#a76754" stroke-width="10.0" fill="none" mask="url(#bodymask)"/>
<path d="M1200,120 C1260.0,120 1260.0,90.0 1320.0,90.0 C1380.0,90.0 1380.0,120 1440.0,120 C1380.0,120 1380.0,150.0 1320.0,150.0 C1260.0,150.0 1260.0,120 1200,120Z" stroke="#a76754" stroke-width="10.0" fill="none" mask="url(#bodymask)"/>
<path d="M1200,180 C1260.0,180 1260.0,150.0 1320.0,150.0 C1380.0,150.0 1380.0,180 1440.0,180 C1380.0,180 1380.0,210.0 1320.0,210.0 C1260.0,210.0 1260.0,180 1200,180Z" stroke="#a76754" stroke-width="10.0" fill="none" mask="url(#bodymask)"/>
<path d="M1200,240 C1260.0,240 1260.0,210.0 1320.0,210.0 C1380.0,210.0 1380.0,240 1440.0,240 C1380.0,240 1380.0,270.0 1320.0,270.0 C1260.0,270.0 1260.0,240 1200,240Z" stroke="#a76754" stroke-width="10.0" fill="none" mask="url(#bodymask)"/>
<path d="M1200,300 C1260.0,300 1260.0,270.0 1320.0,270.0 C1380.0,270.0 1380.0,300 1440.0,300 C1380.0,300 1380.0,330.0 1320.0,330.0 C1260.0,330.0 1260.0,300 1200,300Z" stroke="#a76754" stroke-width="10.0" fill="none" mask="url(#bodymask)"/>
<path d="M1200,360 C1260.0,360 1260.0,330.0 1320.0,330.0 C1380.0,330.0 1380.0,360 1440.0,360 C1380.0,360 1380.0,390.0 1320.0,390.0 C1260.0,390.0 1260.0,360 1200,360Z" stroke="#a76754" stroke-width="10.0" fill="none" mask="url(#bodymask)"/>
<path d="M1200,420 C1260.0,420 1260.0,390.0 1320.0,390.0 C1380.0,390.0 1380.0,420 1440.0,420 C1380.0,420 1380.0,450.0 1320.0,450.0 C1260.0,450.0 1260.0,420 1200,420Z" stroke="#a76754" stroke-width="10.0" fill="none" mask="url(#bodymask)"/>
<path d="M1200,480 C1260.0,480 1260.0,450.0 1320.0,450.0 C1380.0,450.0 1380.0,480 1440.0,480 C1380.0,480 1380.0,510.0 1320.0,510.0 C1260.0,510.0 1260.0,480 1200,480Z" stroke="#a76754" stroke-width="10.0" fill="none" mask="url(#bodymask)"/>
<path d="M1200,540 C1260.0,540 1260.0,510.0 1320.0,510.0 C1380.0,510.0 1380.0,540 1440.0,540 C1380.0,540 1380.0,570.0 1320.0,570.0 C1260.0,570.0 1260.0,540 1200,540Z" stroke="#a76754" stroke-width="10.0" fill="none" mask="url(#bodymask)"/>
<path d="M1200,600 C1260.0,600 1260.0,570.0 1320.0,570.0 C1380.0,570.0 1380.0,600 1440.0,600 C1380.0,600 1380.0,630.0 1320.0,630.0 C1260.0,630.0 1260.0,600 1200,600Z" stroke="#a76754" stroke-width="10.0" fill="none" mask="url(#bodymask)"/>
<path d="M1200,660 C1260.0,660 1260.0,630.0 1320.0,630.0 C1380.0,630.0 1380.0,660 1440.0,660 C1380.0,660 1380.0,690.0 1320.0,690.0 C1260.0,690.0 1260.0,660 1200,660Z" stroke="#a76754" stroke-width="10.0" fill="none" mask="url(#bodymask)"/>
<path d="M1200,720 C1260.0,720 1260.0,690.0 1320.0,690.0 C1380.0,690.0 1380.0,720 1440.0,720 C1380.0,720 1380.0,750.0 1320.0,750.0 C1260.0,750.0 1260.0,720 1200,720Z" stroke="#a76754" stroke-width="10.0" fill="none" mask="url(#bodymask)"/>
<path d="M1200,780 C1260.0,780 1260.0,750.0 1320.0,750.0 C1380.0,750.0 1380.0,780 1440.0,780 C1380.0,780 1380.0,810.0 1320.0,810.0 C1260.0,810.0 1260.0,780 1200,780Z" stroke="#a76754" stroke-width="10.0" fill="none" mask="url(#bodymask)"/>
<path d="M1200,840 C1260.0,840 1260.0,810.0 1320.0,810.0 C1380.0,810.0 1380.0,840 1440.0,840 C1380.0,840 1380.0,870.0 1320.0,870.0 C1260.0,870.0 1260.0,840 1200,840Z" stroke="#a76754" stroke-width="10.0" fill="none" mask="url(#bodymask)"/>
<path d="M1200,900 C1260.0,900 1260.0,870.0 1320.0,870.0 C1380.0,870.0 1380.0,900 1440.0,900 C1380.0,900 1380.0,930.0 1320.0,930.0 C1260.0,930.0 1260.0,900 1200,900Z" stroke="#a76754" stroke-width="10.0" fill="none" mask="url(#bodymask)"/>
<path d="M1200,960 C1260.0,960 1260.0,930.0 1320.0,930.0 C1380.0,930.0 1380.0,960 1440.0,960 C1380.0,960 1380.0,990.0 1320.0,990.0 C1260.0,990.0 1260.0,960 1200,960Z" stroke="#a76754" stroke-width="10.0" fill="none" mask="url(#bodymask)"/>
<path d="M1200,1020 C1260.0,1020 1260.0,990.0 1320.0,990.0 C1380.0,990.0 1380.0,1020 1440.0,1020 C1380.0,1020 1380.0,1050.0 1320.0,1050.0 C1260.0,1050.0 1260.0,1020 1200,1020Z" stroke="#a76754" stroke-width="10.0" fill="none" mask="url(#bodymask)"/>
<path d="M1200,1080 C1260.0,1080 1260.0,1050.0 1320.0,1050.0 C1380.0,1050.0 1380.0,1080 1440.0,1080 C1380.0,1080 1380.0,1110.0 1320.0,1110.0 C1260.0,1110.0 1260.0,1080 1200,1080Z" stroke="#a76754" stroke-width="10.0" fill="none" mask="url(#bodymask)"/>
<path d="M1200,1140 C1260.0,1140 1260.0,1110.0 1320.0,1110.0 C1380.0,1110.0 1380.0,1140 1440.0,1140 C1380.0,1140 1380.0,1170.0 1320.0,1170.0 C1260.0,1170.0 1260.0,1140 1200,1140Z" stroke="#a76754" stroke-width="10.0" fill="none" mask="url(#bodymask)"/>
<path d="M1200,1200 C1260.0,1200 1260.0,1170.0 1320.0,1170.0 C1380.0,1170.0 1380.0,1200 1440.0,1200 C1380.0,1200 1380.0,1230.0 1320.0,1230.0 C1260.0,1230.0 1260.0,1200 1200,1200Z" stroke="#a76754" stroke-width="10.0" fill="none" mask="url(#bodymask)"/>
<path d="M1200,1260 C1260.0,1260 1260.0,1230.0 1320.0,1230.0 C1380.0,1230.0 1380.0,1260 1440.0,1260 C1380.0,1260 1380.0,1290.0 1320.0,1290.0 C1260.0,1290.0 1260.0,1260 1200,1260Z" stroke="#a76754" stroke-width="10.0" fill="none" mask="url(#bodymask)"/>
<path d="M1200,1320 C1260.0,1320 1260.0,1290.0 1320.0,1290.0 C1380.0,1290.0 1380.0,1320 1440.0,1320 C1380.0,1320 1380.0,1350.0 1320.0,1350.0 C1260.0,1350.0 1260.0,1320 1200,1320Z" stroke="#a76754" stroke-width="10.0" fill="none" mask="url(#bodymask)"/>
<path d="M1200,1380 C1260.0,1380 1260.0,1350.0 1320.0,1350.0 C1380.0,1350.0 1380.0,1380 1440.0,1380 C1380.0,1380 1380.0,1410.0 1320.0,1410.0 C1260.0,1410.0 1260.0,1380 1200,1380Z" stroke="#a76754" stroke-width="10.0" fill="none" mask="url(#bodymask)"/>
<path d="M1200,1440 C1260.0,1440 1260.0,1410.0 1320.0,1410.0 C1380.0,1410.0 1380.0,1440 1440.0,1440 C1380.0,1440 1380.0,1470.0 1320.0,1470.0 C1260.0,1470.0 1260.0,1440 1200,1440Z" stroke="#a76754" stroke-width="10.0" fill="none" mask="url(#bodymask)"/>
<path d="M1200,1500 C1260.0,1500 1260.0,1470.0 1320.0,1470.0 C1380.0,1470.0 1380.0,1500 1440.0,1500 C1380.0,1500 1380.0,1530.0 1320.0,1530.0 C1260.0,1530.0 1260.0,1500 1200,1500Z" stroke="#a76754" stroke-width="10.0" fill="none" mask="url(#bodymask)"/>
<path d="M1200,1560 C1260.0,1560 1260.0,1530.0 1320.0,1530.0 C1380.0,1530.0 1380.0,1560 1440.0,1560 C1380.0,1560 1380.0,1590.0 1320.0,1590.0 C1260.0,1590.0 1260.0,1560 1200,1560Z" stroke="#a76754" stroke-width="10.0" fill="none" mask="url(#bodymask)"/>
<path d="M1200,1620 C1260.0,1620 1260.0,1590.0 1320.0,1590.0 C1380.0,1590.0 1380.0,1620 1440.0,1620 C1380.0,1620 1380.0,1650.0 1320.0,1650.0 C1260.0,1650.0 1260.0,1620 1200,1620Z" stroke="#a76754" stroke-width="10.0" fill="none" mask="url(#bodymask)"/>
<path d="M1200,1680 C1260.0,1680 1260.0,1650.0 1320.0,1650.0 C1380.0,1650.0 1380.0,1680 1440.0,1680 C1380.0,1680 1380.0,1710.0 1320.0,1710.0 C1260.0,1710.0 1260.0,1680 1200,1680Z" stroke="#a76754" stroke-width="10.0" fill="none" mask="url(#bodymask)"/>
<path d="M1200,1740 C1260.0,1740 1260.0,1710.0 1320.0,1710.0 C1380.0,1710.0 1380.0,1740 1440.0,1740 C1380.0,1740 1380.0,1770.0 1320.0,1770.0 C1260.0,1770.0 1260.0,1740 1200,1740Z" stroke="#a76754" stroke-width="10.0" fill="none" mask="url(#bodymask)"/>
<path d="M1200,1800 C1260.0,1800 1260.0,1770.0 1320.0,1770.0 C1380.0,1770.0 1380.0,1800 1440.0,1800 C1380.0,1800 1380.0,1830.0 1320.0,1830.0 C1260.0,1830.0 1260.0,1800 1200,1800Z" stroke="#a76754" stroke-width="10.0" fill="none" mask="url(#bodymask)"/>
<path d="M1200,1860 C1260.0,1860 1260.0,1830.0 1320.0,1830.0 C1380.0,1830.0 1380.0,1860 1440.0,1860 C1380.0,1860 1380.0,1890.0 1320.0,1890.0 C1260.0,1890.0 1260.0,1860 1200,1860Z" stroke="#a76754" stroke-width="10.0" fill="none" mask="url(#bodymask)"/>
<path d="M1200,1920 C1260.0,1920 1260.0,1890.0 1320.0,1890.0 C1380.0,1890.0 1380.0,1920 1440.0,1920 C1380.0,1920 1380.0,1950.0 1320.0,1950.0 C1260.0,1950.0 1260.0,1920 1200,1920Z" stroke="#a76754" stroke-width="10.0" fill="none" mask="url(#bodymask)"/>
<path d="M1200,1980 C1260.0,1980 1260.0,1950.0 1320.0,1950.0 C1380.0,1950.0 1380.0,1980 1440.0,1980 C1380.0,1980 1380.0,2010.0 1320.0,2010.0 C1260.0,2010.0 1260.0,1980 1200,1980Z" stroke="#a76754" stroke-width="10.0" fill="none" mask="url(#bodymask)"/>
<path d="M1200,2040 C1260.0,2040 1260.0,2010.0 1320.0,2010.0 C1380.0,2010.0 1380.0,2040 1440.0,2040 C1380.0,2040 1380.0,2070.0 1320.0,2070.0 C1260.0,2070.0 1260.0,2040 1200,2040Z" stroke="#a76754" stroke-width="10.0" fill="none" mask="url(#bodymask)"/>
<path d="M1200,2100 C1260.0,2100 1260.0,2070.0 1320.0,2070.0 C1380.0,2070.0 1380.0,2100 1440.0,2100 C1380.0,2100 1380.0,2130.0 1320.0,2130.0 C1260.0,2130.0 1260.0,2100 1200,2100Z" stroke="#a76754" stroke-width="10.0" fill="none" mask="url(#bodymask)"/>
<path d="M1200,2160 C1260.0,2160 1260.0,2130.0 1320.0,2130.0 C1380.0,2130.0 1380.0,2160 1440.0,2160 C1380.0,2160 1380.0,2190.0 1320.0,2190.0 C1260.0,2190.0 1260.0,2160 1200,2160Z" stroke="#a76754" stroke-width="10.0" fill="none" mask="url(#bodymask)"/>
<path d="M1200,2220 C1260.0,2220 1260.0,2190.0 1320.0,2190.0 C1380.0,2190.0 1380.0,2220 1440.0,2220 C1380.0,2220 1380.0,2250.0 1320.0,2250.0 C1260.0,2250.0 1260.0,2220 1200,2220Z" stroke="#a76754" stroke-width="10.0" fill="none" mask="url(#bodymask)"/>
<path d="M1200,2280 C1260.0,2280 1260.0,2250.0 1320.0,2250.0 C1380.0,2250.0 1380.0,2280 1440.0,2280 C1380.0,2280 1380.0,2310.0 1320.0,2310.0 C1260.0,2310.0 1260.0,2280 1200,2280Z" stroke="#a76754" stroke-width="10.0" fill="none" mask="url(#bodymask)"/>
<path d="M1200,2340 C1260.0,2340 1260.0,2310.0 1320.0,2310.0 C1380.0,2310.0 1380.0,2340 1440.0,2340 C1380.0,2340 1380.0,2370.0 1320.0,2370.0 C1260.0,2370.0 1260.0,2340 1200,2340Z" stroke="#a76754" stroke-width="10.0" fill="none" mask="url(#bodymask)"/>
<path d="M1440,0 C1500.0,0 1500.0,-30.0 1560.0,-30.0 C1620.0,-30.0 1620.0,0 1680.0,0 C1620.0,0 1620.0,30.0 1560.0,30.0 C1500.0,30.0 1500.0,0 1440,0Z" stroke="#a76754" stroke-width="10.0" fill="none" mask="url(#bodymask)"/>
<path d="M1440,60 C1500.0,60 1500.0,30.0 1560.0,30.0 C1620.0,30.0 1620.0,60 1680.0,60 C1620.0,60 1620.0,90.0 1560.0,90.0 C1500.0,90.0 1500.0,60 1440,60Z" stroke="#a76754" stroke-width="10.0" fill="none" mask="url(#bodymask)"/>
<path d="M1440,120 C1500.0,120 1500.0,90.0 1560.0,90.0 C1620.0,90.0 1620.0,120 1680.0,120 C1620.0,120 1620.0,150.0 1560.0,150.0 C1500.0,150.0 1500.0,120 1440,120Z" stroke="#a76754" stroke-width="10.0" fill="none" mask="url(#bodymask)"/>
<path d="M1440,180 C1500.0,180 1500.0,150.0 1560.0,150.0 C1620.0,150.0 1620.0,180 1680.0,180 C1620.0,180 1620.0,210.0 1560.0,210.0 C1500.0,210.0 1500.0,180 1440,180Z" stroke="#a76754" stroke-width="10.0" fill="none" mask="url(#bodymask)"/>
<path d="M1440,240 C1500.0,240 1500.0,210.0 1560.0,210.0 C1620.0,210.0 1620.0,240 1680.0,240 C1620.0,240 1620.0,270.0 1560.0,270.0 C1500.0,270.0 1500.0,240 1440,240Z" stroke="#a76754" stroke-width="10.0" fill="none" mask="url(#bodymask)"/>
<path d="M1440,300 C1500.0,300 1500.0,270.0 1560.0,270.0 C1620.0,270.0 1620.0,300 1680.0,300 C1620.0,300 1620.0,330.0 1560.0,330.0 C1500.0,330.0 1500.0,300 1440,300Z" stroke="#a76754" stroke-width="10.0" fill="none" mask="url(#bodymask)"/>
<path d="M1440,360 C1500.0,360 1500.0,330.0 1560.0,330.0 C1620.0,330.0 1620.0,360 1680.0,360 C1620.0,360 1620.0,390.0 1560.0,390.0 C1500.0,390.0 1500.0,360 1440,360Z" stroke="#a76754" stroke-width="10.0" fill="none" mask="url(#bodymask)"/>
<path d="M1440,420 C1500.0,420 1500.0,390.0 1560.0,390.0 C1620.0,390.0 1620.0,420 1680.0,420 C1620.0,420 1620.0,450.0 1560.0,450.0 C1500.0,450.0 1500.0,420 1440,420Z" stroke="#a76754" stroke-width="10.0" fill="none" mask="url(#bodymask)"/>
<path d="M1440,480 C1500.0,480 1500.0,450.0 1560.0,450.0 C1620.0,450.0 1620.0,480 1680.0,480 C1620.0,480 1620.0,510.0 1560.0,510.0 C1500.0,510.0 1500.0,480 1440,480Z" stroke="#a76754" stroke-width="10.0" fill="none" mask="url(#bodymask)"/>
<path d="M1440,540 C1500.0,540 1500.0,510.0 1560.0,510.0 C1620.0,510.0 1620.0,540 1680.0,540 C1620.0,540 1620.0,570.0 1560.0,570.0 C1500.0,570.0 1500.0,540 1440,540Z" stroke="#a76754" stroke-width="10.0" fill="none" mask="url(#bodymask)"/>
<path d="M1440,600 C1500.0,600 1500.0,570.0 1560.0,570.0 C1620.0,570.0 1620.0,600 1680.0,600 C1620.0,600 1620.0,630.0 1560.0,630.0 C1500.0,630.0 1500.0,600 1440,600Z" stroke="#a76754" stroke-width="10.0" fill="none" mask="url(#bodymask)"/>
<path d="M1440,660 C1500.0,660 1500.0,630.0 1560.0,630.0 C1620.0,630.0 1620.0,660 1680.0,660 C1620.0,660 1620.0,690.0 1560.0,690.0 C1500.0,690.0 1500.0,660 1440,660Z" stroke="#a76754" stroke-width="10.0" fill="none" mask="url(#bodymask)"/>
<path d="M1440,720 C1500.0,720 1500.0,690.0 1560.0,690.0 C1620.0,690.0 1620.0,720 1680.0,720 C1620.0,720 1620.0,750.0 1560.0,750.0 C1500.0,750.0 1500.0,720 1440,720Z" stroke="#a76754" stroke-width="10.0" fill="none" mask="url(#bodymask)"/>
<path d="M1440,780 C1500.0,780 1500.0,750.0 1560.0,750.0 C1620.0,750.0 1620.0,780 1680.0,780 C1620.0,780 1620.0,810.0 1560.0,810.0 C1500.0,810.0 1500.0,780 1440,780Z" stroke="#a76754" stroke-width="10.0" fill="none" mask="url(#bodymask)"/>
<path d="M1440,840 C1500.0,840 1500.0,810.0 1560.0,810.0 C1620.0,810.0 1620.0,840 1680.0,840 C1620.0,840 1620.0,870.0 1560.0,870.0 C1500.0,870.0 1500.0,840 1440,840Z" stroke="#a76754" stroke-width="10.0" fill="none" mask="url(#bodymask)"/>
<path d="M1440,900 C1500.0,900 1500.0,870.0 1560.0,870.0 C1620.0,870.0 1620.0,900 1680.0,900 C1620.0,900 1620.0,930.0 1560.0,930.0 C1500.0,930.0 1500.0,900 1440,900Z" stroke="#a76754" stroke-width="10.0" fill="none" mask="url(#bodymask)"/>
<path d="M1440,960 C1500.0,960 1500.0,930.0 1560.0,930.0 C1620.0,930.0 1620.0,960 1680.0,960 C1620.0,960 1620.0,990.0 1560.0,990.0 C1500.0,990.0 1500.0,960 1440,960Z" stroke="#a76754" stroke-width="10.0" fill="none" mask="url(#bodymask)"/>
<path d="M1440,1020 C1500.0,1020 1500.0,990.0 1560.0,990.0 C1620.0,990.0 1620.0,1020 1680.0,1020 C1620.0,1020 1620.0,1050.0 1560.0,1050.0 C1500.0,1050.0 1500.0,1020 1440,1020Z" stroke="#a76754" stroke-width="10.0" fill="none" mask="url(#bodymask)"/>
<path d="M1440,1080 C1500.0,1080 1500.0,1050.0 1560.0,1050.0 C1620.0,1050.0 1620.0,1080 1680.0,1080 C1620.0,1080 1620.0,1110.0 1560.0,1110.0 C1500.0,1110.0 1500.0,1080 1440,1080Z" stroke="#a76754" stroke-width="10.0" fill="none" mask="url(#bodymask)"/>
<path d="M1440,1140 C1500.0,1140 1500.0,1110.0 1560.0,1110.0 C1620.0,1110.0 1620.0,1140 1680.0,1140 C1620.0,1140 1620.0,1170.0 1560.0,1170.0 C1500.0,1170.0 1500.0,1140 1440,1140Z" stroke="#a76754" stroke-width="10.0" fill="none" mask="url(#bodymask)"/>
<path d="M1440,1200 C1500.0,1200 1500.0,1170.0 1560.0,1170.0 C1620.0,1170.0 1620.0,1200 1680.0,1200 C1620.0,1200 1620.0,1230.0 1560.0,1230.0 C1500.0,1230.0 1500.0,1200 1440,1200Z" stroke="#a76754" stroke-width="10.0" fill="none" mask="url(#bodymask)"/>
<path d="M1440,1260 C1500.0,1260 1500.0,1230.0 1560.0,1230.0 C1620.0,1230.0 1620.0,1260 1680.0,1260 C1620.0,1260 1620.0,1290.0 1560.0,1290.0 C1500.0,1290.0 1500.0,1260 1440,1260Z" stroke="#a76754" stroke-width="10.0" fill="none" mask="url(#bodymask)"/>
<path d="M1440,1320 C1500.0,1320 1500.0,1290.0 1560.0,1290.0 C1620.0,1290.0 1620.0,1320 1680.0,1320 C1620.0,1320 1620.0,1350.0 1560.0,1350.0 C1500.0,1350.0 1500.0,1320 1440,1320Z" stroke="#a76754" stroke-width="10.0" fill="none" mask="url(#bodymask)"/>
<path d="M1440,1380 C1500.0,1380 1500.0,1350.0 1560.0,1350.0 C1620.0,1350.0 1620.0,1380 1680.0,1380 C1620.0,1380 1620.0,1410.0 1560.0,1410.0 C1500.0,1410.0 1500.0,1380 1440,1380Z" stroke="#a76754" stroke-width="10.0" fill="none" mask="url(#bodymask)"/>
<path d="M1440,1440 C1500.0,1440 1500.0,1410.0 1560.0,1410.0 C1620.0,1410.0 1620.0,1440 1680.0,1440 C1620.0,1440 1620.0,1470.0 1560.0,1470.0 C1500.0,1470.0 1500.0,1440 1440,1440Z" stroke="#a76754" stroke-width="10.0" fill="none" mask="url(#bodymask)"/>
<path d="M1440,1500 C1500.0,1500 1500.0,1470.0 1560.0,1470.0 C1620.0,1470.0 1620.0,1500 1680.0,1500 C1620.0,1500 1620.0,1530.0 1560.0,1530.0 C1500.0,1530.0 1500.0,1500 1440,1500Z" stroke="#a76754" stroke-width="10.0" fill="none" mask="url(#bodymask)"/>
<path d="M1440,1560 C1500.0,1560 1500.0,1530.0 1560.0,1530.0 C1620.0,1530.0 1620.0,1560 1680.0,1560 C1620.0,1560 1620.0,1590.0 1560.0,1590.0 C1500.0,1590.0 1500.0,1560 1440,1560Z" stroke="#a76754" stroke-width="10.0" fill="none" mask="url(#bodymask)"/>
<path d="M1440,1620 C1500.0,1620 1500.0,1590.0 1560.0,1590.0 C1620.0,1590.0 1620.0,1620 1680.0,1620 C1620.0,1620 1620.0,1650.0 1560.0,1650.0 C1500.0,1650.0 1500.0,1620 1440,1620Z" stroke="#a76754" stroke-width="10.0" fill="none" mask="url(#bodymask)"/>
<path d="M1440,1680 C1500.0,1680 1500.0,1650.0 1560.0,1650.0 C1620.0,1650.0 1620.0,1680 1680.0,1680 C1620.0,1680 1620.0,1710.0 1560.0,1710.0 C1500.0,1710.0 1500.0,1680 1440,1680Z" stroke="#a76754" stroke-width="10.0" fill="none" mask="url(#bodymask)"/>
<path d="M1440,1740 C1500.0,1740 1500.0,1710.0 1560.0,1710.0 C1620.0,1710.0 1620.0,1740 1680.0,1740 C1620.0,1740 1620.0,1770.0 1560.0,1770.0 C1500.0,1770.0 1500.0,1740 1440,1740Z" stroke="#a76754" stroke-width="10.0" fill="none" mask="url(#bodymask)"/>
<path d="M1440,1800 C1500.0,1800 1500.0,1770.0 1560.0,1770.0 C1620.0,1770.0 1620.0,1800 1680.0,1800 C1620.0,1800 1620.0,1830.0 1560.0,1830.0 C1500.0,1830.0 1500.0,1800 1440,1800Z" stroke="#a76754" stroke-width="10.0" fill="none" mask="url(#bodymask)"/>
<path d="M1440,1860 C1500.0,1860 1500.0,1830.0 1560.0,1830.0 C1620.0,1830.0 1620.0,1860 1680.0,1860 C1620.0,1860 1620.0,1890.0 1560.0,1890.0 C1500.0,1890.0 1500.0,1860 1440,1860Z" stroke="#a76754" stroke-width="10.0" fill="none" mask="url(#bodymask)"/>
<path d="M1440,1920 C1500.0,1920 1500.0,1890.0 1560.0,1890.0 C1620.0,1890.0 1620.0,1920 1680.0,1920 C1620.0,1920 1620.0,1950.0 1560.0,1950.0 C1500.0,1950.0 1500.0,1920 1440,1920Z" stroke="#a76754" stroke-width="10.0" fill="none" mask="url(#bodymask)"/>
<path d="M1440,1980 C1500.0,1980 1500.0,1950.0 1560.0,1950.0 C1620.0,1950.0 1620.0,1980 1680.0,1980 C1620.0,1980 1620.0,2010.0 1560.0,2010.0 C1500.0,2010.0 1500.0,1980 1440,1980Z" stroke="#a76754" stroke-width="10.0" fill="none" mask="url(#bodymask)"/>
<path d="M1440,2040 C1500.0,2040 1500.0,2010.0 1560.0,2010.0 C1620.0,2010.0 1620.0,2040 1680.0,2040 C1620.0,2040 1620.0,2070.0 1560.0,2070.0 C1500.0,2070.0 1500.0,2040 1440,2040Z" stroke="#a76754" stroke-width="10.0" fill="none" mask="url(#bodymask)"/>
<path d="M1440,2100 C1500.0,2100 1500.0,2070.0 1560.0,2070.0 C1620.0,2070.0 1620.0,2100 1680.0,2100 C1620.0,2100 1620.0,2130.0 1560.0,2130.0 C1500.0,2130.0 1500.0,2100 1440,2100Z" stroke="#a76754" stroke-width="10.0" fill="none" mask="url(#bodymask)"/>
<path d="M1440,2160 C1500.0,2160 1500.0,2130.0 1560.0,2130.0 C1620.0,2130.0 1620.0,2160 1680.0,2160 C1620.0,2160 1620.0,2190.0 1560.0,2190.0 C1500.0,2190.0 1500.0,2160 1440,2160Z" stroke="#a76754" stroke-width="10.0" fill="none" mask="url(#bodymask)"/>
<path d="M1440,2220 C1500.0,2220 1500.0,2190.0 1560.0,2190.0 C1620.0,2190.0 1620.0,2220 1680.0,2220 C1620.0,2220 1620.0,2250.0 1560.0,2250.0 C1500.0,2250.0 1500.0,2220 1440,2220Z" stroke="#a76754" stroke-width="10.0" fill="none" mask="url(#bodymask)"/>
<path d="M1440,2280 C1500.0,2280 1500.0,2250.0 1560.0,2250.0 C1620.0,2250.0 1620.0,2280 1680.0,2280 C1620.0,2280 1620.0,2310.0 1560.0,2310.0 C1500.0,2310.0 1500.0,2280 1440,2280Z" stroke="#a76754" stroke-width="10.0" fill="none" mask="url(#bodymask)"/>
<path d="M1440,2340 C1500.0,2340 1500.0,2310.0 1560.0,2310.0 C1620.0,2310.0 1620.0,2340 1680.0,2340 C1620.0,2340 1620.0,2370.0 1560.0,2370.0 C1500.0,2370.0 1500.0,2340 1440,2340Z" stroke="#a76754" stroke-width="10.0" fill="none" mask="url(#bodymask)"/>
<path d="M1680,0 C1740.0,0 1740.0,-30.0 1800.0,-30.0 C1860.0,-30.0 1860.0,0 1920.0,0 C1860.0,0 1860.0,30.0 1800.0,30.0 C1740.0,30.0 1740.0,0 1680,0Z" stroke="#a76754" stroke-width="10.0" fill="none" mask="url(#bodymask)"/>
<path d="M1680,60 C1740.0,60 1740.0,30.0 1800.0,30.0 C1860.0,30.0 1860.0,60 1920.0,60 C1860.0,60 1860.0,90.0 1800.0,90.0 C1740.0,90.0 1740.0,60 1680,60Z" stroke="#a76754" stroke-width="10.0" fill="none" mask="url(#bodymask)"/>
<path d="M1680,120 C1740.0,120 1740.0,90.0 1800.0,90.0 C1860.0,90.0 1860.0,120 1920.0,120 C1860.0,120 1860.0,150.0 1800.0,150.0 C1740.0,150.0 1740.0,120 1680,120Z" stroke="#a76754" stroke-width="10.0" fill="none" mask="url(#bodymask)"/>
<path d="M1680,180 C1740.0,180 1740.0,150.0 1800.0,150.0 C1860.0,150.0 1860.0,180 1920.0,180 C1860.0,180 1860.0,210.0 1800.0,210.0 C1740.0,210.0 1740.0,180 1680,180Z" stroke="#a76754" stroke-width="10.0" fill="none" mask="url(#bodymask)"/>
<path d="M1680,240 C1740.0,240 1740.0,210.0 1800.0,210.0 C1860.0,210.0 1860.0,240 1920.0,240 C1860.0,240 1860.0,270.0 1800.0,270.0 C1740.0,270.0 1740.0,240 1680,240Z" stroke="#a76754" stroke-width="10.0" fill="none" mask="url(#bodymask)"/>
<path d="M1680,300 C1740.0,300 1740.0,270.0 1800.0,270.0 C1860.0,270.0 1860.0,300 1920.0,300 C1860.0,300 1860.0,330.0 1800.0,330.0 C1740.0,330.0 1740.0,300 1680,300Z" stroke="#a76754" stroke-width="10.0" fill="none" mask="url(#bodymask)"/>
<path d="M1680,360 C1740.0,360 1740.0,330.0 1800.0,330.0 C1860.0,330.0 1860.0,360 1920.0,360 C1860.0,360 1860.0,390.0 1800.0,390.0 C1740.0,390.0 1740.0,360 1680,360Z" stroke="#a76754" stroke-width="10.0" fill="none" mask="url(#bodymask)"/>
<path d="M1680,420 C1740.0,420 1740.0,390.0 1800.0,390.0 C1860.0,390.0 1860.0,420 1920.0,420 C1860.0,420 1860.0,450.0 1800.0,450.0 C1740.0,450.0 1740.0,420 1680,420Z" stroke="#a76754" stroke-width="10.0" fill="none" mask="url(#bodymask)"/>
<path d="M1680,480 C1740.0,480 1740.0,450.0 1800.0,450.0 C1860.0,450.0 1860.0,480 1920.0,480 C1860.0,480 1860.0,510.0 1800.0,510.0 C1740.0,510.0 1740.0,480 1680,480Z" stroke="#a76754" stroke-width="10.0" fill="none" mask="url(#bodymask)"/>
<path d="M1680,540 C1740.0,540 1740.0,510.0 1800.0,510.0 C1860.0,510.0 1860.0,540 1920.0,540 C1860.0,540 1860.0,570.0 1800.0,570.0 C1740.0,570.0 1740.0,540 1680,540Z" stroke="#a76754" stroke-width="10.0" fill="none" mask="url(#bodymask)"/>
<path d="M1680,600 C1740.0,600 1740.0,570.0 1800.0,570.0 C1860.0,570.0 1860.0,600 1920.0,600 C1860.0,600 1860.0,630.0 1800.0,630.0 C1740.0,630.0 1740.0,600 1680,600Z" stroke="#a76754" stroke-width="10.0" fill="none" mask="url(#bodymask)"/>
<path d="M1680,660 C1740.0,660 1740.0,630.0 1800.0,630.0 C1860.0,630.0 1860.0,660 1920.0,660 C1860.0,660 1860.0,690.0 1800.0,690.0 C1740.0,690.0 1740.0,660 1680,660Z" stroke="#a76754" stroke-width="10.0" fill="none" mask="url(#bodymask)"/>
<path d="M1680,720 C1740.0,720 1740.0,690.0 1800.0,690.0 C1860.0,690.0 1860.0,720 1920.0,720 C1860.0,720 1860.0,750.0 1800.0,750.0 C1740.0,750.0 1740.0,720 1680,720Z" stroke="#a76754" stroke-width="10.0" fill="none" mask="url(#bodymask)"/>
<path d="M1680,780 C1740.0,780 1740.0,750.0 1800.0,750.0 C1860.0,750.0 1860.0,780 1920.0,780 C1860.0,780 1860.0,810.0 1800.0,810.0 C1740.0,810.0 1740.0,780 1680,780Z" stroke="#a76754" stroke-width="10.0" fill="none" mask="url(#bodymask)"/>
<path d="M1680,840 C1740.0,840 1740.0,810.0 1800.0,810.0 C1860.0,810.0 1860.0,840 1920.0,840 C1860.0,840 1860.0,870.0 1800.0,870.0 C1740.0,870.0 1740.0,840 1680,840Z" stroke="#a76754" stroke-width="10.0" fill="none" mask="url(#bodymask)"/>
<path d="M1680,900 C1740.0,900 1740.0,870.0 1800.0,870.0 C1860.0,870.0 1860.0,900 1920.0,900 C1860.0,900 1860.0,930.0 1800.0,930.0 C1740.0,930.0 1740.0,900 1680,900Z" stroke="#a76754" stroke-width="10.0" fill="none" mask="url(#bodymask)"/>
<path d="M1680,960 C1740.0,960 1740.0,930.0 1800.0,930.0 C1860.0,930.0 1860.0,960 1920.0,960 C1860.0,960 1860.0,990.0 1800.0,990.0 C1740.0,990.0 1740.0,960 1680,960Z" stroke="#a76754" stroke-width="10.0" fill="none" mask="url(#bodymask)"/>
<path d="M1680,1020 C1740.0,1020 1740.0,990.0 1800.0,990.0 C1860.0,990.0 1860.0,1020 1920.0,1020 C1860.0,1020 1860.0,1050.0 1800.0,1050.0 C1740.0,1050.0 1740.0,1020 1680,1020Z" stroke="#a76754" stroke-width="10.0" fill="none" mask="url(#bodymask)"/>
<path d="M1680,1080 C1740.0,1080 1740.0,1050.0 1800.0,1050.0 C1860.0,1050.0 1860.0,1080 1920.0,1080 C1860.0,1080 1860.0,1110.0 1800.0,1110.0 C1740.0,1110.0 1740.0,1080 1680,1080Z" stroke="#a76754" stroke-width="10.0" fill="none" mask="url(#bodymask)"/>
<path d="M1680,1140 C1740.0,1140 1740.0,1110.0 1800.0,1110.0 C1860.0,1110.0 1860.0,1140 1920.0,1140 C1860.0,1140 1860.0,1170.0 1800.0,1170.0 C1740.0,1170.0 1740.0,1140 1680,1140Z" stroke="#a76754" stroke-width="10.0" fill="none" mask="url(#bodymask)"/>
<path d="M1680,1200 C1740.0,1200 1740.0,1170.0 1800.0,1170.0 C1860.0,1170.0 1860.0,1200 1920.0,1200 C1860.0,1200 1860.0,1230.0 1800.0,1230.0 C1740.0,1230.0 1740.0,1200 1680,1200Z" stroke="#a76754" stroke-width="10.0" fill="none" mask="url(#bodymask)"/>
<path d="M1680,1260 C1740.0,1260 1740.0,1230.0 1800.0,1230.0 C1860.0,1230.0 1860.0,1260 1920.0,1260 C1860.0,1260 1860.0,1290.0 1800.0,1290.0 C1740.0,1290.0 1740.0,1260 1680,1260Z" stroke="#a76754" stroke-width="10.0" fill="none" mask="url(#bodymask)"/>
<path d="M1680,1320 C1740.0,1320 1740.0,1290.0 1800.0,1290.0 C1860.0,1290.0 1860.0,1320 1920.0,1320 C1860.0,1320 1860.0,1350.0 1800.0,1350.0 C1740.0,1350.0 1740.0,1320 1680,1320Z" stroke="#a76754" stroke-width="10.0" fill="none" mask="url(#bodymask)"/>
<path d="M1680,1380 C1740.0,1380 1740.0,1350.0 1800.0,1350.0 C1860.0,1350.0 1860.0,1380 1920.0,1380 C1860.0,1380 1860.0,1410.0 1800.0,1410.0 C1740.0,1410.0 1740.0,1380 1680,1380Z" stroke="#a76754" stroke-width="10.0" fill="none" mask="url(#bodymask)"/>
<path d="M1680,1440 C1740.0,1440 1740.0,1410.0 1800.0,1410.0 C1860.0,1410.0 1860.0,1440 1920.0,1440 C1860.0,1440 1860.0,1470.0 1800.0,1470.0 C1740.0,1470.0 1740.0,1440 1680,1440Z" stroke="#a76754" stroke-width="10.0" fill="none" mask="url(#bodymask)"/>
<path d="M1680,1500 C1740.0,1500 1740.0,1470.0 1800.0,1470.0 C1860.0,1470.0 1860.0,1500 1920.0,1500 C1860.0,1500 1860.0,1530.0 1800.0,1530.0 C1740.0,1530.0 1740.0,1500 1680,1500Z" stroke="#a76754" stroke-width="10.0" fill="none" mask="url(#bodymask)"/>
<path d="M1680,1560 C1740.0,1560 1740.0,1530.0 1800.0,1530.0 C1860.0,1530.0 1860.0,1560 1920.0,1560 C1860.0,1560 1860.0,1590.0 1800.0,1590.0 C1740.0,1590.0 1740.0,1560 1680,1560Z" stroke="#a76754" stroke-width="10.0" fill="none" mask="url(#bodymask)"/>
<path d="M1680,1620 C1740.0,1620 1740.0,1590.0 1800.0,1590.0 C1860.0,1590.0 1860.0,1620 1920.0,1620 C1860.0,1620 1860.0,1650.0 1800.0,1650.0 C1740.0,1650.0 1740.0,1620 1680,1620Z" stroke="#a76754" stroke-width="10.0" fill="none" mask="url(#bodymask)"/>
<path d="M1680,1680 C1740.0,1680 1740.0,1650.0 1800.0,1650.0 C1860.0,1650.0 1860.0,1680 1920.0,1680 C1860.0,1680 1860.0,1710.0 1800.0,1710.0 C1740.0,1710.0 1740.0,1680 1680,1680Z" stroke="#a76754" stroke-width="10.0" fill="none" mask="url(#bodymask)"/>
<path d="M1680,1740 C1740.0,1740 1740.0,1710.0 1800.0,1710.0 C1860.0,1710.0 1860.0,1740 1920.0,1740 C1860.0,1740 1860.0,1770.0 1800.0,1770.0 C1740.0,1770.0 1740.0,1740 1680,1740Z" stroke="#a76754" stroke-width="10.0" fill="none" mask="url(#bodymask)"/>
<path d="M1680,1800 C1740.0,1800 1740.0,1770.0 1800.0,1770.0 C1860.0,1770.0 1860.0,1800 1920.0,1800 C1860.0,1800 1860.0,1830.0 1800.0,1830.0 C1740.0,1830.0 1740.0,1800 1680,1800Z" stroke="#a76754" stroke-width="10.0" fill="none" mask="url(#bodymask)"/>
<path d="M1680,1860 C1740.0,1860 1740.0,1830.0 1800.0,1830.0 C1860.0,1830.0 1860.0,1860 1920.0,1860 C1860.0,1860 1860.0,1890.0 1800.0,1890.0 C1740.0,1890.0 1740.0,1860 1680,1860Z" stroke="#a76754" stroke-width="10.0" fill="none" mask="url(#bodymask)"/>
<path d="M1680,1920 C1740.0,1920 1740.0,1890.0 1800.0,1890.0 C1860.0,1890.0 1860.0,1920 1920.0,1920 C1860.0,1920 1860.0,1950.0 1800.0,1950.0 C1740.0,1950.0 1740.0,1920 1680,1920Z" stroke="#a76754" stroke-width="10.0" fill="none" mask="url(#bodymask)"/>
<path d="M1680,1980 C1740.0,1980 1740.0,1950.0 1800.0,1950.0 C1860.0,1950.0 1860.0,1980 1920.0,1980 C1860.0,1980 1860.0,2010.0 1800.0,2010.0 C1740.0,2010.0 1740.0,1980 1680,1980Z" stroke="#a76754" stroke-width="10.0" fill="none" mask="url(#bodymask)"/>
<path d="M1680,2040 C1740.0,2040 1740.0,2010.0 1800.0,2010.0 C1860.0,2010.0 1860.0,2040 1920.0,2040 C1860.0,2040 1860.0,2070.0 1800.0,2070.0 C1740.0,2070.0 1740.0,2040 1680,2040Z" stroke="#a76754" stroke-width="10.0" fill="none" mask="url(#bodymask)"/>
<path d="M1680,2100 C1740.0,2100 1740.0,2070.0 1800.0,2070.0 C1860.0,2070.0 1860.0,2100 1920.0,2100 C1860.0,2100 1860.0,2130.0 1800.0,2130.0 C1740.0,2130.0 1740.0,2100 1680,2100Z" stroke="#a76754" stroke-width="10.0" fill="none" mask="url(#bodymask)"/>
<path d="M1680,2160 C1740.0,2160 1740.0,2130.0 1800.0,2130.0 C1860.0,2130.0 1860.0,2160 1920.0,2160 C1860.0,2160 1860.0,2190.0 1800.0,2190.0 C1740.0,2190.0 1740.0,2160 1680,2160Z" stroke="#a76754" stroke-width="10.0" fill="none" mask="url(#bodymask)"/>
<path d="M1680,2220 C1740.0,2220 1740.0,2190.0 1800.0,2190.0 C1860.0,2190.0 1860.0,2220 1920.0,2220 C1860.0,2220 1860.0,2250.0 1800.0,2250.0 C1740.0,2250.0 1740.0,2220 1680,2220Z" stroke="#a76754" stroke-width="10.0" fill="none" mask="url(#bodymask)"/>
<path d="M1680,2280 C1740.0,2280 1740.0,2250.0 1800.0,2250.0 C1860.0,2250.0 1860.0,2280 1920.0,2280 C1860.0,2280 1860.0,2310.0 1800.0,2310.0 C1740.0,2310.0 1740.0,2280 1680,2280Z" stroke="#a76754" stroke-width="10.0" fill="none" mask="url(#bodymask)"/>
<path d="M1680,2340 C1740.0,2340 1740.0,2310.0 1800.0,2310.0 C1860.0,2310.0 1860.0,2340 1920.0,2340 C1860.0,2340 1860.0,2370.0 1800.0,2370.0 C1740.0,2370.0 1740.0,2340 1680,2340Z" stroke="#a76754" stroke-width="10.0" fill="none" mask="url(#bodymask)"/>
<path d="M1920,0 C1980.0,0 1980.0,-30.0 2040.0,-30.0 C2100.0,-30.0 2100.0,0 2160.0,0 C2100.0,0 2100.0,30.0 2040.0,30.0 C1980.0,30.0 1980.0,0 1920,0Z" stroke="#a76754" stroke-width="10.0" fill="none" mask="url(#bodymask)"/>
<path d="M1920,60 C1980.0,60 1980.0,30.0 2040.0,30.0 C2100.0,30.0 2100.0,60 2160.0,60 C2100.0,60 2100.0,90.0 2040.0,90.0 C1980.0,90.0 1980.0,60 1920,60Z" stroke="#a76754" stroke-width="10.0" fill="none" mask="url(#bodymask)"/>
<path d="M1920,120 C1980.0,120 1980.0,90.0 2040.0,90.0 C2100.0,90.0 2100.0,120 2160.0,120 C2100.0,120 2100.0,150.0 2040.0,150.0 C1980.0,150.0 1980.0,120 1920,120Z" stroke="#a76754" stroke-width="10.0" fill="none" mask="url(#bodymask)"/>
<path d="M1920,180 C1980.0,180 1980.0,150.0 2040.0,150.0 C2100.0,150.0 2100.0,180 2160.0,180 C2100.0,180 2100.0,210.0 2040.0,210.0 C1980.0,210.0 1980.0,180 1920,180Z" stroke="#a76754" stroke-width="10.0" fill="none" mask="url(#bodymask)"/>
<path d="M1920,240 C1980.0,240 1980.0,210.0 2040.0,210.0 C2100.0,210.0 2100.0,240 2160.0,240 C2100.0,240 2100.0,270.0 2040.0,270.0 C1980.0,270.0 1980.0,240 1920,240Z" stroke="#a76754" stroke-width="10.0" fill="none" mask="url(#bodymask)"/>
<path d="M1920,300 C1980.0,300 1980.0,270.0 2040.0,270.0 C2100.0,270.0 2100.0,300 2160.0,300 C2100.0,300 2100.0,330.0 2040.0,330.0 C1980.0,330.0 1980.0,300 1920,300Z" stroke="#a76754" stroke-width="10.0" fill="none" mask="url(#bodymask)"/>
<path d="M1920,360 C1980.0,360 1980.0,330.0 2040.0,330.0 C2100.0,330.0 2100.0,360 2160.0,360 C2100.0,360 2100.0,390.0 2040.0,390.0 C1980.0,390.0 1980.0,360 1920,360Z" stroke="#a76754" stroke-width="10.0" fill="none" mask="url(#bodymask)"/>
<path d="M1920,420 C1980.0,420 1980.0,390.0 2040.0,390.0 C2100.0,390.0 2100.0,420 2160.0,420 C2100.0,420 2100.0,450.0 2040.0,450.0 C1980.0,450.0 1980.0,420 1920,420Z" stroke="#a76754" stroke-width="10.0" fill="none" mask="url(#bodymask)"/>
<path d="M1920,480 C1980.0,480 1980.0,450.0 2040.0,450.0 C2100.0,450.0 2100.0,480 2160.0,480 C2100.0,480 2100.0,510.0 2040.0,510.0 C1980.0,510.0 1980.0,480 1920,480Z" stroke="#a76754" stroke-width="10.0" fill="none" mask="url(#bodymask)"/>
<path d="M1920,540 C1980.0,540 1980.0,510.0 2040.0,510.0 C2100.0,510.0 2100.0,540 2160.0,540 C2100.0,540 2100.0,570.0 2040.0,570.0 C1980.0,570.0 1980.0,540 1920,540Z" stroke="#a76754" stroke-width="10.0" fill="none" mask="url(#bodymask)"/>
<path d="M1920,600 C1980.0,600 1980.0,570.0 2040.0,570.0 C2100.0,570.0 2100.0,600 2160.0,600 C2100.0,600 2100.0,630.0 2040.0,630.0 C1980.0,630.0 1980.0,600 1920,600Z" stroke="#a76754" stroke-width="10.0" fill="none" mask="url(#bodymask)"/>
<path d="M1920,660 C1980.0,660 1980.0,630.0 2040.0,630.0 C2100.0,630.0 2100.0,660 2160.0,660 C2100.0,660 2100.0,690.0 2040.0,690.0 C1980.0,690.0 1980.0,660 1920,660Z" stroke="#a76754" stroke-width="10.0" fill="none" mask="url(#bodymask)"/>
<path d="M1920,720 C1980.0,720 1980.0,690.0 2040.0,690.0 C2100.0,690.0 2100.0,720 2160.0,720 C2100.0,720 2100.0,750.0 2040.0,750.0 C1980.0,750.0 1980.0,720 1920,720Z" stroke="#a76754" stroke-width="10.0" fill="none" mask="url(#bodymask)"/>
<path d="M1920,780 C1980.0,780 1980.0,750.0 2040.0,750.0 C2100.0,750.0 2100.0,780 2160.0,780 C2100.0,780 2100.0,810.0 2040.0,810.0 C1980.0,810.0 1980.0,780 1920,780Z" stroke="#a76754" stroke-width="10.0" fill="none" mask="url(#bodymask)"/>
<path d="M1920,840 C1980.0,840 1980.0,810.0 2040.0,810.0 C2100.0,810.0 2100.0,840 2160.0,840 C2100.0,840 2100.0,870.0 2040.0,870.0 C1980.0,870.0 1980.0,840 1920,840Z" stroke="#a76754" stroke-width="10.0" fill="none" mask="url(#bodymask)"/>
<path d="M1920,900 C1980.0,900 1980.0,870.0 2040.0,870.0 C2100.0,870.0 2100.0,900 2160.0,900 C2100.0,900 2100.0,930.0 2040.0,930.0 C1980.0,930.0 1980.0,900 1920,900Z" stroke="#a76754" stroke-width="10.0" fill="none" mask="url(#bodymask)"/>
<path d="M1920,960 C1980.0,960 1980.0,930.0 2040.0,930.0 C2100.0,930.0 2100.0,960 2160.0,960 C2100.0,960 2100.0,990.0 2040.0,990.0 C1980.0,990.0 1980.0,960 1920,960Z" stroke="#a76754" stroke-width="10.0" fill="none" mask="url(#bodymask)"/>
<path d="M1920,1020 C1980.0,1020 1980.0,990.0 2040.0,990.0 C2100.0,990.0 2100.0,1020 2160.0,1020 C2100.0,1020 2100.0,1050.0 2040.0,1050.0 C1980.0,1050.0 1980.0,1020 1920,1020Z" stroke="#a76754" stroke-width="10.0" fill="none" mask="url(#bodymask)"/>
<path d="M1920,1080 C1980.0,1080 1980.0,1050.0 2040.0,1050.0 C2100.0,1050.0 2100.0,1080 2160.0,1080 C2100.0,1080 2100.0,1110.0 2040.0,1110.0 C1980.0,1110.0 1980.0,1080 1920,1080Z" stroke="#a76754" stroke-width="10.0" fill="none" mask="url(#bodymask)"/>
<path d="M1920,1140 C1980.0,1140 1980.0,1110.0 2040.0,1110.0 C2100.0,1110.0 2100.0,1140 2160.0,1140 C2100.0,1140 2100.0,1170.0 2040.0,1170.0 C1980.0,1170.0 1980.0,1140 1920,1140Z" stroke="#a76754" stroke-width="10.0" fill="none" mask="url(#bodymask)"/>
<path d="M1920,1200 C1980.0,1200 1980.0,1170.0 2040.0,1170.0 C2100.0,1170.0 2100.0,1200 2160.0,1200 C2100.0,1200 2100.0,1230.0 2040.0,1230.0 C1980.0,1230.0 1980.0,1200 1920,1200Z" stroke="#a76754" stroke-width="10.0" fill="none" mask="url(#bodymask)"/>
<path d="M1920,1260 C1980.0,1260 1980.0,1230.0 2040.0,1230.0 C2100.0,1230.0 2100.0,1260 2160.0,1260 C2100.0,1260 2100.0,1290.0 2040.0,1290.0 C1980.0,1290.0 1980.0,1260 1920,1260Z" stroke="#a76754" stroke-width="10.0" fill="none" mask="url(#bodymask)"/>
<path d="M1920,1320 C1980.0,1320 1980.0,1290.0 2040.0,1290.0 C2100.0,1290.0 2100.0,1320 2160.0,1320 C2100.0,1320 2100.0,1350.0 2040.0,1350.0 C1980.0,1350.0 1980.0,1320 1920,1320Z" stroke="#a76754" stroke-width="10.0" fill="none" mask="url(#bodymask)"/>
<path d="M1920,1380 C1980.0,1380 1980.0,1350.0 2040.0,1350.0 C2100.0,1350.0 2100.0,1380 2160.0,1380 C2100.0,1380 2100.0,1410.0 2040.0,1410.0 C1980.0,1410.0 1980.0,1380 1920,1380Z" stroke="#a76754" stroke-width="10.0" fill="none" mask="url(#bodymask)"/>
<path d="M1920,1440 C1980.0,1440 1980.0,1410.0 2040.0,1410.0 C2100.0,1410.0 2100.0,1440 2160.0,1440 C2100.0,1440 2100.0,1470.0 2040.0,1470.0 C1980.0,1470.0 1980.0,1440 1920,1440Z" stroke="#a76754" stroke-width="10.0" fill="none" mask="url(#bodymask)"/>
<path d="M1920,1500 C1980.0,1500 1980.0,1470.0 2040.0,1470.0 C2100.0,1470.0 2100.0,1500 2160.0,1500 C2100.0,1500 2100.0,1530.0 2040.0,1530.0 C1980.0,1530.0 1980.0,1500 1920,1500Z" stroke="#a76754" stroke-width="10.0" fill="none" mask="url(#bodymask)"/>
<path d="M1920,1560 C1980.0,1560 1980.0,1530.0 2040.0,1530.0 C2100.0,1530.0 2100.0,1560 2160.0,1560 C2100.0,1560 2100.0,1590.0 2040.0,1590.0 C1980.0,1590.0 1980.0,1560 1920,1560Z" stroke="#a76754" stroke-width="10.0" fill="none" mask="url(#bodymask)"/>
<path d="M1920,1620 C1980.0,1620 1980.0,1590.0 2040.0,1590.0 C2100.0,1590.0 2100.0,1620 2160.0,1620 C2100.0,1620 2100.0,1650.0 2040.0,1650.0 C1980.0,1650.0 1980.0,1620 1920,1620Z" stroke="#a76754" stroke-width="10.0" fill="none" mask="url(#bodymask)"/>
<path d="M1920,1680 C1980.0,1680 1980.0,1650.0 2040.0,1650.0 C2100.0,1650.0 2100.0,1680 2160.0,1680 C2100.0,1680 2100.0,1710.0 2040.0,1710.0 C1980.0,1710.0 1980.0,1680 1920,1680Z" stroke="#a76754" stroke-width="10.0" fill="none" mask="url(#bodymask)"/>
<path d="M1920,1740 C1980.0,1740 1980.0,1710.0 2040.0,1710.0 C2100.0,1710.0 2100.0,1740 2160.0,1740 C2100.0,1740 2100.0,1770.0 2040.0,1770.0 C1980.0,1770.0 1980.0,1740 1920,1740Z" stroke="#a76754" stroke-width="10.0" fill="none" mask="url(#bodymask)"/>
<path d="M1920,1800 C1980.0,1800 1980.0,1770.0 2040.0,1770.0 C2100.0,1770.0 2100.0,1800 2160.0,1800 C2100.0,1800 2100.0,1830.0 2040.0,1830.0 C1980.0,1830.0 1980.0,1800 1920,1800Z" stroke="#a76754" stroke-width="10.0" fill="none" mask="url(#bodymask)"/>
<path d="M1920,1860 C1980.0,1860 1980.0,1830.0 2040.0,1830.0 C2100.0,1830.0 2100.0,1860 2160.0,1860 C2100.0,1860 2100.0,1890.0 2040.0,1890.0 C1980.0,1890.0 1980.0,1860 1920,1860Z" stroke="#a76754" stroke-width="10.0" fill="none" mask="url(#bodymask)"/>
<path d="M1920,1920 C1980.0,1920 1980.0,1890.0 2040.0,1890.0 C2100.0,1890.0 2100.0,1920 2160.0,1920 C2100.0,1920 2100.0,1950.0 2040.0,1950.0 C1980.0,1950.0 1980.0,1920 1920,1920Z" stroke="#a76754" stroke-width="10.0" fill="none" mask="url(#bodymask)"/>
<path d="M1920,1980 C1980.0,1980 1980.0,1950.0 2040.0,1950.0 C2100.0,1950.0 2100.0,1980 2160.0,1980 C2100.0,1980 2100.0,2010.0 2040.0,2010.0 C1980.0,2010.0 1980.0,1980 1920,1980Z" stroke="#a76754" stroke-width="10.0" fill="none" mask="url(#bodymask)"/>
<path d="M1920,2040 C1980.0,2040 1980.0,2010.0 2040.0,2010.0 C2100.0,2010.0 2100.0,2040 2160.0,2040 C2100.0,2040 2100.0,2070.0 2040.0,2070.0 C1980.0,2070.0 1980.0,2040 1920,2040Z" stroke="#a76754" stroke-width="10.0" fill="none" mask="url(#bodymask)"/>
<path d="M1920,2100 C1980.0,2100 1980.0,2070.0 2040.0,2070.0 C2100.0,2070.0 2100.0,2100 2160.0,2100 C2100.0,2100 2100.0,2130.0 2040.0,2130.0 C1980.0,2130.0 1980.0,2100 1920,2100Z" stroke="#a76754" stroke-width="10.0" fill="none" mask="url(#bodymask)"/>
<path d="M1920,2160 C1980.0,2160 1980.0,2130.0 2040.0,2130.0 C2100.0,2130.0 2100.0,2160 2160.0,2160 C2100.0,2160 2100.0,2190.0 2040.0,2190.0 C1980.0,2190.0 1980.0,2160 1920,2160Z" stroke="#a76754" stroke-width="10.0" fill="none" mask="url(#bodymask)"/>
<path d="M1920,2220 C1980.0,2220 1980.0,2190.0 2040.0,2190.0 C2100.0,2190.0 2100.0,2220 2160.0,2220 C2100.0,2220 2100.0,2250.0 2040.0,2250.0 C1980.0,2250.0 1980.0,2220 1920,2220Z" stroke="#a76754" stroke-width="10.0" fill="none" mask="url(#bodymask)"/>
<path d="M1920,2280 C1980.0,2280 1980.0,2250.0 2040.0,2250.0 C2100.0,2250.0 2100.0,2280 2160.0,2280 C2100.0,2280 2100.0,2310.0 2040.0,2310.0 C1980.0,2310.0 1980.0,2280 1920,2280Z" stroke="#a76754" stroke-width="10.0" fill="none" mask="url(#bodymask)"/>
<path d="M1920,2340 C1980.0,2340 1980.0,2310.0 2040.0,2310.0 C2100.0,2310.0 2100.0,2340 2160.0,2340 C2100.0,2340 2100.0,2370.0 2040.0,2370.0 C1980.0,2370.0 1980.0,2340 1920,2340Z" stroke="#a76754" stroke-width="10.0" fill="none" mask="url(#bodymask)"/>
<path d="M2160,0 C2220.0,0 2220.0,-30.0 2280.0,-30.0 C2340.0,-30.0 2340.0,0 2400.0,0 C2340.0,0 2340.0,30.0 2280.0,30.0 C2220.0,30.0 2220.0,0 2160,0Z" stroke="#a76754" stroke-width="10.0" fill="none" mask="url(#bodymask)"/>
<path d="M2160,60 C2220.0,60 2220.0,30.0 2280.0,30.0 C2340.0,30.0 2340.0,60 2400.0,60 C2340.0,60 2340.0,90.0 2280.0,90.0 C2220.0,90.0 2220.0,60 2160,60Z" stroke="#a76754" stroke-width="10.0" fill="none" mask="url(#bodymask)"/>
<path d="M2160,120 C2220.0,120 2220.0,90.0 2280.0,90.0 C2340.0,90.0 2340.0,120 2400.0,120 C2340.0,120 2340.0,150.0 2280.0,150.0 C2220.0,150.0 2220.0,120 2160,120Z" stroke="#a76754" stroke-width="10.0" fill="none" mask="url(#bodymask)"/>
<path d="M2160,180 C2220.0,180 2220.0,150.0 2280.0,150.0 C2340.0,150.0 2340.0,180 2400.0,180 C2340.0,180 2340.0,210.0 2280.0,210.0 C2220.0,210.0 2220.0,180 2160,180Z" stroke="#a76754" stroke-width="10.0" fill="none" mask="url(#bodymask)"/>
<path d="M2160,240 C2220.0,240 2220.0,210.0 2280.0,210.0 C2340.0,210.0 2340.0,240 2400.0,240 C2340.0,240 2340.0,270.0 2280.0,270.0 C2220.0,270.0 2220.0,240 2160,240Z" stroke="#a76754" stroke-width="10.0" fill="none" mask="url(#bodymask)"/>
<path d="M2160,300 C2220.0,300 2220.0,270.0 2280.0,270.0 C2340.0,270.0 2340.0,300 2400.0,300 C2340.0,300 2340.0,330.0 2280.0,330.0 C2220.0,330.0 2220.0,300 2160,300Z" stroke="#a76754" stroke-width="10.0" fill="none" mask="url(#bodymask)"/>
<path d="M2160,360 C2220.0,360 2220.0,330.0 2280.0,330.0 C2340.0,330.0 2340.0,360 2400.0,360 C2340.0,360 2340.0,390.0 2280.0,390.0 C2220.0,390.0 2220.0,360 2160,360Z" stroke="#a76754" stroke-width="10.0" fill="none" mask="url(#bodymask)"/>
<path d="M2160,420 C2220.0,420 2220.0,390.0 2280.0,390.0 C2340.0,390.0 2340.0,420 2400.0,420 C2340.0,420 2340.0,450.0 2280.0,450.0 C2220.0,450.0 2220.0,420 2160,420Z" stroke="#a76754" stroke-width="10.0" fill="none" mask="url(#bodymask)"/>
<path d="M2160,480 C2220.0,480 2220.0,450.0 2280.0,450.0 C2340.0,450.0 2340.0,480 2400.0,480 C2340.0,480 2340.0,510.0 2280.0,510.0 C2220.0,510.0 2220.0,480 2160,480Z" stroke="#a76754" stroke-width="10.0" fill="none" mask="url(#bodymask)"/>
<path d="M2160,540 C2220.0,540 2220.0,510.0 2280.0,510.0 C2340.0,510.0 2340.0,540 2400.0,540 C2340.0,540 2340.0,570.0 2280.0,570.0 C2220.0,570.0 2220.0,540 2160,540Z" stroke="#a76754" stroke-width="10.0" fill="none" mask="url(#bodymask)"/>
<path d="M2160,600 C2220.0,600 2220.0,570.0 2280.0,570.0 C2340.0,570.0 2340.0,600 2400.0,600 C2340.0,600 2340.0,630.0 2280.0,630.0 C2220.0,630.0 2220.0,600 2160,600Z" stroke="#a76754" stroke-width="10.0" fill="none" mask="url(#bodymask)"/>
<path d="M2160,660 C2220.0,660 2220.0,630.0 2280.0,630.0 C2340.0,630.0 2340.0,660 2400.0,660 C2340.0,660 2340.0,690.0 2280.0,690.0 C2220.0,690.0 2220.0,660 2160,660Z" stroke="#a76754" stroke-width="10.0" fill="none" mask="url(#bodymask)"/>
<path d="M2160,720 C2220.0,720 2220.0,690.0 2280.0,690.0 C2340.0,690.0 2340.0,720 2400.0,720 C2340.0,720 2340.0,750.0 2280.0,750.0 C2220.0,750.0 2220.0,720 2160,720Z" stroke="#a76754" stroke-width="10.0" fill="none" mask="url(#bodymask)"/>
<path d="M2160,780 C2220.0,780 2220.0,750.0 2280.0,750.0 C2340.0,750.0 2340.0,780 2400.0,780 C2340.0,780 2340.0,810.0 2280.0,810.0 C2220.0,810.0 2220.0,780 2160,780Z" stroke="#a76754" stroke-width="10.0" fill="none" mask="url(#bodymask)"/>
<path d="M2160,840 C2220.0,840 2220.0,810.0 2280.0,810.0 C2340.0,810.0 2340.0,840 2400.0,840 C2340.0,840 2340.0,870.0 2280.0,870.0 C2220.0,870.0 2220.0,840 2160,840Z" stroke="#a76754" stroke-width="10.0" fill="none" mask="url(#bodymask)"/>
<path d="M2160,900 C2220.0,900 2220.0,870.0 2280.0,870.0 C2340.0,870.0 2340.0,900 2400.0,900 C2340.0,900 2340.0,930.0 2280.0,930.0 C2220.0,930.0 2220.0,900 2160,900Z" stroke="#a76754" stroke-width="10.0" fill="none" mask="url(#bodymask)"/>
<path d="M2160,960 C2220.0,960 2220.0,930.0 2280.0,930.0 C2340.0,930.0 2340.0,960 2400.0,960 C2340.0,960 2340.0,990.0 2280.0,990.0 C2220.0,990.0 2220.0,960 2160,960Z" stroke="#a76754" stroke-width="10.0" fill="none" mask="url(#bodymask)"/>
<path d="M2160,1020 C2220.0,1020 2220.0,990.0 2280.0,990.0 C2340.0,990.0 2340.0,1020 2400.0,1020 C2340.0,1020 2340.0,1050.0 2280.0,1050.0 C2220.0,1050.0 2220.0,1020 2160,1020Z" stroke="#a76754" stroke-width="10.0" fill="none" mask="url(#bodymask)"/>
<path d="M2160,1080 C2220.0,1080 2220.0,1050.0 2280.0,1050.0 C2340.0,1050.0 2340.0,1080 2400.0,1080 C2340.0,1080 2340.0,1110.0 2280.0,1110.0 C2220.0,1110.0 2220.0,1080 2160,1080Z" stroke="#a76754" stroke-width="10.0" fill="none" mask="url(#bodymask)"/>
<path d="M2160,1140 C2220.0,1140 2220.0,1110.0 2280.0,1110.0 C2340.0,1110.0 2340.0,1140 2400.0,1140 C2340.0,1140 2340.0,1170.0 2280.0,1170.0 C2220.0,1170.0 2220.0,1140 2160,1140Z" stroke="#a76754" stroke-width="10.0" fill="none" mask="url(#bodymask)"/>
<path d="M2160,1200 C2220.0,1200 2220.0,1170.0 2280.0,1170.0 C2340.0,1170.0 2340.0,1200 2400.0,1200 C2340.0,1200 2340.0,1230.0 2280.0,1230.0 C2220.0,1230.0 2220.0,1200 2160,1200Z" stroke="#a76754" stroke-width="10.0" fill="none" mask="url(#bodymask)"/>
<path d="M2160,1260 C2220.0,1260 2220.0,1230.0 2280.0,1230.0 C2340.0,1230.0 2340.0,1260 2400.0,1260 C2340.0,1260 2340.0,1290.0 2280.0,1290.0 C2220.0,1290.0 2220.0,1260 2160,1260Z" stroke="#a76754" stroke-width="10.0" fill="none" mask="url(#bodymask)"/>
<path d="M2160,1320 C2220.0,1320 2220.0,1290.0 2280.0,1290.0 C2340.0,1290.0 2340.0,1320 2400.0,1320 C2340.0,1320 2340.0,1350.0 2280.0,1350.0 C2220.0,1350.0 2220.0,1320 2160,1320Z" stroke="#a76754" stroke-width="10.0" fill="none" mask="url(#bodymask)"/>
<path d="M2160,1380 C2220.0,1380 2220.0,1350.0 2280.0,1350.0 C2340.0,1350.0 2340.0,1380 2400.0,1380 C2340.0,1380 2340.0,1410.0 2280.0,1410.0 C2220.0,1410.0 2220.0,1380 2160,1380Z" stroke="#a76754" stroke-width="10.0" fill="none" mask="url(#bodymask)"/>
<path d="M2160,1440 C2220.0,1440 2220.0,1410.0 2280.0,1410.0 C2340.0,1410.0 2340.0,1440 2400.0,1440 C2340.0,1440 2340.0,1470.0 2280.0,1470.0 C2220.0,1470.0 2220.0,1440 2160,1440Z" stroke="#a76754" stroke-width="10.0" fill="none" mask="url(#bodymask)"/>
<path d="M2160,1500 C2220.0,1500 2220.0,1470.0 2280.0,1470.0 C2340.0,1470.0 2340.0,1500 2400.0,1500 C2340.0,1500 2340.0,1530.0 2280.0,1530.0 C2220.0,1530.0 2220.0,1500 2160,1500Z" stroke="#a76754" stroke-width="10.0" fill="none" mask="url(#bodymask)"/>
<path d="M2160,1560 C2220.0,1560 2220.0,1530.0 2280.0,1530.0 C2340.0,1530.0 2340.0,1560 2400.0,1560 C2340.0,1560 2340.0,1590.0 2280.0,1590.0 C2220.0,1590.0 2220.0,1560 2160,1560Z" stroke="#a76754" stroke-width="10.0" fill="none" mask="url(#bodymask)"/>
<path d="M2160,1620 C2220.0,1620 2220.0,1590.0 2280.0,1590.0 C2340.0,1590.0 2340.0,1620 2400.0,1620 C2340.0,1620 2340.0,1650.0 2280.0,1650.0 C2220.0,1650.0 2220.0,1620 2160,1620Z" stroke="#a76754" stroke-width="10.0" fill="none" mask="url(#bodymask)"/>
<path d="M2160,1680 C2220.0,1680 2220.0,1650.0 2280.0,1650.0 C2340.0,1650.0 2340.0,1680 2400.0,1680 C2340.0,1680 2340.0,1710.0 2280.0,1710.0 C2220.0,1710.0 2220.0,1680 2160,1680Z" stroke="#a76754" stroke-width="10.0" fill="none" mask="url(#bodymask)"/>
<path d="M2160,1740 C2220.0,1740 2220.0,1710.0 2280.0,1710.0 C2340.0,1710.0 2340.0,1740 2400.0,1740 C2340.0,1740 2340.0,1770.0 2280.0,1770.0 C2220.0,1770.0 2220.0,1740 2160,1740Z" stroke="#a76754" stroke-width="10.0" fill="none" mask="url(#bodymask)"/>
<path d="M2160,1800 C2220.0,1800 2220.0,1770.0 2280.0,1770.0 C2340.0,1770.0 2340.0,1800 2400.0,1800 C2340.0,1800 2340.0,1830.0 2280.0,1830.0 C2220.0,1830.0 2220.0,1800 2160,1800Z" stroke="#a76754" stroke-width="10.0" fill="none" mask="url(#bodymask)"/>
<path d="M2160,1860 C2220.0,1860 2220.0,1830.0 2280.0,1830.0 C2340.0,1830.0 2340.0,1860 2400.0,1860 C2340.0,1860 2340.0,1890.0 2280.0,1890.0 C2220.0,1890.0 2220.0,1860 2160,1860Z" stroke="#a76754" stroke-width="10.0" fill="none" mask="url(#bodymask)"/>
<path d="M2160,1920 C2220.0,1920 2220.0,1890.0 2280.0,1890.0 C2340.0,1890.0 2340.0,1920 2400.0,1920 C2340.0,1920 2340.0,1950.0 2280.0,1950.0 C2220.0,1950.0 2220.0,1920 2160,1920Z" stroke="#a76754" stroke-width="10.0" fill="none" mask="url(#bodymask)"/>
<path d="M2160,1980 C2220.0,1980 2220.0,1950.0 2280.0,1950.0 C2340.0,1950.0 2340.0,1980 2400.0,1980 C2340.0,1980 2340.0,2010.0 2280.0,2010.0 C2220.0,2010.0 2220.0,1980 2160,1980Z" stroke="#a76754" stroke-width="10.0" fill="none" mask="url(#bodymask)"/>
<path d="M2160,2040 C2220.0,2040 2220.0,2010.0 2280.0,2010.0 C2340.0,2010.0 2340.0,2040 2400.0,2040 C2340.0,2040 2340.0,2070.0 2280.0,2070.0 C2220.0,2070.0 2220.0,2040 2160,2040Z" stroke="#a76754" stroke-width="10.0" fill="none" mask="url(#bodymask)"/>
<path d="M2160,2100 C2220.0,2100 2220.0,2070.0 2280.0,2070.0 C2340.0,2070.0 2340.0,2100 2400.0,2100 C2340.0,2100 2340.0,2130.0 2280.0,2130.0 C2220.0,2130.0 2220.0,2100 2160,2100Z" stroke="#a76754" stroke-width="10.0" fill="none" mask="url(#bodymask)"/>
<path d="M2160,2160 C2220.0,2160 2220.0,2130.0 2280.0,2130.0 C2340.0,2130.0 2340.0,2160 2400.0,2160 C2340.0,2160 2340.0,2190.0 2280.0,2190.0 C2220.0,2190.0 2220.0,2160 2160,2160Z" stroke="#a76754" stroke-width="10.0" fill="none" mask="url(#bodymask)"/>
<path d="M2160,2220 C2220.0,2220 2220.0,2190.0 2280.0,2190.0 C2340.0,2190.0 2340.0,2220 2400.0,2220 C2340.0,2220 2340.0,2250.0 2280.0,2250.0 C2220.0,2250.0 2220.0,2220 2160,2220Z" stroke="#a76754" stroke-width="10.0" fill="none" mask="url(#bodymask)"/>
<path d="M2160,2280 C2220.0,2280 2220.0,2250.0 2280.0,2250.0 C2340.0,2250.0 2340.0,2280 2400.0,2280 C2340.0,2280 2340.0,2310.0 2280.0,2310.0 C2220.0,2310.0 2220.0,2280 2160,2280Z" stroke="#a76754" stroke-width="10.0" fill="none" mask="url(#bodymask)"/>
<path d="M2160,2340 C2220.0,2340 2220.0,2310.0 2280.0,2310.0 C2340.0,2310.0 2340.0,2340 2400.0,2340 C2340.0,2340 2340.0,2370.0 2280.0,2370.0 C2220.0,2370.0 2220.0,2340 2160,2340Z" stroke="#a76754" stroke-width="10.0" fill="none" mask="url(#bodymask)"/>
<path d="M 1353 830 L 1377 1023 L 1570 1047 L 1450 1200 L 1570 1353 L 1377 1377 L 1353 1570 L 1200 1450 L 1047 1570 L 1023 1377 L 830 1353 L 950 1200 L 830 1047 L 1023 1023 L 1047 830 L 1200 950 Z" fill="#ddddcc"/>
</svg>