<svg height="2400" width="2400">
<rect x="0" y="0" width="2400" height="2400" rx="0" fill="#ddddcc"/>
<rect x="150" y="150" width="2100" height="2100" rx="150" fill="#994936"/>
<path d="M 677 1015 L 688 1112 L 785 1123 L 725 1200 L 785 1277 L 688 1288 L 677 1385 L 600 1325 L 523 1385 L 512 1288 L 415 1277 L 475 1200 L 415 1123 L 512 1112 L 523 1015 L 600 1075 Z" fill="#ddddcc"/>
<path d="M 1877 1015 L 1888 1112 L 1985 1123 L 1925 1200 L 1985 1277 L 1888 1288 L 1877 1385 L 1800 1325 L 1723 1385 L 1712 1288 L 1615 1277 L 1675 1200 L 1615 1123 L 1712 1112 L 1723 1015 L 1800 1075 Z" fill="#ddddcc"/>
</svg>