<svg height="2400" width="2400">
<rect x="0" y="0" width="2400" height="2400" rx="0" fill="#ddddcc"/>
<rect x="150" y="150" width="2100" height="2100" rx="150" fill="#994936"/>

                        <mask id="bodymask">
                            <rect x="0" y="0" width="2400" height="2400" rx="0" fill="black"/>
                            <rect x="150" y="150" width="2100" height="2100" rx="150" fill="white"/>
                        </mask>
                    
<path d="M0,0 C60.0,0 60.0,-30 120,-30 C180.0,-30 180.0,0 240,0 C180.0,0 180.0,30 120,30 C60.0,30 60.0,0 0,0Z" stroke="#a76754" stroke-width="10" fill="none" mask="url(#bodymask)"/>
<path d="M0,60 C60.0,60 60.0,30 120,30 C180.0,30 180.0,60 240,60 C180.0,60 180.0,90 120,90 C60.0,90 60.0,60 0,60Z" stroke="#a76754" stroke-width="10" fill="none" mask="url(#bodymask)"/>
<path d="M0,120 C60.0,120 60.0,90 120,90 C180.0,90 180.0,120 240,120 C180.0,120 180.0,150 120,150 C60.0,150 60.0,120 0,120Z" stroke="#a76754" stroke-width="10" fill="none" mask="url(#bodymask)"/>
<path d="M0,180 C60.0,180 60.0,150 120,150 C180.0,150 180.0,180 240,180 C180.0,180 180.0,210 120,210 C60.0,210 60.0,180 0,180Z" stroke="#a76754" stroke-width="10" fill="none" mask="url(#bodymask)"/>
<path d="M0,240 C60.0,240 60.0,210 120,210 C180.0,210 180.0,240 240,240 C180.0,240 180.0,270 120,270 C60.0,270 60.0,240 0,240Z" stroke="#a76754" stroke-width="10" fill="none" mask="url(#bodymask)"/>
<path d="M0,300 C60.0,300 60.0,270 120,270 C180.0,270 180.0,300 240,300 C180.0,300 180.0,330 120,330 C60.0,330 60.0,300 0,300Z" stroke="#a76754" stroke-width="10" fill="none" mask="url(#bodymask)"/>
<path d="M0,360 C60.0,360 60.0,330 120,330 C180.0,330 180.0,360 240,360 C180.0,360 180.0,390 120,390 C60.0,390 60.0,360 0,360Z" stroke="#a76754" stroke-width="10" fill="none" mask="url(#bodymask)"/>
<path d="M0,420 C60.0,420 60.0,390 120,390 C180.0,390 180.0,420 240,420 C180.0,420 180.0,450 120,450 C60.0,450 60.0,420 0,420Z" stroke="#a76754" stroke-width="10" fill="none" mask="url(#bodymask)"/>
<path d="M0,480 C60.0,480 60.0,450 120,450 C180.0,450 180.0,480 240,480 C180.0,480 180.0,510 120,510 C60.0,510 60.0,480 0,480Z" stroke="#a76754" stroke-width="10" fill="none" mask="url(#bodymask)"/>
<path d="M0,540 C60.0,540 60.0,510 120,510 C180.0,510 180.0,540 240,540 C180.0,540 180.0,570 120,570 C60.0,570 60.0,540 0,540Z" stroke="#a76754" stroke-width="10" fill="none" mask="url(#bodymask)"/>
<path d="M0,600 C60.0,600 60.0,570 120,570 C180.0,570 180.0,600 240,600 C180.0,600 180.0,630 120,630 C60.0,630 60.0,600 0,600Z" stroke="#a76754" stroke-width="10" fill="none" mask="url(#bodymask)"/>
<path d="M0,660 C60.0,660 60.0,630 120,630 C180.0,630 180.0,660 240,660 C180.0,660 180.0,690 120,690 C60.0,690 60.0,660 0,660Z" stroke="#a76754" stroke-width="10" fill="none" mask="url(#bodymask)"/>
<path d="M0,720 C60.0,720 60.0,690 120,690 C180.0,690 180.0,720 240,720 C180.0,720 180.0,750 120,750 C60.0,750 60.0,720 0,720Z" stroke="#a76754" stroke-width="10" fill="none" mask="url(#bodymask)"/>
<path d="M0,780 C60.0,780 60.0,750 120,750 C180.0,750 180.0,780 240,780 C180.0,780 180.0,810 120,810 C60.0,810 60.0,780 0,780Z" stroke="#a76754" stroke-width="10" fill="none" mask="url(#bodymask)"/>
<path d="M0,840 C60.0,840 60.0,810 120,810 C180.0,810 180.0,840 240,840 C180.0,840 180.0,870 120,870 C60.0,870 60.0,840 0,840Z" stroke="#a76754" stroke-width="10" fill="none" mask="url(#bodymask)"/>
<path d="M0,900 C60.0,900 60.0,870 120,870 C180.0,870 180.0,900 240,900 C180.0,900 180.0,930 120,930 C60.0,930 60.0,900 0,900Z" stroke="#a76754" stroke-width="10" fill="none" mask="url(#bodymask)"/>
<path d="M0,960 C60.0,960 60.0,930 120,930 C180.0,930 180.0,960 240,960 C180.0,960 180.0,990 120,990 C60.0,990 60.0,960 0,960Z" stroke="#a76754" stroke-width="10" fill="none" mask="url(#bodymask)"/>
<path d="M0,1020 C60.0,1020 60.0,990 120,990 C180.0,990 180.0,1020 240,1020 C180.0,1020 180.0,1050 120,1050 C60.0,1050 60.0,1020 0,1020Z" stroke="#a76754" stroke-width="10" fill="none" mask="url(#bodymask)"/>
<path d="M0,1080 C60.0,1080 60.0,1050 120,1050 C180.0,1050 180.0,1080 240,1080 C180.0,1080 180.0,1110 120,1110 C60.0,1110 60.0,1080 0,1080Z" stroke="#a76754" stroke-width="10" fill="none" mask="url(#bodymask)"/>
<path d="M0,1140 C60.0,1140 60.0,1110 120,1110 C180.0,1110 180.0,1140 240,1140 C180.0,1140 180.0,1170 120,1170 C60.0,1170 60.0,1140 0,1140Z" stroke="#a76754" stroke-width="10" fill="none" mask="url(#bodymask)"/>
<path d="M0,1200 C60.0,1200 60.0,1170 120,1170 C180.0,1170 180.0,1200 240,1200 C180.0,1200 180.0,1230 120,1230 C60.0,1230 60.0,1200 0,1200Z" stroke="#a76754" stroke-width="10" fill="none" mask="url(#bodymask)"/>
<path d="M0,1260 C60.0,1260 60.0,1230 120,1230 C180.0,1230 180.0,1260 240,1260 C180.0,1260 180.0,1290 120,1290 C60.0,1290 60.0,1260 0,1260Z" stroke="#a76754" stroke-width="10" fill="none" mask="url(#bodymask)"/>
<path d="M0,1320 C60.0,1320 60.0,1290 120,1290 C180.0,1290 180.0,1320 240,1320 C180.0,1320 180.0,1350 120,1350 C60.0,1350 60.0,1320 0,1320Z" stroke="#a76754" stroke-width="10" fill="none" mask="url(#bodymask)"/>
<path d="M0,1380 C60.0,1380 60.0,1350 120,1350 C180.0,1350 180.0,1380 240,1380 C180.0,1380 180.0,1410 120,1410 C60.0,1410 60.0,1380 0,1380Z" stroke="#a76754" stroke-width="10" fill="none" mask="url(#bodymask)"/>
<path d="M0,1440 C60.0,1440 60.0,1410 120,1410 C180.0,1410 180.0,1440 240,1440 C180.0,1440 180.0,1470 120,1470 C60.0,1470 60.0,1440 0,1440Z" stroke="#a76754" stroke-width="10" fill="none" mask="url(#bodymask)"/>
<path d="M0,1500 C60.0,1500 60.0,1470 120,1470 C180.0,1470 180.0,1500 240,1500 C180.0,1500 180.0,1530 120,1530 C60.0,1530 60.0,1500 0,1500Z" stroke="#a76754" stroke-width="10" fill="none" mask="url(#bodymask)"/>
<path d="M0,1560 C60.0,1560 60.0,1530 120,1530 C180.0,1530 180.0,1560 240,1560 C180.0,1560 180.0,1590 120,1590 C60.0,1590 60.0,1560 0,1560Z" stroke="#a76754" stroke-width="10" fill="none" mask="url(#bodymask)"/>
<path d="M0,1620 C60.0,1620 60.0,1590 120,1590 C180.0,1590 180.0,1620 240,1620 C180.0,1620 180.0,1650 120,1650 C60.0,1650 60.0,1620 0,1620Z" stroke="#a76754" stroke-width="10" fill="none" mask="url(#bodymask)"/>
<path d="M0,1680 C60.0,1680 60.0,1650 120,1650 C180.0,1650 180.0,1680 240,1680 C180.0,1680 180.0,1710 120,1710 C60.0,1710 60.0,1680 0,1680Z" stroke="#a76754" stroke-width="10" fill="none" mask="url(#bodymask)"/>
<path d="M0,1740 C60.0,1740 60.0,1710 120,1710 C180.0,1710 180.0,1740 240,1740 C180.0,1740 180.0,1770 120,1770 C60.0,1770 60.0,1740 0,1740Z" stroke="#a76754" stroke-width="10" fill="none" mask="url(#bodymask)"/>
<path d="M0,1800 C60.0,1800 60.0,1770 120,1770 C180.0,1770 180.0,1800 240,1800 C180.0,1800 180.0,1830 120,1830 C60.0,1830 60.0,1800 0,1800Z" stroke="#a76754" stroke-width="10" fill="none" mask="url(#bodymask)"/>
<path d="M0,1860 C60.0,1860 60.0,1830 120,1830 C180.0,1830 180.0,1860 240,1860 C180.0,1860 180.0,1890 120,1890 C60.0,1890 60.0,1860 0,1860Z" stroke="#a76754" stroke-width="10" fill="none" mask="url(#bodymask)"/>
<path d="M0,1920 C60.0,1920 60.0,1890 120,1890 C180.0,1890 180.0,1920 240,1920 C180.0,1920 180.0,1950 120,1950 C60.0,1950 60.0,1920 0,1920Z" stroke="#a76754" stroke-width="10" fill="none" mask="url(#bodymask)"/>
<path d="M0,1980 C60.0,1980 60.0,1950 120,1950 C180.0,1950 180.0,1980 240,1980 C180.0,1980 180.0,2010 120,2010 C60.0,2010 60.0,1980 0,1980Z" stroke="#a76754" stroke-width="10" fill="none" mask="url(#bodymask)"/>
<path d="M0,2040 C60.0,2040 60.0,2010 120,2010 C180.0,2010 180.0,2040 240,2040 C180.0,2040 180.0,2070 120,2070 C60.0,2070 60.0,2040 0,2040Z" stroke="#a76754" stroke-width="10" fill="none" mask="url(#bodymask)"/>
<path d="M0,2100 C60.0,2100 60.0,2070 120,2070 C180.0,2070 180.0,2100 240,2100 C180.0,2100 180.0,2130 120,2130 C60.0,2130 60.0,2100 0,2100Z" stroke="#a76754" stroke-width="10" fill="none" mask="url(#bodymask)"/>
<path d="M0,2160 C60.0,2160 60.0,2130 120,2130 C180.0,2130 180.0,2160 240,2160 C180.0,2160 180.0,2190 120,2190 C60.0,2190 60.0,2160 0,2160Z" stroke="#a76754" stroke-width="10" fill="none" mask="url(#bodymask)"/>
<path d="M0,2220 C60.0,2220 60.0,2190 120,2190 C180.0,2190 180.0,2220 240,2220 C180.0,2220 180.0,2250 120,2250 C60.0,2250 60.0,2220 0,2220Z" stroke="#a76754" stroke-width="10" fill="none" mask="url(#bodymask)"/>
<path d="M0,2280 C60.0,2280 60.0,2250 120,2250 C180.0,2250 180.0,2280 240,2280 C180.0,2280 180.0,2310 120,2310 C60.0,2310 60.0,2280 0,2280Z" stroke="#a76754" stroke-width="10" fill="none" mask="url(#bodymask)"/>
<path d="M0,2340 C60.0,2340 60.0,2310 120,2310 C180.0,2310 180.0,2340 240,2340 C180.0,2340 180.0,2370 120,2370 C60.0,2370 60.0,2340 0,2340Z" stroke="#a76754" stroke-width="10" fill="none" mask="url(#bodymask)"/>
<path d="M240,0 C300.0,0 300.0,-30 360,-30 C420.0,-30 420.0,0 480,0 C420.0,0 420.0,30 360,30 C300.0,30 300.0,0 240,0Z" stroke="#a76754" stroke-width="10" fill="none" mask="url(#bodymask)"/>
<path d="M240,60 C300.0,60 300.0,30 360,30 C420.0,30 420.0,60 480,60 C420.0,60 420.0,90 360,90 C300.0,90 300.0,60 240,60Z" stroke="#a76754" stroke-width="10" fill="none" mask="url(#bodymask)"/>
<path d="M240,120 C300.0,120 300.0,90 360,90 C420.0,90 420.0,120 480,120 C420.0,120 420.0,150 360,150 C300.0,150 300.0,120 240,120Z" stroke="#a76754" stroke-width="10" fill="none" mask="url(#bodymask)"/>
<path d="M240,180 C300.0,180 300.0,150 360,150 C420.0,150 420.0,180 480,180 C420.0,180 420.0,210 360,210 C300.0,210 300.0,180 240,180Z" stroke="#a76754" stroke-width="10" fill="none" mask="url(#bodymask)"/>
<path d="M240,240 C300.0,240 300.0,210 360,210 C420.0,210 420.0,240 480,240 C420.0,240 420.0,270 360,270 C300.0,270 300.0,240 240,240Z" stroke="#a76754" stroke-width="10" fill="none" mask="url(#bodymask)"/>
<path d="M240,300 C300.0,300 300.0,270 360,270 C420.0,270 420.0,300 480,300 C420.0,300 420.0,330 360,330 C300.0,330 300.0,300 240,300Z" stroke="#a76754" stroke-width="10" fill="none" mask="url(#bodymask)"/>
<path d="M240,360 C300.0,360 300.0,330 360,330 C420.0,330 420.0,360 480,360 C420.0,360 420.0,390 360,390 C300.0,390 300.0,360 240,360Z" stroke="#a76754" stroke-width="10" fill="none" mask="url(#bodymask)"/>
<path d="M240,420 C300.0,420 300.0,390 360,390 C420.0,390 420.0,420 480,420 C420.0,420 420.0,450 360,450 C300.0,450 300.0,420 240,420Z" stroke="#a76754" stroke-width="10" fill="none" mask="url(#bodymask)"/>
<path d="M240,480 C300.0,480 300.0,450 360,450 C420.0,450 420.0,480 480,480 C420.0,480 420.0,510 360,510 C300.0,510 300.0,480 240,480Z" stroke="#a76754" stroke-width="10" fill="none" mask="url(#bodymask)"/>
<path d="M240,540 C300.0,540 300.0,510 360,510 C420.0,510 420.0,540 480,540 C420.0,540 420.0,570 360,570 C300.0,570 300.0,540 240,540Z" stroke="#a76754" stroke-width="10" fill="none" mask="url(#bodymask)"/>
<path d="M240,600 C300.0,600 300.0,570 360,570 C420.0,570 420.0,600 480,600 C420.0,600 420.0,630 360,630 C300.0,630 300.0,600 240,600Z" stroke="#a76754" stroke-width="10" fill="none" mask="url(#bodymask)"/>
<path d="M240,660 C300.0,660 300.0,630 360,630 C420.0,630 420.0,660 480,660 C420.0,660 420.0,690 360,690 C300.0,690 300.0,660 240,660Z" stroke="#a76754" stroke-width="10" fill="none" mask="url(#bodymask)"/>
<path d="M240,720 C300.0,720 300.0,690 360,690 C420.0,690 420.0,720 480,720 C420.0,720 420.0,750 360,750 C300.0,750 300.0,720 240,720Z" stroke="#a76754" stroke-width="10" fill="none" mask="url(#bodymask)"/>
<path d="M240,780 C300.0,780 300.0,750 360,750 C420.0,750 420.0,780 480,780 C420.0,780 420.0,810 360,810 C300.0,810 300.0,780 240,780Z" stroke="#a76754" stroke-width="10" fill="none" mask="url(#bodymask)"/>
<path d="M240,840 C300.0,840 300.0,810 360,810 C420.0,810 420.0,840 480,840 C420.0,840 420.0,870 360,870 C300.0,870 300.0,840 240,840Z" stroke="#a76754" stroke-width="10" fill="none" mask="url(#bodymask)"/>
<path d="M240,900 C300.0,900 300.0,870 360,870 C420.0,870 420.0,900 480,900 C420.0,900 420.0,930 360,930 C300.0,930 300.0,900 240,900Z" stroke="#a76754" stroke-width="10" fill="none" mask="url(#bodymask)"/>
<path d="M240,960 C300.0,960 300.0,930 360,930 C420.0,930 420.0,960 480,960 C420.0,960 420.0,990 360,990 C300.0,990 300.0,960 240,960Z" stroke="#a76754" stroke-width="10" fill="none" mask="url(#bodymask)"/>
<path d="M240,1020 C300.0,1020 300.0,990 360,990 C420.0,990 420.0,1020 480,1020 C420.0,1020 420.0,1050 360,1050 C300.0,1050 300.0,1020 240,1020Z" stroke="#a76754" stroke-width="10" fill="none" mask="url(#bodymask)"/>
<path d="M240,1080 C300.0,1080 300.0,1050 360,1050 C420.0,1050 420.0,1080 480,1080 C420.0,1080 420.0,1110 360,1110 C300.0,1110 300.0,1080 240,1080Z" stroke="#a76754" stroke-width="10" fill="none" mask="url(#bodymask)"/>
<path d="M240,1140 C300.0,1140 300.0,1110 360,1110 C420.0,1110 420.0,1140 480,1140 C420.0,1140 420.0,1170 360,1170 C300.0,1170 300.0,1140 240,1140Z" stroke="#a76754" stroke-width="10" fill="none" mask="url(#bodymask)"/>
<path d="M240,1200 C300.0,1200 300.0,1170 360,1170 C420.0,1170 420.0,1200 480,1200 C420.0,1200 420.0,1230 360,1230 C300.0,1230 300.0,1200 240,1200Z" stroke="#a76754" stroke-width="10" fill="none" mask="url(#bodymask)"/>
<path d="M240,1260 C300.0,1260 300.0,1230 360,1230 C420.0,1230 420.0,1260 480,1260 C420.0,1260 420.0,1290 360,1290 C300.0,1290 300.0,1260 240,1260Z" stroke="#a76754" stroke-width="10" fill="none" mask="url(#bodymask)"/>
<path d="M240,1320 C300.0,1320 300.0,1290 360,1290 C420.0,1290 420.0,1320 480,1320 C420.0,1320 420.0,1350 360,1350 C300.0,1350 300.0,1320 240,1320Z" stroke="#a76754" stroke-width="10" fill="none" mask="url(#bodymask)"/>
<path d="M240,1380 C300.0,1380 300.0,1350 360,1350 C420.0,1350 420.0,1380 480,1380 C420.0,1380 420.0,1410 360,1410 C300.0,1410 300.0,1380 240,1380Z" stroke="#a76754" stroke-width="10" fill="none" mask="url(#bodymask)"/>
<path d="M240,1440 C300.0,1440 300.0,1410 360,1410 C420.0,1410 420.0,1440 480,1440 C420.0,1440 420.0,1470 360,1470 C300.0,1470 300.0,1440 240,1440Z" stroke="#a76754" stroke-width="10" fill="none" mask="url(#bodymask)"/>
<path d="M240,1500 C300.0,1500 300.0,1470 360,1470 C420.0,1470 420.0,1500 480,1500 C420.0,1500 420.0,1530 360,1530 C300.0,1530 300.0,1500 240,1500Z" stroke="#a76754" stroke-width="10" fill="none" mask="url(#bodymask)"/>
<path d="M240,1560 C300.0,1560 300.0,1530 360,1530 C420.0,1530 420.0,1560 480,1560 C420.0,1560 420.0,1590 360,1590 C300.0,1590 300.0,1560 240,1560Z" stroke="#a76754" stroke-width="10" fill="none" mask="url(#bodymask)"/>
<path d="M240,1620 C300.0,1620 300.0,1590 360,1590 C420.0,1590 420.0,1620 480,1620 C420.0,1620 420.0,1650 360,1650 C300.0,1650 300.0,1620 240,1620Z" stroke="#a76754" stroke-width="10" fill="none" mask="url(#bodymask)"/>
<path d="M240,1680 C300.0,1680 300.0,1650 360,1650 C420.0,1650 420.0,1680 480,1680 C420.0,1680 420.0,1710 360,1710 C300.0,1710 300.0,1680 240,1680Z" stroke="#a76754" stroke-width="10" fill="none" mask="url(#bodymask)"/>
<path d="M240,1740 C300.0,1740 300.0,1710 360,1710 C420.0,1710 420.0,1740 480,1740 C420.0,1740 420.0,1770 360,1770 C300.0,1770 300.0,1740 240,1740Z" stroke="#a76754" stroke-width="10" fill="none" mask="url(#bodymask)"/>
<path d="M240,1800 C300.0,1800 300.0,1770 360,1770 C420.0,1770 420.0,1800 480,1800 C420.0,1800 420.0,1830 360,1830 C300.0,1830 300.0,1800 240,1800Z" stroke="#a76754" stroke-width="10" fill="none" mask="url(#bodymask)"/>
<path d="M240,1860 C300.0,1860 300.0,1830 360,1830 C420.0,1830 420.0,1860 480,1860 C420.0,1860 420.0,1890 360,1890 C300.0,1890 300.0,1860 240,1860Z" stroke="#a76754" stroke-width="10" fill="none" mask="url(#bodymask)"/>
<path d="M240,1920 C300.0,1920 300.0,1890 360,1890 C420.0,1890 420.0,1920 480,1920 C420.0,1920 420.0,1950 360,1950 C300.0,1950 300.0,1920 240,1920Z" stroke="#a76754" stroke-width="10" fill="none" mask="url(#bodymask)"/>
<path d="M240,1980 C300.0,1980 300.0,1950 360,1950 C420.0,1950 420.0,1980 480,1980 C420.0,1980 420.0,2010 360,2010 C300.0,2010 300.0,1980 240,1980Z" stroke="#a76754" stroke-width="10" fill="none" mask="url(#bodymask)"/>
<path d="M240,2040 C300.0,2040 300.0,2010 360,2010 C420.0,2010 420.0,2040 480,2040 C420.0,2040 420.0,2070 360,2070 C300.0,2070 300.0,2040 240,2040Z" stroke="#a76754" stroke-width="10" fill="none" mask="url(#bodymask)"/>
<path d="M240,2100 C300.0,2100 300.0,2070 360,2070 C420.0,2070 420.0,2100 480,2100 C420.0,2100 420.0,2130 360,2130 C300.0,2130 300.0,2100 240,2100Z" stroke="#a76754" stroke-width="10" fill="none" mask="url(#bodymask)"/>
<path d="M240,2160 C300.0,2160 300.0,2130 360,2130 C420.0,2130 420.0,2160 480,2160 C420.0,2160 420.0,2190 360,2190 C300.0,2190 300.0,2160 240,2160Z" stroke="#a76754" stroke-width="10" fill="none" mask="url(#bodymask)"/>
<path d="M240,2220 C300.0,2220 300.0,2190 360,2190 C420.0,2190 420.0,2220 480,2220 C420.0,2220 420.0,2250 360,2250 C300.0,2250 300.0,2220 240,2220Z" stroke="#a76754" stroke-width="10" fill="none" mask="url(#bodymask)"/>
<path d="M240,2280 C300.0,2280 300.0,2250 360,2250 C420.0,2250 420.0,2280 480,2280 C420.0,2280 420.0,2310 360,2310 C300.0,2310 300.0,2280 240,2280Z" stroke="#a76754" stroke-width="10" fill="none" mask="url(#bodymask)"/>
<path d="M240,2340 C300.0,2340 300.0,2310 360,2310 C420.0,2310 420.0,2340 480,2340 C420.0,2340 420.0,2370 360,2370 C300.0,2370 300.0,2340 240,2340Z" stroke="#a76754" stroke-width="10" fill="none" mask="url(#bodymask)"/>
<path d="M480,0 C540.0,0 540.0,-30 600,-30 C660.0,-30 660.0,0 720,0 C660.0,0 660.0,30 600,30 C540.0,30 540.0,0 480,0Z" stroke="#a76754" stroke-width="10" fill="none" mask="url(#bodymask)"/>
<path d="M480,60 C540.0,60 540.0,30 600,30 C660.0,30 660.0,60 720,60 C660.0,60 660.0,90 600,90 C540.0,90 540.0,60 480,60Z" stroke="#a76754" stroke-width="10" fill="none" mask="url(#bodymask)"/>
<path d="M480,120 C540.0,120 540.0,90 600,90 C660.0,90 660.0,120 720,120 C660.0,120 660.0,150 600,150 C540.0,150 540.0,120 480,120Z" stroke="#a76754" stroke-width="10" fill="none" mask="url(#bodymask)"/>
<path d="M480,180 C540.0,180 540.0,150 600,150 C660.0,150 660.0,180 720,180 C660.0,180 660.0,210 600,210 C540.0,210 540.0,180 480,180Z" stroke="#a76754" stroke-width="10" fill="none" mask="url(#bodymask)"/>
<path d="M480,240 C540.0,240 540.0,210 600,210 C660.0,210 660.0,240 720,240 C660.0,240 660.0,270 600,270 C540.0,270 540.0,240 480,240Z" stroke="#a76754" stroke-width="10" fill="none" mask="url(#bodymask)"/>
<path d="M480,300 C540.0,300 540.0,270 600,270 C660.0,270 660.0,300 720,300 C660.0,300 660.0,330 600,330 C540.0,330 540.0,300 480,300Z" stroke="#a76754" stroke-width="10" fill="none" mask="url(#bodymask)"/>
<path d="M480,360 C540.0,360 540.0,330 600,330 C660.0,330 660.0,360 720,360 C660.0,360 660.0,390 600,390 C540.0,390 540.0,360 480,360Z" stroke="#a76754" stroke-width="10" fill="none" mask="url(#bodymask)"/>
<path d="M480,420 C540.0,420 540.0,390 600,390 C660.0,390 660.0,420 720,420 C660.0,420 660.0,450 600,450 C540.0,450 540.0,420 480,420Z" stroke="#a76754" stroke-width="10" fill="none" mask="url(#bodymask)"/>
<path d="M480,480 C540.0,480 540.0,450 600,450 C660.0,450 660.0,480 720,480 C660.0,480 660.0,510 600,510 C540.0,510 540.0,480 480,480Z" stroke="#a76754" stroke-width="10" fill="none" mask="url(#bodymask)"/>
<path d="M480,540 C540.0,540 540.0,510 600,510 C660.0,510 660.0,540 720,540 C660.0,540 660.0,570 600,570 C540.0,570 540.0,540 480,540Z" stroke="#a76754" stroke-width="10" fill="none" mask="url(#bodymask)"/>
<path d="M480,600 C540.0,600 540.0,570 600,570 C660.0,570 660.0,600 720,600 C660.0,600 660.0,630 600,630 C540.0,630 540.0,600 480,600Z" stroke="#a76754" stroke-width="10" fill="none" mask="url(#bodymask)"/>
<path d="M480,660 C540.0,660 540.0,630 600,630 C660.0,630 660.0,660 720,660 C660.0,660 660.0,690 600,690 C540.0,690 540.0,660 480,660Z" stroke="#a76754" stroke-width="10" fill="none" mask="url(#bodymask)"/>
<path d="M480,720 C540.0,720 540.0,690 600,690 C660.0,690 660.0,720 720,720 C660.0,720 660.0,750 600,750 C540.0,750 540.0,720 480,720Z" stroke="#a76754" stroke-width="10" fill="none" mask="url(#bodymask)"/>
<path d="M480,780 C540.0,780 540.0,750 600,750 C660.0,750 660.0,780 720,780 C660.0,780 660.0,810 600,810 C540.0,810 540.0,780 480,780Z" stroke="#a76754" stroke-width="10" fill="none" mask="url(#bodymask)"/>
<path d="M480,840 C540.0,840 540.0,810 600,810 C660.0,810 660.0,840 720,840 C660.0,840 660.0,870 600,870 C540.0,870 540.0,840 480,840Z" stroke="#a76754" stroke-width="10" fill="none" mask="url(#bodymask)"/>
<path d="M480,900 C540.0,900 540.0,870 600,870 C660.0,870 660.0,900 720,900 C660.0,900 660.0,930 600,930 C540.0,930 540.0,900 480,900Z" stroke="#a76754" stroke-width="10" fill="none" mask="url(#bodymask)"/>
<path d="M480,960 C540.0,960 540.0,930 600,930 C660.0,930 660.0,960 720,960 C660.0,960 660.0,990 600,990 C540.0,990 540.0,960 480,960Z" stroke="#a76754" stroke-width="10" fill="none" mask="url(#bodymask)"/>
<path d="M480,1020 C540.0,1020 540.0,990 600,990 C660.0,990 660.0,1020 720,1020 C660.0,1020 660.0,1050 600,1050 C540.0,1050 540.0,1020 480,1020Z" stroke="#a76754" stroke-width="10" fill="none" mask="url(#bodymask)"/>
<path d="M480,1080 C540.0,1080 540.0,1050 600,1050 C660.0,1050 660.0,1080 720,1080 C660.0,1080 660.0,1110 600,1110 C540.0,1110 540.0,1080 480,1080Z" stroke="#a76754" stroke-width="10" fill="none" mask="url(#bodymask)"/>
<path d="M480,1140 C540.0,1140 540.0,1110 600,1110 C660.0,1110 660.0,1140 720,1140 C660.0,1140 660.0,1170 600,1170 C540.0,1170 540.0,1140 480,1140Z" stroke="#a76754" stroke-width="10" fill="none" mask="url(#bodymask)"/>
<path d="M480,1200 C540.0,1200 540.0,1170 600,1170 C660.0,1170 660.0,1200 720,1200 C660.0,1200 660.0,1230 600,1230 C540.0,1230 540.0,1200 480,1200Z" stroke="#a76754" stroke-width="10" fill="none" mask="url(#bodymask)"/>
<path d="M480,1260 C540.0,1260 540.0,1230 600,1230 C660.0,1230 660.0,1260 720,1260 C660.0,1260 660.0,1290 600,1290 C540.0,1290 540.0,1260 480,1260Z" stroke="#a76754" stroke-width="10" fill="none" mask="url(#bodymask)"/>
<path d="M480,1320 C540.0,1320 540.0,1290 600,1290 C660.0,1290 660.0,1320 720,1320 C660.0,1320 660.0,1350 600,1350 C540.0,1350 540.0,1320 480,1320Z" stroke="#a76754" stroke-width="10" fill="none" mask="url(#bodymask)"/>
<path d="M480,1380 C540.0,1380 540.0,1350 600,1350 C660.0,1350 660.0,1380 720,1380 C660.0,1380 660.0,1410 600,1410 C540.0,1410 540.0,1380 480,1380Z" stroke="#a76754" stroke-width="10" fill="none" mask="url(#bodymask)"/>
<path d="M480,1440 C540.0,1440 540.0,1410 600,1410 C660.0,1410 660.0,1440 720,1440 C660.0,1440 660.0,1470 600,1470 C540.0,1470 540.0,1440 480,1440Z" stroke="#a76754" stroke-width="10" fill="none" mask="url(#bodymask)"/>
<path d="M480,1500 C540.0,1500 540.0,1470 600,1470 C660.0,1470 660.0,1500 720,1500 C660.0,1500 660.0,1530 600,1530 C540.0,1530 540.0,1500 480,1500Z" stroke="#a76754" stroke-width="10" fill="none" mask="url(#bodymask)"/>
<path d="M480,1560 C540.0,1560 540.0,1530 600,1530 C660.0,1530 660.0,1560 720,1560 C660.0,1560 660.0,1590 600,1590 C540.0,1590 540.0,1560 480,1560Z" stroke="#a76754" stroke-width="10" fill="none" mask="url(#bodymask)"/>
<path d="M480,1620 C540.0,1620 540.0,1590 600,1590 C660.0,1590 660.0,1620 720,1620 C660.0,1620 660.0,1650 600,1650 C540.0,1650 540.0,1620 480,1620Z" stroke="#a76754" stroke-width="10" fill="none" mask="url(#bodymask)"/>
<path d="M480,1680 C540.0,1680 540.0,1650 600,1650 C660.0,1650 660.0,1680 720,1680 C660.0,1680 660.0,1710 600,1710 C540.0,1710 540.0,1680 480,1680Z" stroke="#a76754" stroke-width="10" fill="none" mask="url(#bodymask)"/>
<path d="M480,1740 C540.0,1740 540.0,1710 600,1710 C660.0,1710 660.0,1740 720,1740 C660.0,1740 660.0,1770 600,1770 C540.0,1770 540.0,1740 480,1740Z" stroke="#a76754" stroke-width="10" fill="none" mask="url(#bodymask)"/>
<path d="M480,1800 C540.0,1800 540.0,1770 600,1770 C660.0,1770 660.0,1800 720,1800 C660.0,1800 660.0,1830 600,1830 C540.0,1830 540.0,1800 480,1800Z" stroke="#a76754" stroke-width="10" fill="none" mask="url(#bodymask)"/>
<path d="M480,1860 C540.0,1860 540.0,1830 600,1830 C660.0,1830 660.0,1860 720,1860 C660.0,1860 660.0,1890 600,1890 C540.0,1890 540.0,1860 480,1860Z" stroke="#a76754" stroke-width="10" fill="none" mask="url(#bodymask)"/>
<path d="M480,1920 C540.0,1920 540.0,1890 600,1890 C660.0,1890 660.0,1920 720,1920 C660.0,1920 660.0,1950 600,1950 C540.0,1950 540.0,1920 480,1920Z" stroke="#a76754" stroke-width="10" fill="none" mask="url(#bodymask)"/>
<path d="M480,1980 C540.0,1980 540.0,1950 600,1950 C660.0,1950 660.0,1980 720,1980 C660.0,1980 660.0,2010 600,2010 C540.0,2010 540.0,1980 480,1980Z" stroke="#a76754" stroke-width="10" fill="none" mask="url(#bodymask)"/>
<path d="M480,2040 C540.0,2040 540.0,2010 600,2010 C660.0,2010 660.0,2040 720,2040 C660.0,2040 660.0,2070 600,2070 C540.0,2070 540.0,2040 480,2040Z" stroke="#a76754" stroke-width="10" fill="none" mask="url(#bodymask)"/>
<path d="M480,2100 C540.0,2100 540.0,2070 600,2070 C660.0,2070 660.0,2100 720,2100 C660.0,2100 660.0,2130 600,2130 C540.0,2130 540.0,2100 480,2100Z" stroke="#a76754" stroke-width="10" fill="none" mask="url(#bodymask)"/>
<path d="M480,2160 C540.0,2160 540.0,2130 600,2130 C660.0,2130 660.0,2160 720,2160 C660.0,2160 660.0,2190 600,2190 C540.0,2190 540.0,2160 480,2160Z" stroke="#a76754" stroke-width="10" fill="none" mask="url(#bodymask)"/>
<path d="M480,2220 C540.0,2220 540.0,2190 600,2190 C660.0,2190 660.0,2220 720,2220 C660.0,2220 660.0,2250 600,2250 C540.0,2250 540.0,2220 480,2220Z" stroke="#a76754" stroke-width="10" fill="none" mask="url(#bodymask)"/>
<path d="M480,2280 C540.0,2280 540.0,2250 600,2250 C660.0,2250 660.0,2280 720,2280 C660.0,2280 660.0,2310 600,2310 C540.0,2310 540.0,2280 480,2280Z" stroke="#a76754" stroke-width="10" fill="none" mask="url(#bodymask)"/>
<path d="M480,2340 C540.0,2340 540.0,2310 600,2310 C660.0,2310 660.0,2340 720,2340 C660.0,2340 660.0,2370 600,2370 C540.0,2370 540.0,2340 480,2340Z" stroke="#a76754" stroke-width="10" fill="none" mask="url(#bodymask)"/>
<path d="M720,0 C780.0,0 780.0,-30 840,-30 C900.0,-30 900.0,0 960,0 C900.0,0 900.0,30 840,30 C780.0,30 780.0,0 720,0Z" stroke="#a76754" stroke-width="10" fill="none" mask="url(#bodymask)"/>
<path d="M720,60 C780.0,60 780.0,30 840,30 C900.0,30 900.0,60 960,60 C900.0,60 900.0,90 840,90 C780.0,90 780.0,60 720,60Z" stroke="#a76754" stroke-width="10" fill="none" mask="url(#bodymask)"/>
<path d="M720,120 C780.0,120 780.0,90 840,90 C900.0,90 900.0,120 960,120 C900.0,120 900.0,150 840,150 C780.0,150 780.0,120 720,120Z" stroke="#a76754" stroke-width="10" fill="none" mask="url(#bodymask)"/>
<path d="M720,180 C780.0,180 780.0,150 840,150 C900.0,150 900.0,180 960,180 C900.0,180 900.0,210 840,210 C780.0,210 780.0,180 720,180Z" stroke="#a76754" stroke-width="10" fill="none" mask="url(#bodymask)"/>
<path d="M720,240 C780.0,240 780.0,210 840,210 C900.0,210 900.0,240 960,240 C900.0,240 900.0,270 840,270 C780.0,270 780.0,240 720,240Z" stroke="#a76754" stroke-width="10" fill="none" mask="url(#bodymask)"/>
<path d="M720,300 C780.0,300 780.0,270 840,270 C900.0,270 900.0,300 960,300 C900.0,300 900.0,330 840,330 C780.0,330 780.0,300 720,300Z" stroke="#a76754" stroke-width="10" fill="none" mask="url(#bodymask)"/>
<path d="M720,360 C780.0,360 780.0,330 840,330 C900.0,330 900.0,360 960,360 C900.0,360 900.0,390 840,390 C780.0,390 780.0,360 720,360Z" stroke="#a76754" stroke-width="10" fill="none" mask="url(#bodymask)"/>
<path d="M720,420 C780.0,420 780.0,390 840,390 C900.0,390 900.0,420 960,420 C900.0,420 900.0,450 840,450 C780.0,450 780.0,420 720,420Z" stroke="#a76754" stroke-width="10" fill="none" mask="url(#bodymask)"/>
<path d="M720,480 C780.0,480 780.0,450 840,450 C900.0,450 900.0,480 960,480 C900.0,480 900.0,510 840,510 C780.0,510 780.0,480 720,480Z" stroke="#a76754" stroke-width="10" fill="none" mask="url(#bodymask)"/>
<path d="M720,540 C780.0,540 780.0,510 840,510 C900.0,510 900.0,540 960,540 C900.0,540 900.0,570 840,570 C780.0,570 780.0,540 720,540Z" stroke="#a76754" stroke-width="10" fill="none" mask="url(#bodymask)"/>
<path d="M720,600 C780.0,600 780.0,570 840,570 C900.0,570 900.0,600 960,600 C900.0,600 900.0,630 840,630 C780.0,630 780.0,600 720,600Z" stroke="#a76754" stroke-width="10" fill="none" mask="url(#bodymask)"/>
<path d="M720,660 C780.0,660 780.0,630 840,630 C900.0,630 900.0,660 960,660 C900.0,660 900.0,690 840,690 C780.0,690 780.0,660 720,660Z" stroke="#a76754" stroke-width="10" fill="none" mask="url(#bodymask)"/>
<path d="M720,720 C780.0,720 780.0,690 840,690 C900.0,690 900.0,720 960,720 C900.0,720 900.0,750 840,750 C780.0,750 780.0,720 720,720Z" stroke="#a76754" stroke-width="10" fill="none" mask="url(#bodymask)"/>
<path d="M720,780 C780.0,780 780.0,750 840,750 C900.0,750 900.0,780 960,780 C900.0,780 900.0,810 840,810 C780.0,810 780.0,780 720,780Z" stroke="#a76754" stroke-width="10" fill="none" mask="url(#bodymask)"/>
<path d="M720,840 C780.0,840 780.0,810 840,810 C900.0,810 900.0,840 960,840 C900.0,840 900.0,870 840,870 C780.0,870 780.0,840 720,840Z" stroke="#a76754" stroke-width="10" fill="none" mask="url(#bodymask)"/>
<path d="M720,900 C780.0,900 780.0,870 840,870 C900.0,870 900.0,900 960,900 C900.0,900 900.0,930 840,930 C780.0,930 780.0,900 720,900Z" stroke="#a76754" stroke-width="10" fill="none" mask="url(#bodymask)"/>
<path d="M720,960 C780.0,960 780.0,930 840,930 C900.0,930 900.0,960 960,960 C900.0,960 900.0,990 840,990 C780.0,990 780.0,960 720,960Z" stroke="#a76754" stroke-width="10" fill="none" mask="url(#bodymask)"/>
<path d="M720,1020 C780.0,1020 780.0,990 840,990 C900.0,990 900.0,1020 960,1020 C900.0,1020 900.0,1050 840,1050 C780.0,1050 780.0,1020 720,1020Z" stroke="#a76754" stroke-width="10" fill="none" mask="url(#bodymask)"/>
<path d="M720,1080 C780.0,1080 780.0,1050 840,1050 C900.0,1050 900.0,1080 960,1080 C900.0,1080 900.0,1110 840,1110 C780.0,1110 780.0,1080 720,1080Z" stroke="#a76754" stroke-width="10" fill="none" mask="url(#bodymask)"/>
<path d="M720,1140 C780.0,1140 780.0,1110 840,1110 C900.0,1110 900.0,1140 960,1140 C900.0,1140 900.0,1170 840,1170 C780.0,1170 780.0,1140 720,1140Z" stroke="#a76754" stroke-width="10" fill="none" mask="url(#bodymask)"/>
<path d="M720,1200 C780.0,1200 780.0,1170 840,1170 C900.0,1170 900.0,1200 960,1200 C900.0,1200 900.0,1230 840,1230 C780.0,1230 780.0,1200 720,1200Z" stroke="#a76754" stroke-width="10" fill="none" mask="url(#bodymask)"/>
<path d="M720,1260 C780.0,1260 780.0,1230 840,1230 C900.0,1230 900.0,1260 960,1260 C900.0,1260 900.0,1290 840,1290 C780.0,1290 780.0,1260 720,1260Z" stroke="#a76754" stroke-width="10" fill="none" mask="url(#bodymask)"/>
<path d="M720,1320 C780.0,1320 780.0,1290 840,1290 C900.0,1290 900.0,1320 960,1320 C900.0,1320 900.0,1350 840,1350 C780.0,1350 780.0,1320 720,1320Z" stroke="#a76754" stroke-width="10" fill="none" mask="url(#bodymask)"/>
<path d="M720,1380 C780.0,1380 780.0,1350 840,1350 C900.0,1350 900.0,1380 960,1380 C900.0,1380 900.0,1410 840,1410 C780.0,1410 780.0,1380 720,1380Z" stroke="#a76754" stroke-width="10" fill="none" mask="url(#bodymask)"/>
<path d="M720,1440 C780.0,1440 780.0,1410 840,1410 C900.0,1410 900.0,1440 960,1440 C900.0,1440 900.0,1470 840,1470 C780.0,1470 780.0,1440 720,1440Z" stroke="#a76754" stroke-width="10" fill="none" mask="url(#bodymask)"/>
<path d="M720,1500 C780.0,1500 780.0,1470 840,1470 C900.0,1470 900.0,1500 960,1500 C900.0,1500 900.0,1530 840,1530 C780.0,1530 780.0,1500 720,1500Z" stroke="#a76754" stroke-width="10" fill="none" mask="url(#bodymask)"/>
<path d="M720,1560 C780.0,1560 780.0,1530 840,1530 C900.0,1530 900.0,1560 960,1560 C900.0,1560 900.0,1590 840,1590 C780.0,1590 780.0,1560 720,1560Z" stroke="#a76754" stroke-width="10" fill="none" mask="url(#bodymask)"/>
<path d="M720,1620 C780.0,1620 780.0,1590 840,1590 C900.0,1590 900.0,1620 960,1620 C900.0,1620 900.0,1650 840,1650 C780.0,1650 780.0,1620 720,1620Z" stroke="#a76754" stroke-width="10" fill="none" mask="url(#bodymask)"/>
<path d="M720,1680 C780.0,1680 780.0,1650 840,1650 C900.0,1650 900.0,1680 960,1680 C900.0,1680 900.0,1710 840,1710 C780.0,1710 780.0,1680 720,1680Z" stroke="#a76754" stroke-width="10" fill="none" mask="url(#bodymask)"/>
<path d="M720,1740 C780.0,1740 780.0,1710 840,1710 C900.0,1710 900.0,1740 960,1740 C900.0,1740 900.0,1770 840,1770 C780.0,1770 780.0,1740 720,1740Z" stroke="#a76754" stroke-width="10" fill="none" mask="url(#bodymask)"/>
<path d="M720,1800 C780.0,1800 780.0,1770 840,1770 C900.0,1770 900.0,1800 960,1800 C900.0,1800 900.0,1830 840,1830 C780.0,1830 780.0,1800 720,1800Z" stroke="#a76754" stroke-width="10" fill="none" mask="url(#bodymask)"/>
<path d="M720,1860 C780.0,1860 780.0,1830 840,1830 C900.0,1830 900.0,1860 960,1860 C900.0,1860 900.0,1890 840,1890 C780.0,1890 780.0,1860 720,1860Z" stroke="#a76754" stroke-width="10" fill="none" mask="url(#bodymask)"/>
<path d="M720,1920 C780.0,1920 780.0,1890 840,1890 C900.0,1890 900.0,1920 960,1920 C900.0,1920 900.0,1950 840,1950 C780.0,1950 780.0,1920 720,1920Z" stroke="#a76754" stroke-width="10" fill="none" mask="url(#bodymask)"/>
<path d="M720,1980 C780.0,1980 780.0,1950 840,1950 C900.0,1950 900.0,1980 960,1980 C900.0,1980 900.0,2010 840,2010 C780.0,2010 780.0,1980 720,1980Z" stroke="#a76754" stroke-width="10" fill="none" mask="url(#bodymask)"/>
<path d="M720,2040 C780.0,2040 780.0,2010 840,2010 C900.0,2010 900.0,2040 960,2040 C900.0,2040 900.0,2070 840,2070 C780.0,2070 780.0,2040 720,2040Z" stroke="#a76754" stroke-width="10" fill="none" mask="url(#bodymask)"/>
<path d="M720,2100 C780.0,2100 780.0,2070 840,2070 C900.0,2070 900.0,2100 960,2100 C900.0,2100 900.0,2130 840,2130 C780.0,2130 780.0,2100 720,2100Z" stroke="#a76754" stroke-width="10" fill="none" mask="url(#bodymask)"/>
<path d="M720,2160 C780.0,2160 780.0,2130 840,2130 C900.0,2130 900.0,2160 960,2160 C900.0,2160 900.0,2190 840,2190 C780.0,2190 780.0,2160 720,2160Z" stroke="#a76754" stroke-width="10" fill="none" mask="url(#bodymask)"/>
<path d="M720,2220 C780.0,2220 780.0,2190 840,2190 C900.0,2190 900.0,2220 960,2220 C900.0,2220 900.0,2250 840,2250 C780.0,2250 780.0,2220 720,2220Z" stroke="#a76754" stroke-width="10" fill="none" mask="url(#bodymask)"/>
<path d="M720,2280 C780.0,2280 780.0,2250 840,2250 C900.0,2250 900.0,2280 960,2280 C900.0,2280 900.0,2310 840,2310 C780.0,2310 780.0,2280 720,2280Z" stroke="#a76754" stroke-width="10" fill="none" mask="url(#bodymask)"/>
<path d="M720,2340 C780.0,2340 780.0,2310 840,2310 C900.0,2310 900.0,2340 960,2340 C900.0,2340 900.0,2370 840,2370 C780.0,2370 780.0,2340 720,2340Z" stroke="#a76754" stroke-width="10" fill="none" mask="url(#bodymask)"/>
<path d="M960,0 C1020.0,0 1020.0,-30 1080,-30 C1140.0,-30 1140.0,0 1200,0 C1140.0,0 1140.0,30 1080,30 C1020.0,30 1020.0,0 960,0Z" stroke="#a76754" stroke-width="10" fill="none" mask="url(#bodymask)"/>
<path d="M960,60 C1020.0,60 1020.0,30 1080,30 C1140.0,30 1140.0,60 1200,60 C1140.0,60 1140.0,90 1080,90 C1020.0,90 1020.0,60 960,60Z" stroke="#a76754" stroke-width="10" fill="none" mask="url(#bodymask)"/>
<path d="M960,120 C1020.0,120 1020.0,90 1080,90 C1140.0,90 1140.0,120 1200,120 C1140.0,120 1140.0,150 1080,150 C1020.0,150 1020.0,120 960,120Z" stroke="#a76754" stroke-width="10" fill="none" mask="url(#bodymask)"/>
<path d="M960,180 C1020.0,180 1020.0,150 1080,150 C1140.0,150 1140.0,180 1200,180 C1140.0,180 1140.0,210 1080,210 C1020.0,210 1020.0,180 960,180Z" stroke="#a76754" stroke-width="10" fill="none" mask="url(#bodymask)"/>
<path d="M960,240 C1020.0,240 1020.0,210 1080,210 C1140.0,210 1140.0,240 1200,240 C1140.0,240 1140.0,270 1080,270 C1020.0,270 1020.0,240 960,240Z" stroke="#a76754" stroke-width="10" fill="none" mask="url(#bodymask)"/>
<path d="M960,300 C1020.0,300 1020.0,270 1080,270 C1140.0,270 1140.0,300 1200,300 C1140.0,300 1140.0,330 1080,330 C1020.0,330 1020.0,300 960,300Z" stroke="#a76754" stroke-width="10" fill="none" mask="url(#bodymask)"/>
<path d="M960,360 C1020.0,360 1020.0,330 1080,330 C1140.0,330 1140.0,360 1200,360 C1140.0,360 1140.0,390 1080,390 C1020.0,390 1020.0,360 960,360Z" stroke="#a76754" stroke-width="10" fill="none" mask="url(#bodymask)"/>
<path d="M960,420 C1020.0,420 1020.0,390 1080,390 C1140.0,390 1140.0,420 1200,420 C1140.0,420 1140.0,450 1080,450 C1020.0,450 1020.0,420 960,420Z" stroke="#a76754" stroke-width="10" fill="none" mask="url(#bodymask)"/>
<path d="M960,480 C1020.0,480 1020.0,450 1080,450 C1140.0,450 1140.0,480 1200,480 C1140.0,480 1140.0,510 1080,510 C1020.0,510 1020.0,480 960,480Z" stroke="#a76754" stroke-width="10" fill="none" mask="url(#bodymask)"/>
<path d="M960,540 C1020.0,540 1020.0,510 1080,510 C1140.0,510 1140.0,540 1200,540 C1140.0,540 1140.0,570 1080,570 C1020.0,570 1020.0,540 960,540Z" stroke="#a76754" stroke-width="10" fill="none" mask="url(#bodymask)"/>
<path d="M960,600 C1020.0,600 1020.0,570 1080,570 C1140.0,570 1140.0,600 1200,600 C1140.0,600 1140.0,630 1080,630 C1020.0,630 1020.0,600 960,600Z" stroke="#a76754" stroke-width="10" fill="none" mask="url(#bodymask)"/>
<path d="M960,660 C1020.0,660 1020.0,630 1080,630 C1140.0,630 1140.0,660 1200,660 C1140.0,660 1140.0,690 1080,690 C1020.0,690 1020.0,660 960,660Z" stroke="#a76754" stroke-width="10" fill="none" mask="url(#bodymask)"/>
<path d="M960,720 C1020.0,720 1020.0,690 1080,690 C1140.0,690 1140.0,720 1200,720 C1140.0,720 1140.0,750 1080,750 C1020.0,750 1020.0,720 960,720Z" stroke="#a76754" stroke-width="10" fill="none" mask="url(#bodymask)"/>
<path d="M960,780 C1020.0,780 1020.0,750 1080,750 C1140.0,750 1140.0,780 1200,780 C1140.0,780 1140.0,810 1080,810 C1020.0,810 1020.0,780 960,780Z" stroke="#a76754" stroke-width="10" fill="none" mask="url(#bodymask)"/>
<path d="M960,840 C1020.0,840 1020.0,810 1080,810 C1140.0,810 1140.0,840 1200,840 C1140.0,840 1140.0,870 1080,870 C1020.0,870 1020.0,840 960,840Z" stroke="#a76754" stroke-width="10" fill="none" mask="url(#bodymask)"/>
<path d="M960,900 C1020.0,900 1020.0,870 1080,870 C1140.0,870 1140.0,900 1200,900 C1140.0,900 1140.0,930 1080,930 C1020.0,930 1020.0,900 960,900Z" stroke="#a76754" stroke-width="10" fill="none" mask="url(#bodymask)"/>
<path d="M960,960 C1020.0,960 1020.0,930 1080,930 C1140.0,930 1140.0,960 1200,960 C1140.0,960 1140.0,990 1080,990 C1020.0,990 1020.0,960 960,960Z" stroke="#a76754" stroke-width="10" fill="none" mask="url(#bodymask)"/>
<path d="M960,1020 C1020.0,1020 1020.0,990 1080,990 C1140.0,990 1140.0,1020 1200,1020 C1140.0,1020 1140.0,1050 1080,1050 C1020.0,1050 1020.0,1020 960,1020Z" stroke="#a76754" stroke-width="10" fill="none" mask="url(#bodymask)"/>
<path d="M960,1080 C1020.0,1080 1020.0,1050 1080,1050 C1140.0,1050 1140.0,1080 1200,1080 C1140.0,1080 1140.0,1110 1080,1110 C1020.0,1110 1020.0,1080 960,1080Z" stroke="#a76754" stroke-width="10" fill="none" mask="url(#bodymask)"/>
<path d="M960,1140 C1020.0,1140 1020.0,1110 1080,1110 C1140.0,1110 1140.0,1140 1200,1140 C1140.0,1140 1140.0,1170 1080,1170 C1020.0,1170 1020.0,1140 960,1140Z" stroke="#a76754" stroke-width="10" fill="none" mask="url(#bodymask)"/>
<path d="M960,1200 C1020.0,1200 1020.0,1170 1080,1170 C1140.0,1170 1140.0,1200 1200,1200 C1140.0,1200 1140.0,1230 1080,1230 C1020.0,1230 1020.0,1200 960,1200Z" stroke="#a76754" stroke-width="10" fill="none" mask="url(#bodymask)"/>
<path d="M960,1260 C1020.0,1260 1020.0,1230 1080,1230 C1140.0,1230 1140.0,1260 1200,1260 C1140.0,1260 1140.0,1290 1080,1290 C1020.0,1290 1020.0,1260 960,1260Z" stroke="#a76754" stroke-width="10" fill="none" mask="url(#bodymask)"/>
<path d="M960,1320 C1020.0,1320 1020.0,1290 1080,1290 C1140.0,1290 1140.0,1320 1200,1320 C1140.0,1320 1140.0,1350 1080,1350 C1020.0,1350 1020.0,1320 960,1320Z" stroke="#a76754" stroke-width="10" fill="none" mask="url(#bodymask)"/>
<path d="M960,1380 C1020.0,1380 1020.0,1350 1080,1350 C1140.0,1350 1140.0,1380 1200,1380 C1140.0,1380 1140.0,1410 1080,1410 C1020.0,1410 1020.0,1380 960,1380Z" stroke="#a76754" stroke-width="10" fill="none" mask="url(#bodymask)"/>
<path d="M960,1440 C1020.0,1440 1020.0,1410 1080,1410 C1140.0,1410 1140.0,1440 1200,1440 C1140.0,1440 1140.0,1470 1080,1470 C1020.0,1470 1020.0,1440 960,1440Z" stroke="#a76754" stroke-width="10" fill="none" mask="url(#bodymask)"/>
<path d="M960,1500 C1020.0,1500 1020.0,1470 1080,1470 C1140.0,1470 1140.0,1500 1200,1500 C1140.0,1500 1140.0,1530 1080,1530 C1020.0,1530 1020.0,1500 960,1500Z" stroke="#a76754" stroke-width="10" fill="none" mask="url(#bodymask)"/>
<path d="M960,1560 C1020.0,1560 1020.0,1530 1080,1530 C1140.0,1530 1140.0,1560 1200,1560 C1140.0,1560 1140.0,1590 1080,1590 C1020.0,1590 1020.0,1560 960,1560Z" stroke="#a76754" stroke-width="10" fill="none" mask="url(#bodymask)"/>
<path d="M960,1620 C1020.0,1620 1020.0,1590 1080,1590 C1140.0,1590 1140.0,1620 1200,1620 C1140.0,1620 1140.0,1650 1080,1650 C1020.0,1650 1020.0,1620 960,1620Z" stroke="#a76754" stroke-width="10" fill="none" mask="url(#bodymask)"/>
<path d="M960,1680 C1020.0,1680 1020.0,1650 1080,1650 C1140.0,1650 1140.0,1680 1200,1680 C1140.0,1680 1140.0,1710 1080,1710 C1020.0,1710 1020.0,1680 960,1680Z" stroke="#a76754" stroke-width="10" fill="none" mask="url(#bodymask)"/>
<path d="M960,1740 C1020.0,1740 1020.0,1710 1080,1710 C1140.0,1710 1140.0,1740 1200,1740 C1140.0,1740 1140.0,1770 1080,1770 C1020.0,1770 1020.0,1740 960,1740Z" stroke="#a76754" stroke-width="10" fill="none" mask="url(#bodymask)"/>
<path d="M960,1800 C1020.0,1800 1020.0,1770 1080,1770 C1140.0,1770 1140.0,1800 1200,1800 C1140.0,1800 1140.0,1830 1080,1830 C1020.0,1830 1020.0,1800 960,1800Z" stroke="#a76754" stroke-width="10" fill="none" mask="url(#bodymask)"/>
<path d="M960,1860 C1020.0,1860 1020.0,1830 1080,1830 C1140.0,1830 1140.0,1860 1200,1860 C1140.0,1860 1140.0,1890 1080,1890 C1020.0,1890 1020.0,1860 960,1860Z" stroke="#a76754" stroke-width="10" fill="none" mask="url(#bodymask)"/>
<path d="M960,1920 C1020.0,1920 1020.0,1890 1080,1890 C1140.0,1890 1140.0,1920 1200,1920 C1140.0,1920 1140.0,1950 1080,1950 C1020.0,1950 1020.0,1920 960,1920Z" stroke="#a76754" stroke-width="10" fill="none" mask="url(#bodymask)"/>
<path d="M960,1980 C1020.0,1980 1020.0,1950 1080,1950 C1140.0,1950 1140.0,1980 1200,1980 C1140.0,1980 1140.0,2010 1080,2010 C1020.0,2010 1020.0,1980 960,1980Z" stroke="#a76754" stroke-width="10" fill="none" mask="url(#bodymask)"/>
<path d="M960,2040 C1020.0,2040 1020.0,2010 1080,2010 C1140.0,2010 1140.0,2040 1200,2040 C1140.0,2040 1140.0,2070 1080,2070 C1020.0,2070 1020.0,2040 960,2040Z" stroke="#a76754" stroke-width="10" fill="none" mask="url(#bodymask)"/>
<path d="M960,2100 C1020.0,2100 1020.0,2070 1080,2070 C1140.0,2070 1140.0,2100 1200,2100 C1140.0,2100 1140.0,2130 1080,2130 C1020.0,2130 1020.0,2100 960,2100Z" stroke="#a76754" stroke-width="10" fill="none" mask="url(#bodymask)"/>
<path d="M960,2160 C1020.0,2160 1020.0,2130 1080,2130 C1140.0,2130 1140.0,2160 1200,2160 C1140.0,2160 1140.0,2190 1080,2190 C1020.0,2190 1020.0,2160 960,2160Z" stroke="#a76754" stroke-width="10" fill="none" mask="url(#bodymask)"/>
<path d="M960,2220 C1020.0,2220 1020.0,2190 1080,2190 C1140.0,2190 1140.0,2220 1200,2220 C1140.0,2220 1140.0,2250 1080,2250 C1020.0,2250 1020.0,2220 960,2220Z" stroke="#a76754" stroke-width="10" fill="none" mask="url(#bodymask)"/>
<path d="M960,2280 C1020.0,2280 1020.0,2250 1080,2250 C1140.0,2250 1140.0,2280 1200,2280 C1140.0,2280 1140.0,2310 1080,2310 C1020.0,2310 1020.0,2280 960,2280Z" stroke="#a76754" stroke-width="10" fill="none" mask="url(#bodymask)"/>
<path d="M960,2340 C1020.0,2340 1020.0,2310 1080,2310 C1140.0,2310 1140.0,2340 1200,2340 C1140.0,2340 1140.0,2370 1080,2370 C1020.0,2370 1020.0,2340 960,2340Z" stroke="#a76754" stroke-width="10" fill="none" mask="url(#bodymask)"/>
<path d="M1200,0 C1260.0,0 1260.0,-30 1320,-30 C1380.0,-30 1380.0,0 1440,0 C1380.0,0 1380.0,30 1320,30 C1260.0,30 1260.0,0 1200,0Z" stroke="#a76754" stroke-width="10" fill="none" mask="url(#bodymask)"/>
<path d="M1200,60 C1260.0,60 1260.0,30 1320,30 C1380.0,30 1380.0,60 1440,60 C1380.0,60 1380.0,90 1320,90 C1260.0,90 1260.0,60 1200,60Z" stroke="#a76754" stroke-width="10" fill="none" mask="url(#bodymask)"/>
<path d="M1200,120 C1260.0,120 1260.0,90 1320,90 C1380.0,90 1380.0,120 1440,120 C1380.0,120 1380.0,150 1320,150 C1260.0,150 1260.0,120 1200,120Z" stroke="#a76754" stroke-width="10" fill="none" mask="url(#bodymask)"/>
<path d="M1200,180 C1260.0,180 1260.0,150 1320,150 C1380.0,150 1380.0,180 1440,180 C1380.0,180 1380.0,210 1320,210 C1260.0,210 1260.0,180 1200,180Z" stroke="#a76754" stroke-width="10" fill="none" mask="url(#bodymask)"/>
<path d="M1200,240 C1260.0,240 1260.0,210 1320,210 C1380.0,210 1380.0,240 1440,240 C1380.0,240 1380.0,270 1320,270 C1260.0,270 1260.0,240 1200,240Z" stroke="#a76754" stroke-width="10" fill="none" mask="url(#bodymask)"/>
<path d="M1200,300 C1260.0,300 1260.0,270 1320,270 C1380.0,270 1380.0,300 1440,300 C1380.0,300 1380.0,330 1320,330 C1260.0,330 1260.0,300 1200,300Z" stroke="#a76754" stroke-width="10" fill="none" mask="url(#bodymask)"/>
<path d="M1200,360 C1260.0,360 1260.0,330 1320,330 C1380.0,330 1380.0,360 1440,360 C1380.0,360 1380.0,390 1320,390 C1260.0,390 1260.0,360 1200,360Z" stroke="#a76754" stroke-width="10" fill="none" mask="url(#bodymask)"/>
<path d="M1200,420 C1260.0,420 1260.0,390 1320,390 C1380.0,390 1380.0,420 1440,420 C1380.0,420 1380.0,450 1320,450 C1260.0,450 1260.0,420 1200,420Z" stroke="#a76754" stroke-width="10" fill="none" mask="url(#bodymask)"/>
<path d="M1200,480 C1260.0,480 1260.0,450 1320,450 C1380.0,450 1380.0,480 1440,480 C1380.0,480 1380.0,510 1320,510 C1260.0,510 1260.0,480 1200,480Z" stroke="#a76754" stroke-width="10" fill="none" mask="url(#bodymask)"/>
<path d="M1200,540 C1260.0,540 1260.0,510 1320,510 C1380.0,510 1380.0,540 1440,540 C1380.0,540 1380.0,570 1320,570 C1260.0,570 1260.0,540 1200,540Z" stroke="#a76754" stroke-width="10" fill="none" mask="url(#bodymask)"/>
<path d="M1200,600 C1260.0,600 1260.0,570 1320,570 C1380.0,570 1380.0,600 1440,600 C1380.0,600 1380.0,630 1320,630 C1260.0,630 1260.0,600 1200,600Z" stroke="#a76754" stroke-width="10" fill="none" mask="url(#bodymask)"/>
<path d="M1200,660 C1260.0,660 1260.0,630 1320,630 C1380.0,630 1380.0,660 1440,660 C1380.0,660 1380.0,690 1320,690 C1260.0,690 1260.0,660 1200,660Z" stroke="#a76754" stroke-width="10" fill="none" mask="url(#bodymask)"/>
<path d="M1200,720 C1260.0,720 1260.0,690 1320,690 C1380.0,690 1380.0,720 1440,720 C1380.0,720 1380.0,750 1320,750 C1260.0,750 1260.0,720 1200,720Z" stroke="#a76754" stroke-width="10" fill="none" mask="url(#bodymask)"/>
<path d="M1200,780 C1260.0,780 1260.0,750 1320,750 C1380.0,750 1380.0,780 1440,780 C1380.0,780 1380.0,810 1320,810 C1260.0,810 1260.0,780 1200,780Z" stroke="#a76754" stroke-width="10" fill="none" mask="url(#bodymask)"/>
<path d="M1200,840 C1260.0,840 1260.0,810 1320,810 C1380.0,810 1380.0,840 1440,840 C1380.0,840 1380.0,870 1320,870 C1260.0,870 1260.0,840 1200,840Z" stroke="#a76754" stroke-width="10" fill="none" mask="url(#bodymask)"/>
<path d="M1200,900 C1260.0,900 1260.0,870 1320,870 C1380.0,870 1380.0,900 1440,900 C1380.0,900 1380.0,930 1320,930 C1260.0,930 1260.0,900 1200,900Z" stroke="#a76754" stroke-width="10" fill="none" mask="url(#bodymask)"/>
<path d="M1200,960 C1260.0,960 1260.0,930 1320,930 C1380.0,930 1380.0,960 1440,960 C1380.0,960 1380.0,990 1320,990 C1260.0,990 1260.0,960 1200,960Z" stroke="#a76754" stroke-width="10" fill="none" mask="url(#bodymask)"/>
<path d="M1200,1020 C1260.0,1020 1260.0,990 1320,990 C1380.0,990 1380.0,1020 1440,1020 C1380.0,1020 1380.0,1050 1320,1050 C1260.0,1050 1260.0,1020 1200,1020Z" stroke="#a76754" stroke-width="10" fill="none" mask="url(#bodymask)"/>
<path d="M1200,1080 C1260.0,1080 1260.0,1050 1320,1050 C1380.0,1050 1380.0,1080 1440,1080 C1380.0,1080 1380.0,1110 1320,1110 C1260.0,1110 1260.0,1080 1200,1080Z" stroke="#a76754" stroke-width="10" fill="none" mask="url(#bodymask)"/>
<path d="M1200,1140 C1260.0,1140 1260.0,1110 1320,1110 C1380.0,1110 1380.0,1140 1440,1140 C1380.0,1140 1380.0,1170 1320,1170 C1260.0,1170 1260.0,1140 1200,1140Z" stroke="#a76754" stroke-width="10" fill="none" mask="url(#bodymask)"/>
<path d="M1200,1200 C1260.0,1200 1260.0,1170 1320,1170 C1380.0,1170 1380.0,1200 1440,1200 C1380.0,1200 1380.0,1230 1320,1230 C1260.0,1230 1260.0,1200 1200,1200Z" stroke="#a76754" stroke-width="10" fill="none" mask="url(#bodymask)"/>
<path d="M1200,1260 C1260.0,1260 1260.0,1230 1320,1230 C1380.0,1230 1380.0,1260 1440,1260 C1380.0,1260 1380.0,1290 1320,1290 C1260.0,1290 1260.0,1260 1200,1260Z" stroke="#a76754" stroke-width="10" fill="none" mask="url(#bodymask)"/>
<path d="M1200,1320 C1260.0,1320 1260.0,1290 1320,1290 C1380.0,1290 1380.0,1320 1440,1320 C1380.0,1320 1380.0,1350 1320,1350 C1260.0,1350 1260.0,1320 1200,1320Z" stroke="#a76754" stroke-width="10" fill="none" mask="url(#bodymask)"/>
<path d="M1200,1380 C1260.0,1380 1260.0,1350 1320,1350 C1380.0,1350 1380.0,1380 1440,1380 C1380.0,1380 1380.0,1410 1320,1410 C1260.0,1410 1260.0,1380 1200,1380Z" stroke="#a76754" stroke-width="10" fill="none" mask="url(#bodymask)"/>
<path d="M1200,1440 C1260.0,1440 1260.0,1410 1320,1410 C1380.0,1410 1380.0,1440 1440,1440 C1380.0,1440 1380.0,1470 1320,1470 C1260.0,1470 1260.0,1440 1200,1440Z" stroke="#a76754" stroke-width="10" fill="none" mask="url(#bodymask)"/>
<path d="M1200,1500 C1260.0,1500 1260.0,1470 1320,1470 C1380.0,1470 1380.0,1500 1440,1500 C1380.0,1500 1380.0,1530 1320,1530 C1260.0,1530 1260.0,1500 1200,1500Z" stroke="#a76754" stroke-width="10" fill="none" mask="url(#bodymask)"/>
<path d="M1200,1560 C1260.0,1560 1260.0,1530 1320,1530 C1380.0,1530 1380.0,1560 1440,1560 C1380.0,1560 1380.0,1590 1320,1590 C1260.0,1590 1260.0,1560 1200,1560Z" stroke="#a76754" stroke-width="10" fill="none" mask="url(#bodymask)"/>
<path d="M1200,1620 C1260.0,1620 1260.0,1590 1320,1590 C1380.0,1590 1380.0,1620 1440,1620 C1380.0,1620 1380.0,1650 1320,1650 C1260.0,1650 1260.0,1620 1200,1620Z" stroke="#a76754" stroke-width="10" fill="none" mask="url(#bodymask)"/>
<path d="M1200,1680 C1260.0,1680 1260.0,1650 1320,1650 C1380.0,1650 1380.0,1680 1440,1680 C1380.0,1680 1380.0,1710 1320,1710 C1260.0,1710 1260.0,1680 1200,1680Z" stroke="#a76754" stroke-width="10" fill="none" mask="url(#bodymask)"/>
<path d="M1200,1740 C1260.0,1740 1260.0,1710 1320,1710 C1380.0,1710 1380.0,1740 1440,1740 C1380.0,1740 1380.0,1770 1320,1770 C1260.0,1770 1260.0,1740 1200,1740Z" stroke="#a76754" stroke-width="10" fill="none" mask="url(#bodymask)"/>
<path d="M1200,1800 C1260.0,1800 1260.0,1770 1320,1770 C1380.0,1770 1380.0,1800 1440,1800 C1380.0,1800 1380.0,1830 1320,1830 C1260.0,1830 1260.0,1800 1200,1800Z" stroke="#a76754" stroke-width="10" fill="none" mask="url(#bodymask)"/>
<path d="M1200,1860 C1260.0,1860 1260.0,1830 1320,1830 C1380.0,1830 1380.0,1860 1440,1860 C1380.0,1860 1380.0,1890 1320,1890 C1260.0,1890 1260.0,1860 1200,1860Z" stroke="#a76754" stroke-width="10" fill="none" mask="url(#bodymask)"/>
<path d="M1200,1920 C1260.0,1920 1260.0,1890 1320,1890 C1380.0,1890 1380.0,1920 1440,1920 C1380.0,1920 1380.0,1950 1320,1950 C1260.0,1950 1260.0,1920 1200,1920Z" stroke="#a76754" stroke-width="10" fill="none" mask="url(#bodymask)"/>
<path d="M1200,1980 C1260.0,1980 1260.0,1950 1320,1950 C1380.0,1950 1380.0,1980 1440,1980 C1380.0,1980 1380.0,2010 1320,2010 C1260.0,2010 1260.0,1980 1200,1980Z" stroke="#a76754" stroke-width="10" fill="none" mask="url(#bodymask)"/>
<path d="M1200,2040 C1260.0,2040 1260.0,2010 1320,2010 C1380.0,2010 1380.0,2040 1440,2040 C1380.0,2040 1380.0,2070 1320,2070 C1260.0,2070 1260.0,2040 1200,2040Z" stroke="#a76754" stroke-width="10" fill="none" mask="url(#bodymask)"/>
<path d="M1200,2100 C1260.0,2100 1260.0,2070 1320,2070 C1380.0,2070 1380.0,2100 1440,2100 C1380.0,2100 1380.0,2130 1320,2130 C1260.0,2130 1260.0,2100 1200,2100Z" stroke="#a76754" stroke-width="10" fill="none" mask="url(#bodymask)"/>
<path d="M1200,2160 C1260.0,2160 1260.0,2130 1320,2130 C1380.0,2130 1380.0,2160 1440,2160 C1380.0,2160 1380.0,2190 1320,2190 C1260.0,2190 1260.0,2160 1200,2160Z" stroke="#a76754" stroke-width="10" fill="none" mask="url(#bodymask)"/>
<path d="M1200,2220 C1260.0,2220 1260.0,2190 1320,2190 C1380.0,2190 1380.0,2220 1440,2220 C1380.0,2220 1380.0,2250 1320,2250 C1260.0,2250 1260.0,2220 1200,2220Z" stroke="#a76754" stroke-width="10" fill="none" mask="url(#bodymask)"/>
<path d="M1200,2280 C1260.0,2280 1260.0,2250 1320,2250 C1380.0,2250 1380.0,2280 1440,2280 C1380.0,2280 1380.0,2310 1320,2310 C1260.0,2310 1260.0,2280 1200,2280Z" stroke="#a76754" stroke-width="10" fill="none" mask="url(#bodymask)"/>
<path d="M1200,2340 C1260.0,2340 1260.0,2310 1320,2310 C1380.0,2310 1380.0,2340 1440,2340 C1380.0,2340 1380.0,2370 1320,2370 C1260.0,2370 1260.0,2340 1200,2340Z" stroke="#a76754" stroke-width="10" fill="none" mask="url(#bodymask)"/>
<path d="M1440,0 C1500.0,0 1500.0,-30 1560,-30 C1620.0,-30 1620.0,0 1680,0 C1620.0,0 1620.0,30 1560,30 C1500.0,30 1500.0,0 1440,0Z" stroke="#a76754" stroke-width="10" fill="none" mask="url(#bodymask)"/>
<path d="M1440,60 C1500.0,60 1500.0,30 1560,30 C1620.0,30 1620.0,60 1680,60 C1620.0,60 1620.0,90 1560,90 C1500.0,90 1500.0,60 1440,60Z" stroke="#a76754" stroke-width="10" fill="none" mask="url(#bodymask)"/>
<path d="M1440,120 C1500.0,120 1500.0,90 1560,90 C1620.0,90 1620.0,120 1680,120 C1620.0,120 1620.0,150 1560,150 C1500.0,150 1500.0,120 1440,120Z" stroke="#a76754" stroke-width="10" fill="none" mask="url(#bodymask)"/>
<path d="M1440,180 C1500.0,180 1500.0,150 1560,150 C1620.0,150 1620.0,180 1680,180 C1620.0,180 1620.0,210 1560,210 C1500.0,210 1500.0,180 1440,180Z" stroke="#a76754" stroke-width="10" fill="none" mask="url(#bodymask)"/>
<path d="M1440,240 C1500.0,240 1500.0,210 1560,210 C1620.0,210 1620.0,240 1680,240 C1620.0,240 1620.0,270 1560,270 C1500.0,270 1500.0,240 1440,240Z" stroke="#a76754" stroke-width="10" fill="none" mask="url(#bodymask)"/>
<path d="M1440,300 C1500.0,300 1500.0,270 1560,270 C1620.0,270 1620.0,300 1680,300 C1620.0,300 1620.0,330 1560,330 C1500.0,330 1500.0,300 1440,300Z" stroke="#a76754" stroke-width="10" fill="none" mask="url(#bodymask)"/>
<path d="M1440,360 C1500.0,360 1500.0,330 1560,330 C1620.0,330 1620.0,360 1680,360 C1620.0,360 1620.0,390 1560,390 C1500.0,390 1500.0,360 1440,360Z" stroke="#a76754" stroke-width="10" fill="none" mask="url(#bodymask)"/>
<path d="M1440,420 C1500.0,420 1500.0,390 1560,390 C1620.0,390 1620.0,420 1680,420 C1620.0,420 1620.0,450 1560,450 C1500.0,450 1500.0,420 1440,420Z" stroke="#a76754" stroke-width="10" fill="none" mask="url(#bodymask)"/>
<path d="M1440,480 C1500.0,480 1500.0,450 1560,450 C1620.0,450 1620.0,480 1680,480 C1620.0,480 1620.0,510 1560,510 C1500.0,510 1500.0,480 1440,480Z" stroke="#a76754" stroke-width="10" fill="none" mask="url(#bodymask)"/>
<path d="M1440,540 C1500.0,540 1500.0,510 1560,510 C1620.0,510 1620.0,540 1680,540 C1620.0,540 1620.0,570 1560,570 C1500.0,570 1500.0,540 1440,540Z" stroke="#a76754" stroke-width="10" fill="none" mask="url(#bodymask)"/>
<path d="M1440,600 C1500.0,600 1500.0,570 1560,570 C1620.0,570 1620.0,600 1680,600 C1620.0,600 1620.0,630 1560,630 C1500.0,630 1500.0,600 1440,600Z" stroke="#a76754" stroke-width="10" fill="none" mask="url(#bodymask)"/>
<path d="M1440,660 C1500.0,660 1500.0,630 1560,630 C1620.0,630 1620.0,660 1680,660 C1620.0,660 1620.0,690 1560,690 C1500.0,690 1500.0,660 1440,660Z" stroke="#a76754" stroke-width="10" fill="none" mask="url(#bodymask)"/>
<path d="M1440,720 C1500.0,720 1500.0,690 1560,690 C1620.0,690 1620.0,720 1680,720 C1620.0,720 1620.0,750 1560,750 C1500.0,750 1500.0,720 1440,720Z" stroke="#a76754" stroke-width="10" fill="none" mask="url(#bodymask)"/>
<path d="M1440,780 C1500.0,780 1500.0,750 1560,750 C1620.0,750 1620.0,780 1680,780 C1620.0,780 1620.0,810 1560,810 C1500.0,810 1500.0,780 1440,780Z" stroke="#a76754" stroke-width="10" fill="none" mask="url(#bodymask)"/>
<path d="M1440,840 C1500.0,840 1500.0,810 1560,810 C1620.0,810 1620.0,840 1680,840 C1620.0,840 1620.0,870 1560,870 C1500.0,870 1500.0,840 1440,840Z" stroke="#a76754" stroke-width="10" fill="none" mask="url(#bodymask)"/>
<path d="M1440,900 C1500.0,900 1500.0,870 1560,870 C1620.0,870 1620.0,900 1680,900 C1620.0,900 1620.0,930 1560,930 C1500.0,930 1500.0,900 1440,900Z" stroke="#a76754" stroke-width="10" fill="none" mask="url(#bodymask)"/>
<path d="M1440,960 C1500.0,960 1500.0,930 1560,930 C1620.0,930 1620.0,960 1680,960 C1620.0,960 1620.0,990 1560,990 C1500.0,990 1500.0,960 1440,960Z" stroke="#a76754" stroke-width="10" fill="none" mask="url(#bodymask)"/>
<path d="M1440,1020 C1500.0,1020 1500.0,990 1560,990 C1620.0,990 1620.0,1020 1680,1020 C1620.0,1020 1620.0,1050 1560,1050 C1500.0,1050 1500.0,1020 1440,1020Z" stroke="#a76754" stroke-width="10" fill="none" mask="url(#bodymask)"/>
<path d="M1440,1080 C1500.0,1080 1500.0,1050 1560,1050 C1620.0,1050 1620.0,1080 1680,1080 C1620.0,1080 1620.0,1110 1560,1110 C1500.0,1110 1500.0,1080 1440,1080Z" stroke="#a76754" stroke-width="10" fill="none" mask="url(#bodymask)"/>
<path d="M1440,1140 C1500.0,1140 1500.0,1110 1560,1110 C1620.0,1110 1620.0,1140 1680,1140 C1620.0,1140 1620.0,1170 1560,1170 C1500.0,1170 1500.0,1140 1440,1140Z" stroke="#a76754" stroke-width="10" fill="none" mask="url(#bodymask)"/>
<path d="M1440,1200 C1500.0,1200 1500.0,1170 1560,1170 C1620.0,1170 1620.0,1200 1680,1200 C1620.0,1200 1620.0,1230 1560,1230 C1500.0,1230 1500.0,1200 1440,1200Z" stroke="#a76754" stroke-width="10" fill="none" mask="url(#bodymask)"/>
<path d="M1440,1260 C1500.0,1260 1500.0,1230 1560,1230 C1620.0,1230 1620.0,1260 1680,1260 C1620.0,1260 1620.0,1290 1560,1290 C1500.0,1290 1500.0,1260 1440,1260Z" stroke="#a76754" stroke-width="10" fill="none" mask="url(#bodymask)"/>
<path d="M1440,1320 C1500.0,1320 1500.0,1290 1560,1290 C1620.0,1290 1620.0,1320 1680,1320 C1620.0,1320 1620.0,1350 1560,1350 C1500.0,1350 1500.0,1320 1440,1320Z" stroke="#a76754" stroke-width="10" fill="none" mask="url(#bodymask)"/>
<path d="M1440,1380 C1500.0,1380 1500.0,1350 1560,1350 C1620.0,1350 1620.0,1380 1680,1380 C1620.0,1380 1620.0,1410 1560,1410 C1500.0,1410 1500.0,1380 1440,1380Z" stroke="#a76754" stroke-width="10" fill="none" mask="url(#bodymask)"/>
<path d="M1440,1440 C1500.0,1440 1500.0,1410 1560,1410 C1620.0,1410 1620.0,1440 1680,1440 C1620.0,1440 1620.0,1470 1560,1470 C1500.0,1470 1500.0,1440 1440,1440Z" stroke="#a76754" stroke-width="10" fill="none" mask="url(#bodymask)"/>
<path d="M1440,1500 C1500.0,1500 1500.0,1470 1560,1470 C1620.0,1470 1620.0,1500 1680,1500 C1620.0,1500 1620.0,1530 1560,1530 C1500.0,1530 1500.0,1500 1440,1500Z" stroke="#a76754" stroke-width="10" fill="none" mask="url(#bodymask)"/>
<path d="M1440,1560 C1500.0,1560 1500.0,1530 1560,1530 C1620.0,1530 1620.0,1560 1680,1560 C1620.0,1560 1620.0,1590 1560,1590 C1500.0,1590 1500.0,1560 1440,1560Z" stroke="#a76754" stroke-width="10" fill="none" mask="url(#bodymask)"/>
<path d="M1440,1620 C1500.0,1620 1500.0,1590 1560,1590 C1620.0,1590 1620.0,1620 1680,1620 C1620.0,1620 1620.0,1650 1560,1650 C1500.0,1650 1500.0,1620 1440,1620Z" stroke="#a76754" stroke-width="10" fill="none" mask="url(#bodymask)"/>
<path d="M1440,1680 C1500.0,1680 1500.0,1650 1560,1650 C1620.0,1650 1620.0,1680 1680,1680 C1620.0,1680 1620.0,1710 1560,1710 C1500.0,1710 1500.0,1680 1440,1680Z" stroke="#a76754" stroke-width="10" fill="none" mask="url(#bodymask)"/>
<path d="M1440,1740 C1500.0,1740 1500.0,1710 1560,1710 C1620.0,1710 1620.0,1740 1680,1740 C1620.0,1740 1620.0,1770 1560,1770 C1500.0,1770 1500.0,1740 1440,1740Z" stroke="#a76754" stroke-width="10" fill="none" mask="url(#bodymask)"/>
<path d="M1440,1800 C1500.0,1800 1500.0,1770 1560,1770 C1620.0,1770 1620.0,1800 1680,1800 C1620.0,1800 1620.0,1830 1560,1830 C1500.0,1830 1500.0,1800 1440,1800Z" stroke="#a76754" stroke-width="10" fill="none" mask="url(#bodymask)"/>
<path d="M1440,1860 C1500.0,1860 1500.0,1830 1560,1830 C1620.0,1830 1620.0,1860 1680,1860 C1620.0,1860 1620.0,1890 1560,1890 C1500.0,1890 1500.0,1860 1440,1860Z" stroke="#a76754" stroke-width="10" fill="none" mask="url(#bodymask)"/>
<path d="M1440,1920 C1500.0,1920 1500.0,1890 1560,1890 C1620.0,1890 1620.0,1920 1680,1920 C1620.0,1920 1620.0,1950 1560,1950 C1500.0,1950 1500.0,1920 1440,1920Z" stroke="#a76754" stroke-width="10" fill="none" mask="url(#bodymask)"/>
<path d="M1440,1980 C1500.0,1980 1500.0,1950 1560,1950 C1620.0,1950 1620.0,1980 1680,1980 C1620.0,1980 1620.0,2010 1560,2010 C1500.0,2010 1500.0,1980 1440,1980Z" stroke="#a76754" stroke-width="10" fill="none" mask="url(#bodymask)"/>
<path d="M1440,2040 C1500.0,2040 1500.0,2010 1560,2010 C1620.0,2010 1620.0,2040 1680,2040 C1620.0,2040 1620.0,2070 1560,2070 C1500.0,2070 1500.0,2040 1440,2040Z" stroke="#a76754" stroke-width="10" fill="none" mask="url(#bodymask)"/>
<path d="M1440,2100 C1500.0,2100 1500.0,2070 1560,2070 C1620.0,2070 1620.0,2100 1680,2100 C1620.0,2100 1620.0,2130 1560,2130 C1500.0,2130 1500.0,2100 1440,2100Z" stroke="#a76754" stroke-width="10" fill="none" mask="url(#bodymask)"/>
<path d="M1440,2160 C1500.0,2160 1500.0,2130 1560,2130 C1620.0,2130 1620.0,2160 1680,2160 C1620.0,2160 1620.0,2190 1560,2190 C1500.0,2190 1500.0,2160 1440,2160Z" stroke="#a76754" stroke-width="10" fill="none" mask="url(#bodymask)"/>
<path d="M1440,2220 C1500.0,2220 1500.0,2190 1560,2190 C1620.0,2190 1620.0,2220 1680,2220 C1620.0,2220 1620.0,2250 1560,2250 C1500.0,2250 1500.0,2220 1440,2220Z" stroke="#a76754" stroke-width="10" fill="none" mask="url(#bodymask)"/>
<path d="M1440,2280 C1500.0,2280 1500.0,2250 1560,2250 C1620.0,2250 1620.0,2280 1680,2280 C1620.0,2280 1620.0,2310 1560,2310 C1500.0,2310 1500.0,2280 1440,2280Z" stroke="#a76754" stroke-width="10" fill="none" mask="url(#bodymask)"/>
<path d="M1440,2340 C1500.0,2340 1500.0,2310 1560,2310 C1620.0,2310 1620.0,2340 1680,2340 C1620.0,2340 1620.0,2370 1560,2370 C1500.0,2370 1500.0,2340 1440,2340Z" stroke="#a76754" stroke-width="10" fill="none" mask="url(#bodymask)"/>
<path d="M1680,0 C1740.0,0 1740.0,-30 1800,-30 C1860.0,-30 1860.0,0 1920,0 C1860.0,0 1860.0,30 1800,30 C1740.0,30 1740.0,0 1680,0Z" stroke="#a76754" stroke-width="10" fill="none" mask="url(#bodymask)"/>
<path d="M1680,60 C1740.0,60 1740.0,30 1800,30 C1860.0,30 1860.0,60 1920,60 C1860.0,60 1860.0,90 1800,90 C1740.0,90 1740.0,60 1680,60Z" stroke="#a76754" stroke-width="10" fill="none" mask="url(#bodymask)"/>
<path d="M1680,120 C1740.0,120 1740.0,90 1800,90 C1860.0,90 1860.0,120 1920,120 C1860.0,120 1860.0,150 1800,150 C1740.0,150 1740.0,120 1680,120Z" stroke="#a76754" stroke-width="10" fill="none" mask="url(#bodymask)"/>
<path d="M1680,180 C1740.0,180 1740.0,150 1800,150 C1860.0,150 1860.0,180 1920,180 C1860.0,180 1860.0,210 1800,210 C1740.0,210 1740.0,180 1680,180Z" stroke="#a76754" stroke-width="10" fill="none" mask="url(#bodymask)"/>
<path d="M1680,240 C1740.0,240 1740.0,210 1800,210 C1860.0,210 1860.0,240 1920,240 C1860.0,240 1860.0,270 1800,270 C1740.0,270 1740.0,240 1680,240Z" stroke="#a76754" stroke-width="10" fill="none" mask="url(#bodymask)"/>
<path d="M1680,300 C1740.0,300 1740.0,270 1800,270 C1860.0,270 1860.0,300 1920,300 C1860.0,300 1860.0,330 1800,330 C1740.0,330 1740.0,300 1680,300Z" stroke="#a76754" stroke-width="10" fill="none" mask="url(#bodymask)"/>
<path d="M1680,360 C1740.0,360 1740.0,330 1800,330 C1860.0,330 1860.0,360 1920,360 C1860.0,360 1860.0,390 1800,390 C1740.0,390 1740.0,360 1680,360Z" stroke="#a76754" stroke-width="10" fill="none" mask="url(#bodymask)"/>
<path d="M1680,420 C1740.0,420 1740.0,390 1800,390 C1860.0,390 1860.0,420 1920,420 C1860.0,420 1860.0,450 1800,450 C1740.0,450 1740.0,420 1680,420Z" stroke="#a76754" stroke-width="10" fill="none" mask="url(#bodymask)"/>
<path d="M1680,480 C1740.0,480 1740.0,450 1800,450 C1860.0,450 1860.0,480 1920,480 C1860.0,480 1860.0,510 1800,510 C1740.0,510 1740.0,480 1680,480Z" stroke="#a76754" stroke-width="10" fill="none" mask="url(#bodymask)"/>
<path d="M1680,540 C1740.0,540 1740.0,510 1800,510 C1860.0,510 1860.0,540 1920,540 C1860.0,540 1860.0,570 1800,570 C1740.0,570 1740.0,540 1680,540Z" stroke="#a76754" stroke-width="10" fill="none" mask="url(#bodymask)"/>
<path d="M1680,600 C1740.0,600 1740.0,570 1800,570 C1860.0,570 1860.0,600 1920,600 C1860.0,600 1860.0,630 1800,630 C1740.0,630 1740.0,600 1680,600Z" stroke="#a76754" stroke-width="10" fill="none" mask="url(#bodymask)"/>
<path d="M1680,660 C1740.0,660 1740.0,630 1800,630 C1860.0,630 1860.0,660 1920,660 C1860.0,660 1860.0,690 1800,690 C1740.0,690 1740.0,660 1680,660Z" stroke="#a76754" stroke-width="10" fill="none" mask="url(#bodymask)"/>
<path d="M1680,720 C1740.0,720 1740.0,690 1800,690 C1860.0,690 1860.0,720 1920,720 C1860.0,720 1860.0,750 1800,750 C1740.0,750 1740.0,720 1680,720Z" stroke="#a76754" stroke-width="10" fill="none" mask="url(#bodymask)"/>
<path d="M1680,780 C1740.0,780 1740.0,750 1800,750 C1860.0,750 1860.0,780 1920,780 C1860.0,780 1860.0,810 1800,810 C1740.0,810 1740.0,780 1680,780Z" stroke="#a76754" stroke-width="10" fill="none" mask="url(#bodymask)"/>
<path d="M1680,840 C1740.0,840 1740.0,810 1800,810 C1860.0,810 1860.0,840 1920,840 C1860.0,840 1860.0,870 1800,870 C1740.0,870 1740.0,840 1680,840Z" stroke="#a76754" stroke-width="10" fill="none" mask="url(#bodymask)"/>
<path d="M1680,900 C1740.0,900 1740.0,870 1800,870 C1860.0,870 1860.0,900 1920,900 C1860.0,900 1860.0,930 1800,930 C1740.0,930 1740.0,900 1680,900Z" stroke="#a76754" stroke-width="10" fill="none" mask="url(#bodymask)"/>
<path d="M1680,960 C1740.0,960 1740.0,930 1800,930 C1860.0,930 1860.0,960 1920,960 C1860.0,960 1860.0,990 1800,990 C1740.0,990 1740.0,960 1680,960Z" stroke="#a76754" stroke-width="10" fill="none" mask="url(#bodymask)"/>
<path d="M1680,1020 C1740.0,1020 1740.0,990 1800,990 C1860.0,990 1860.0,1020 1920,1020 C1860.0,1020 1860.0,1050 1800,1050 C1740.0,1050 1740.0,1020 1680,1020Z" stroke="#a76754" stroke-width="10" fill="none" mask="url(#bodymask)"/>
<path d="M1680,1080 C1740.0,1080 1740.0,1050 1800,1050 C1860.0,1050 1860.0,1080 1920,1080 C1860.0,1080 1860.0,1110 1800,1110 C1740.0,1110 1740.0,1080 1680,1080Z" stroke="#a76754" stroke-width="10" fill="none" mask="url(#bodymask)"/>
<path d="M1680,1140 C1740.0,1140 1740.0,1110 1800,1110 C1860.0,1110 1860.0,1140 1920,1140 C1860.0,1140 1860.0,1170 1800,1170 C1740.0,1170 1740.0,1140 1680,1140Z" stroke="#a76754" stroke-width="10" fill="none" mask="url(#bodymask)"/>
<path d="M1680,1200 C1740.0,1200 1740.0,1170 1800,1170 C1860.0,1170 1860.0,1200 1920,1200 C1860.0,1200 1860.0,1230 1800,1230 C1740.0,1230 1740.0,1200 1680,1200Z" stroke="#a76754" stroke-width="10" fill="none" mask="url(#bodymask)"/>
<path d="M1680,1260 C1740.0,1260 1740.0,1230 1800,1230 C1860.0,1230 1860.0,1260 1920,1260 C1860.0,1260 1860.0,1290 1800,1290 C1740.0,1290 1740.0,1260 1680,1260Z" stroke="#a76754" stroke-width="10" fill="none" mask="url(#bodymask)"/>
<path d="M1680,1320 C1740.0,1320 1740.0,1290 1800,1290 C1860.0,1290 1860.0,1320 1920,1320 C1860.0,1320 1860.0,1350 1800,1350 C1740.0,1350 1740.0,1320 1680,1320Z" stroke="#a76754" stroke-width="10" fill="none" mask="url(#bodymask)"/>
<path d="M1680,1380 C1740.0,1380 1740.0,1350 1800,1350 C1860.0,1350 1860.0,1380 1920,1380 C1860.0,1380 1860.0,1410 1800,1410 C1740.0,1410 1740.0,1380 1680,1380Z" stroke="#a76754" stroke-width="10" fill="none" mask="url(#bodymask)"/>
<path d="M1680,1440 C1740.0,1440 1740.0,1410 1800,1410 C1860.0,1410 1860.0,1440 1920,1440 C1860.0,1440 1860.0,1470 1800,1470 C1740.0,1470 1740.0,1440 1680,1440Z" stroke="#a76754" stroke-width="10" fill="none" mask="url(#bodymask)"/>
<path d="M1680,1500 C1740.0,1500 1740.0,1470 1800,1470 C1860.0,1470 1860.0,1500 1920,1500 C1860.0,1500 1860.0,1530 1800,1530 C1740.0,1530 1740.0,1500 1680,1500Z" stroke="#a76754" stroke-width="10" fill="none" mask="url(#bodymask)"/>
<path d="M1680,1560 C1740.0,1560 1740.0,1530 1800,1530 C1860.0,1530 1860.0,1560 1920,1560 C1860.0,1560 1860.0,1590 1800,1590 C1740.0,1590 1740.0,1560 1680,1560Z" stroke="#a76754" stroke-width="10" fill="none" mask="url(#bodymask)"/>
<path d="M1680,1620 C1740.0,1620 1740.0,1590 1800,1590 C1860.0,1590 1860.0,1620 1920,1620 C1860.0,1620 1860.0,1650 1800,1650 C1740.0,1650 1740.0,1620 1680,1620Z" stroke="#a76754" stroke-width="10" fill="none" mask="url(#bodymask)"/>
<path d="M1680,1680 C1740.0,1680 1740.0,1650 1800,1650 C1860.0,1650 1860.0,1680 1920,1680 C1860.0,1680 1860.0,1710 1800,1710 C1740.0,1710 1740.0,1680 1680,1680Z" stroke="#a76754" stroke-width="10" fill="none" mask="url(#bodymask)"/>
<path d="M1680,1740 C1740.0,1740 1740.0,1710 1800,1710 C1860.0,1710 1860.0,1740 1920,1740 C1860.0,1740 1860.0,1770 1800,1770 C1740.0,1770 1740.0,1740 1680,1740Z" stroke="#a76754" stroke-width="10" fill="none" mask="url(#bodymask)"/>
<path d="M1680,1800 C1740.0,1800 1740.0,1770 1800,1770 C1860.0,1770 1860.0,1800 1920,1800 C1860.0,1800 1860.0,1830 1800,1830 C1740.0,1830 1740.0,1800 1680,1800Z" stroke="#a76754" stroke-width="10" fill="none" mask="url(#bodymask)"/>
<path d="M1680,1860 C1740.0,1860 1740.0,1830 1800,1830 C1860.0,1830 1860.0,1860 1920,1860 C1860.0,1860 1860.0,1890 1800,1890 C1740.0,1890 1740.0,1860 1680,1860Z" stroke="#a76754" stroke-width="10" fill="none" mask="url(#bodymask)"/>
<path d="M1680,1920 C1740.0,1920 1740.0,1890 1800,1890 C1860.0,1890 1860.0,1920 1920,1920 C1860.0,1920 1860.0,1950 1800,1950 C1740.0,1950 1740.0,1920 1680,1920Z" stroke="#a76754" stroke-width="10" fill="none" mask="url(#bodymask)"/>
<path d="M1680,1980 C1740.0,1980 1740.0,1950 1800,1950 C1860.0,1950 1860.0,1980 1920,1980 C1860.0,1980 1860.0,2010 1800,2010 C1740.0,2010 1740.0,1980 1680,1980Z" stroke="#a76754" stroke-width="10" fill="none" mask="url(#bodymask)"/>
<path d="M1680,2040 C1740.0,2040 1740.0,2010 1800,2010 C1860.0,2010 1860.0,2040 1920,2040 C1860.0,2040 1860.0,2070 1800,2070 C1740.0,2070 1740.0,2040 1680,2040Z" stroke="#a76754" stroke-width="10" fill="none" mask="url(#bodymask)"/>
<path d="M1680,2100 C1740.0,2100 1740.0,2070 1800,2070 C1860.0,2070 1860.0,2100 1920,2100 C1860.0,2100 1860.0,2130 1800,2130 C1740.0,2130 1740.0,2100 1680,2100Z" stroke="#a76754" stroke-width="10" fill="none" mask="url(#bodymask)"/>
<path d="M1680,2160 C1740.0,2160 1740.0,2130 1800,2130 C1860.0,2130 1860.0,2160 1920,2160 C1860.0,2160 1860.0,2190 1800,2190 C1740.0,2190 1740.0,2160 1680,2160Z" stroke="#a76754" stroke-width="10" fill="none" mask="url(#bodymask)"/>
<path d="M1680,2220 C1740.0,2220 1740.0,2190 1800,2190 C1860.0,2190 1860.0,2220 1920,2220 C1860.0,2220 1860.0,2250 1800,2250 C1740.0,2250 1740.0,2220 1680,2220Z" stroke="#a76754" stroke-width="10" fill="none" mask="url(#bodymask)"/>
<path d="M1680,2280 C1740.0,2280 1740.0,2250 1800,2250 C1860.0,2250 1860.0,2280 1920,2280 C1860.0,2280 1860.0,2310 1800,2310 C1740.0,2310 1740.0,2280 1680,2280Z" stroke="#a76754" stroke-width="10" fill="none" mask="url(#bodymask)"/>
<path d="M1680,2340 C1740.0,2340 1740.0,2310 1800,2310 C1860.0,2310 1860.0,2340 1920,2340 C1860.0,2340 1860.0,2370 1800,2370 C1740.0,2370 1740.0,2340 1680,2340Z" stroke="#a76754" stroke-width="10" fill="none" mask="url(#bodymask)"/>
<path d="M1920,0 C1980.0,0 1980.0,-30 2040,-30 C2100.0,-30 2100.0,0 2160,0 C2100.0,0 2100.0,30 2040,30 C1980.0,30 1980.0,0 1920,0Z" stroke="#a76754" stroke-width="10" fill="none" mask="url(#bodymask)"/>
<path d="M1920,60 C1980.0,60 1980.0,30 2040,30 C2100.0,30 2100.0,60 2160,60 C2100.0,60 2100.0,90 2040,90 C1980.0,90 1980.0,60 1920,60Z" stroke="#a76754" stroke-width="10" fill="none" mask="url(#bodymask)"/>
<path d="M1920,120 C1980.0,120 1980.0,90 2040,90 C2100.0,90 2100.0,120 2160,120 C2100.0,120 2100.0,150 2040,150 C1980.0,150 1980.0,120 1920,120Z" stroke="#a76754" stroke-width="10" fill="none" mask="url(#bodymask)"/>
<path d="M1920,180 C1980.0,180 1980.0,150 2040,150 C2100.0,150 2100.0,180 2160,180 C2100.0,180 2100.0,210 2040,210 C1980.0,210 1980.0,180 1920,180Z" stroke="#a76754" stroke-width="10" fill="none" mask="url(#bodymask)"/>
<path d="M1920,240 C1980.0,240 1980.0,210 2040,210 C2100.0,210 2100.0,240 2160,240 C2100.0,240 2100.0,270 2040,270 C1980.0,270 1980.0,240 1920,240Z" stroke="#a76754" stroke-width="10" fill="none" mask="url(#bodymask)"/>
<path d="M1920,300 C1980.0,300 1980.0,270 2040,270 C2100.0,270 2100.0,300 2160,300 C2100.0,300 2100.0,330 2040,330 C1980.0,330 1980.0,300 1920,300Z" stroke="#a76754" stroke-width="10" fill="none" mask="url(#bodymask)"/>
<path d="M1920,360 C1980.0,360 1980.0,330 2040,330 C2100.0,330 2100.0,360 2160,360 C2100.0,360 2100.0,390 2040,390 C1980.0,390 1980.0,360 1920,360Z" stroke="#a76754" stroke-width="10" fill="none" mask="url(#bodymask)"/>
<path d="M1920,420 C1980.0,420 1980.0,390 2040,390 C2100.0,390 2100.0,420 2160,420 C2100.0,420 2100.0,450 2040,450 C1980.0,450 1980.0,420 1920,420Z" stroke="#a76754" stroke-width="10" fill="none" mask="url(#bodymask)"/>
<path d="M1920,480 C1980.0,480 1980.0,450 2040,450 C2100.0,450 2100.0,480 2160,480 C2100.0,480 2100.0,510 2040,510 C1980.0,510 1980.0,480 1920,480Z" stroke="#a76754" stroke-width="10" fill="none" mask="url(#bodymask)"/>
<path d="M1920,540 C1980.0,540 1980.0,510 2040,510 C2100.0,510 2100.0,540 2160,540 C2100.0,540 2100.0,570 2040,570 C1980.0,570 1980.0,540 1920,540Z" stroke="#a76754" stroke-width="10" fill="none" mask="url(#bodymask)"/>
<path d="M1920,600 C1980.0,600 1980.0,570 2040,570 C2100.0,570 2100.0,600 2160,600 C2100.0,600 2100.0,630 2040,630 C1980.0,630 1980.0,600 1920,600Z" stroke="#a76754" stroke-width="10" fill="none" mask="url(#bodymask)"/>
<path d="M1920,660 C1980.0,660 1980.0,630 2040,630 C2100.0,630 2100.0,660 2160,660 C2100.0,660 2100.0,690 2040,690 C1980.0,690 1980.0,660 1920,660Z" stroke="#a76754" stroke-width="10" fill="none" mask="url(#bodymask)"/>
<path d="M1920,720 C1980.0,720 1980.0,690 2040,690 C2100.0,690 2100.0,720 2160,720 C2100.0,720 2100.0,750 2040,750 C1980.0,750 1980.0,720 1920,720Z" stroke="#a76754" stroke-width="10" fill="none" mask="url(#bodymask)"/>
<path d="M1920,780 C1980.0,780 1980.0,750 2040,750 C2100.0,750 2100.0,780 2160,780 C2100.0,780 2100.0,810 2040,810 C1980.0,810 1980.0,780 1920,780Z" stroke="#a76754" stroke-width="10" fill="none" mask="url(#bodymask)"/>
<path d="M1920,840 C1980.0,840 1980.0,810 2040,810 C2100.0,810 2100.0,840 2160,840 C2100.0,840 2100.0,870 2040,870 C1980.0,870 1980.0,840 1920,840Z" stroke="#a76754" stroke-width="10" fill="none" mask="url(#bodymask)"/>
<path d="M1920,900 C1980.0,900 1980.0,870 2040,870 C2100.0,870 2100.0,900 2160,900 C2100.0,900 2100.0,930 2040,930 C1980.0,930 1980.0,900 1920,900Z" stroke="#a76754" stroke-width="10" fill="none" mask="url(#bodymask)"/>
<path d="M1920,960 C1980.0,960 1980.0,930 2040,930 C2100.0,930 2100.0,960 2160,960 C2100.0,960 2100.0,990 2040,990 C1980.0,990 1980.0,960 1920,960Z" stroke="#a76754" stroke-width="10" fill="none" mask="url(#bodymask)"/>
<path d="M1920,1020 C1980.0,1020 1980.0,990 2040,990 C2100.0,990 2100.0,1020 2160,1020 C2100.0,1020 2100.0,1050 2040,1050 C1980.0,1050 1980.0,1020 1920,1020Z" stroke="#a76754" stroke-width="10" fill="none" mask="url(#bodymask)"/>
<path d="M1920,1080 C1980.0,1080 1980.0,1050 2040,1050 C2100.0,1050 2100.0,1080 2160,1080 C2100.0,1080 2100.0,1110 2040,1110 C1980.0,1110 1980.0,1080 1920,1080Z" stroke="#a76754" stroke-width="10" fill="none" mask="url(#bodymask)"/>
<path d="M1920,1140 C1980.0,1140 1980.0,1110 2040,1110 C2100.0,1110 2100.0,1140 2160,1140 C2100.0,1140 2100.0,1170 2040,1170 C1980.0,1170 1980.0,1140 1920,1140Z" stroke="#a76754" stroke-width="10" fill="none" mask="url(#bodymask)"/>
<path d="M1920,1200 C1980.0,1200 1980.0,1170 2040,1170 C2100.0,1170 2100.0,1200 2160,1200 C2100.0,1200 2100.0,1230 2040,1230 C1980.0,1230 1980.0,1200 1920,1200Z" stroke="#a76754" stroke-width="10" fill="none" mask="url(#bodymask)"/>
<path d="M1920,1260 C1980.0,1260 1980.0,1230 2040,1230 C2100.0,1230 2100.0,1260 2160,1260 C2100.0,1260 2100.0,1290 2040,1290 C1980.0,1290 1980.0,1260 1920,1260Z" stroke="#a76754" stroke-width="10" fill="none" mask="url(#bodymask)"/>
<path d="M1920,1320 C1980.0,1320 1980.0,1290 2040,1290 C2100.0,1290 2100.0,1320 2160,1320 C2100.0,1320 2100.0,1350 2040,1350 C1980.0,1350 1980.0,1320 1920,1320Z" stroke="#a76754" stroke-width="10" fill="none" mask="url(#bodymask)"/>
<path d="M1920,1380 C1980.0,1380 1980.0,1350 2040,1350 C2100.0,1350 2100.0,1380 2160,1380 C2100.0,1380 2100.0,1410 2040,1410 C1980.0,1410 1980.0,1380 1920,1380Z" stroke="#a76754" stroke-width="10" fill="none" mask="url(#bodymask)"/>
<path d="M1920,1440 C1980.0,1440 1980.0,1410 2040,1410 C2100.0,1410 2100.0,1440 2160,1440 C2100.0,1440 2100.0,1470 2040,1470 C1980.0,1470 1980.0,1440 1920,1440Z" stroke="#a76754" stroke-width="10" fill="none" mask="url(#bodymask)"/>
<path d="M1920,1500 C1980.0,1500 1980.0,1470 2040,1470 C2100.0,1470 2100.0,1500 2160,1500 C2100.0,1500 2100.0,1530 2040,1530 C1980.0,1530 1980.0,1500 1920,1500Z" stroke="#a76754" stroke-width="10" fill="none" mask="url(#bodymask)"/>
<path d="M1920,1560 C1980.0,1560 1980.0,1530 2040,1530 C2100.0,1530 2100.0,1560 2160,1560 C2100.0,1560 2100.0,1590 2040,1590 C1980.0,1590 1980.0,1560 1920,1560Z" stroke="#a76754" stroke-width="10" fill="none" mask="url(#bodymask)"/>
<path d="M1920,1620 C1980.0,1620 1980.0,1590 2040,1590 C2100.0,1590 2100.0,1620 2160,1620 C2100.0,1620 2100.0,1650 2040,1650 C1980.0,1650 1980.0,1620 1920,1620Z" stroke="#a76754" stroke-width="10" fill="none" mask="url(#bodymask)"/>
<path d="M1920,1680 C1980.0,1680 1980.0,1650 2040,1650 C2100.0,1650 2100.0,1680 2160,1680 C2100.0,1680 2100.0,1710 2040,1710 C1980.0,1710 1980.0,1680 1920,1680Z" stroke="#a76754" stroke-width="10" fill="none" mask="url(#bodymask)"/>
<path d="M1920,1740 C1980.0,1740 1980.0,1710 2040,1710 C2100.0,1710 2100.0,1740 2160,1740 C2100.0,1740 2100.0,1770 2040,1770 C1980.0,1770 1980.0,1740 1920,1740Z" stroke="#a76754" stroke-width="10" fill="none" mask="url(#bodymask)"/>
<path d="M1920,1800 C1980.0,1800 1980.0,1770 2040,1770 C2100.0,1770 2100.0,1800 2160,1800 C2100.0,1800 2100.0,1830 2040,1830 C1980.0,1830 1980.0,1800 1920,1800Z" stroke="#a76754" stroke-width="10" fill="none" mask="url(#bodymask)"/>
<path d="M1920,1860 C1980.0,1860 1980.0,1830 2040,1830 C2100.0,1830 2100.0,1860 2160,1860 C2100.0,1860 2100.0,1890 2040,1890 C1980.0,1890 1980.0,1860 1920,1860Z" stroke="#a76754" stroke-width="10" fill="none" mask="url(#bodymask)"/>
<path d="M1920,1920 C1980.0,1920 1980.0,1890 2040,1890 C2100.0,1890 2100.0,1920 2160,1920 C2100.0,1920 2100.0,1950 2040,1950 C1980.0,1950 1980.0,1920 1920,1920Z" stroke="#a76754" stroke-width="10" fill="none" mask="url(#bodymask)"/>
<path d="M1920,1980 C1980.0,1980 1980.0,1950 2040,1950 C2100.0,1950 2100.0,1980 2160,1980 C2100.0,1980 2100.0,2010 2040,2010 C1980.0,2010 1980.0,1980 1920,1980Z" stroke="#a76754" stroke-width="10" fill="none" mask="url(#bodymask)"/>
<path d="M1920,2040 C1980.0,2040 1980.0,2010 2040,2010 C2100.0,2010 2100.0,2040 2160,2040 C2100.0,2040 2100.0,2070 2040,2070 C1980.0,2070 1980.0,2040 1920,2040Z" stroke="#a76754" stroke-width="10" fill="none" mask="url(#bodymask)"/>
<path d="M1920,2100 C1980.0,2100 1980.0,2070 2040,2070 C2100.0,2070 2100.0,2100 2160,2100 C2100.0,2100 2100.0,2130 2040,2130 C1980.0,2130 1980.0,2100 1920,2100Z" stroke="#a76754" stroke-width="10" fill="none" mask="url(#bodymask)"/>
<path d="M1920,2160 C1980.0,2160 1980.0,2130 2040,2130 C2100.0,2130 2100.0,2160 2160,2160 C2100.0,2160 2100.0,2190 2040,2190 C1980.0,2190 1980.0,2160 1920,2160Z" stroke="#a76754" stroke-width="10" fill="none" mask="url(#bodymask)"/>
<path d="M1920,2220 C1980.0,2220 1980.0,2190 2040,2190 C2100.0,2190 2100.0,2220 2160,2220 C2100.0,2220 2100.0,2250 2040,2250 C1980.0,2250 1980.0,2220 1920,2220Z" stroke="#a76754" stroke-width="10" fill="none" mask="url(#bodymask)"/>
<path d="M1920,2280 C1980.0,2280 1980.0,2250 2040,2250 C2100.0,2250 2100.0,2280 2160,2280 C2100.0,2280 2100.0,2310 2040,2310 C1980.0,2310 1980.0,2280 1920,2280Z" stroke="#a76754" stroke-width="10" fill="none" mask="url(#bodymask)"/>
<path d="M1920,2340 C1980.0,2340 1980.0,2310 2040,2310 C2100.0,2310 2100.0,2340 2160,2340 C2100.0,2340 2100.0,2370 2040,2370 C1980.0,2370 1980.0,2340 1920,2340Z" stroke="#a76754" stroke-width="10" fill="none" mask="url(#bodymask)"/>
<path d="M2160,0 C2220.0,0 2220.0,-30 2280,-30 C2340.0,-30 2340.0,0 2400,0 C2340.0,0 2340.0,30 2280,30 C2220.0,30 2220.0,0 2160,0Z" stroke="#a76754" stroke-width="10" fill="none" mask="url(#bodymask)"/>
<path d="M2160,60 C2220.0,60 2220.0,30 2280,30 C2340.0,30 2340.0,60 2400,60 C2340.0,60 2340.0,90 2280,90 C2220.0,90 2220.0,60 2160,60Z" stroke="#a76754" stroke-width="10" fill="none" mask="url(#bodymask)"/>
<path d="M2160,120 C2220.0,120 2220.0,90 2280,90 C2340.0,90 2340.0,120 2400,120 C2340.0,120 2340.0,150 2280,150 C2220.0,150 2220.0,120 2160,120Z" stroke="#a76754" stroke-width="10" fill="none" mask="url(#bodymask)"/>
<path d="M2160,180 C2220.0,180 2220.0,150 2280,150 C2340.0,150 2340.0,180 2400,180 C2340.0,180 2340.0,210 2280,210 C2220.0,210 2220.0,180 2160,180Z" stroke="#a76754" stroke-width="10" fill="none" mask="url(#bodymask)"/>
<path d="M2160,240 C2220.0,240 2220.0,210 2280,210 C2340.0,210 2340.0,240 2400,240 C2340.0,240 2340.0,270 2280,270 C2220.0,270 2220.0,240 2160,240Z" stroke="#a76754" stroke-width="10" fill="none" mask="url(#bodymask)"/>
<path d="M2160,300 C2220.0,300 2220.0,270 2280,270 C2340.0,270 2340.0,300 2400,300 C2340.0,300 2340.0,330 2280,330 C2220.0,330 2220.0,300 2160,300Z" stroke="#a76754" stroke-width="10" fill="none" mask="url(#bodymask)"/>
<path d="M2160,360 C2220.0,360 2220.0,330 2280,330 C2340.0,330 2340.0,360 2400,360 C2340.0,360 2340.0,390 2280,390 C2220.0,390 2220.0,360 2160,360Z" stroke="#a76754" stroke-width="10" fill="none" mask="url(#bodymask)"/>
<path d="M2160,420 C2220.0,420 2220.0,390 2280,390 C2340.0,390 2340.0,420 2400,420 C2340.0,420 2340.0,450 2280,450 C2220.0,450 2220.0,420 2160,420Z" stroke="#a76754" stroke-width="10" fill="none" mask="url(#bodymask)"/>
<path d="M2160,480 C2220.0,480 2220.0,450 2280,450 C2340.0,450 2340.0,480 2400,480 C2340.0,480 2340.0,510 2280,510 C2220.0,510 2220.0,480 2160,480Z" stroke="#a76754" stroke-width="10" fill="none" mask="url(#bodymask)"/>
<path d="M2160,540 C2220.0,540 2220.0,510 2280,510 C2340.0,510 2340.0,540 2400,540 C2340.0,540 2340.0,570 2280,570 C2220.0,570 2220.0,540 2160,540Z" stroke="#a76754" stroke-width="10" fill="none" mask="url(#bodymask)"/>
<path d="M2160,600 C2220.0,600 2220.0,570 2280,570 C2340.0,570 2340.0,600 2400,600 C2340.0,600 2340.0,630 2280,630 C2220.0,630 2220.0,600 2160,600Z" stroke="#a76754" stroke-width="10" fill="none" mask="url(#bodymask)"/>
<path d="M2160,660 C2220.0,660 2220.0,630 2280,630 C2340.0,630 2340.0,660 2400,660 C2340.0,660 2340.0,690 2280,690 C2220.0,690 2220.0,660 2160,660Z" stroke="#a76754" stroke-width="10" fill="none" mask="url(#bodymask)"/>
<path d="M2160,720 C2220.0,720 2220.0,690 2280,690 C2340.0,690 2340.0,720 2400,720 C2340.0,720 2340.0,750 2280,750 C2220.0,750 2220.0,720 2160,720Z" stroke="#a76754" stroke-width="10" fill="none" mask="url(#bodymask)"/>
<path d="M2160,780 C2220.0,780 2220.0,750 2280,750 C2340.0,750 2340.0,780 2400,780 C2340.0,780 2340.0,810 2280,810 C2220.0,810 2220.0,780 2160,780Z" stroke="#a76754" stroke-width="10" fill="none" mask="url(#bodymask)"/>
<path d="M2160,840 C2220.0,840 2220.0,810 2280,810 C2340.0,810 2340.0,840 2400,840 C2340.0,840 2340.0,870 2280,870 C2220.0,870 2220.0,840 2160,840Z" stroke="#a76754" stroke-width="10" fill="none" mask="url(#bodymask)"/>
<path d="M2160,900 C2220.0,900 2220.0,870 2280,870 C2340.0,870 2340.0,900 2400,900 C2340.0,900 2340.0,930 2280,930 C2220.0,930 2220.0,900 2160,900Z" stroke="#a76754" stroke-width="10" fill="none" mask="url(#bodymask)"/>
<path d="M2160,960 C2220.0,960 2220.0,930 2280,930 C2340.0,930 2340.0,960 2400,960 C2340.0,960 2340.0,990 2280,990 C2220.0,990 2220.0,960 2160,960Z" stroke="#a76754" stroke-width="10" fill="none" mask="url(#bodymask)"/>
<path d="M2160,1020 C2220.0,1020 2220.0,990 2280,990 C2340.0,990 2340.0,1020 2400,1020 C2340.0,1020 2340.0,1050 2280,1050 C2220.0,1050 2220.0,1020 2160,1020Z" stroke="#a76754" stroke-width="10" fill="none" mask="url(#bodymask)"/>
<path d="M2160,1080 C2220.0,1080 2220.0,1050 2280,1050 C2340.0,1050 2340.0,1080 2400,1080 C2340.0,1080 2340.0,1110 2280,1110 C2220.0,1110 2220.0,1080 2160,1080Z" stroke="#a76754" stroke-width="10" fill="none" mask="url(#bodymask)"/>
<path d="M2160,1140 C2220.0,1140 2220.0,1110 2280,1110 C2340.0,1110 2340.0,1140 2400,1140 C2340.0,1140 2340.0,1170 2280,1170 C2220.0,1170 2220.0,1140 2160,1140Z" stroke="#a76754" stroke-width="10" fill="none" mask="url(#bodymask)"/>
<path d="M2160,1200 C2220.0,1200 2220.0,1170 2280,1170 C2340.0,1170 2340.0,1200 2400,1200 C2340.0,1200 2340.0,1230 2280,1230 C2220.0,1230 2220.0,1200 2160,1200Z" stroke="#a76754" stroke-width="10" fill="none" mask="url(#bodymask)"/>
<path d="M2160,1260 C2220.0,1260 2220.0,1230 2280,1230 C2340.0,1230 2340.0,1260 2400,1260 C2340.0,1260 2340.0,1290 2280,1290 C2220.0,1290 2220.0,1260 2160,1260Z" stroke="#a76754" stroke-width="10" fill="none" mask="url(#bodymask)"/>
<path d="M2160,1320 C2220.0,1320 2220.0,1290 2280,1290 C2340.0,1290 2340.0,1320 2400,1320 C2340.0,1320 2340.0,1350 2280,1350 C2220.0,1350 2220.0,1320 2160,1320Z" stroke="#a76754" stroke-width="10" fill="none" mask="url(#bodymask)"/>
<path d="M2160,1380 C2220.0,1380 2220.0,1350 2280,1350 C2340.0,1350 2340.0,1380 2400,1380 C2340.0,1380 2340.0,1410 2280,1410 C2220.0,1410 2220.0,1380 2160,1380Z" stroke="#a76754" stroke-width="10" fill="none" mask="url(#bodymask)"/>
<path d="M2160,1440 C2220.0,1440 2220.0,1410 2280,1410 C2340.0,1410 2340.0,1440 2400,1440 C2340.0,1440 2340.0,1470 2280,1470 C2220.0,1470 2220.0,1440 2160,1440Z" stroke="#a76754" stroke-width="10" fill="none" mask="url(#bodymask)"/>
<path d="M2160,1500 C2220.0,1500 2220.0,1470 2280,1470 C2340.0,1470 2340.0,1500 2400,1500 C2340.0,1500 2340.0,1530 2280,1530 C2220.0,1530 2220.0,1500 2160,1500Z" stroke="#a76754" stroke-width="10" fill="none" mask="url(#bodymask)"/>
<path d="M2160,1560 C2220.0,1560 2220.0,1530 2280,1530 C2340.0,1530 2340.0,1560 2400,1560 C2340.0,1560 2340.0,1590 2280,1590 C2220.0,1590 2220.0,1560 2160,1560Z" stroke="#a76754" stroke-width="10" fill="none" mask="url(#bodymask)"/>
<path d="M2160,1620 C2220.0,1620 2220.0,1590 2280,1590 C2340.0,1590 2340.0,1620 2400,1620 C2340.0,1620 2340.0,1650 2280,1650 C2220.0,1650 2220.0,1620 2160,1620Z" stroke="#a76754" stroke-width="10" fill="none" mask="url(#bodymask)"/>
<path d="M2160,1680 C2220.0,1680 2220.0,1650 2280,1650 C2340.0,1650 2340.0,1680 2400,1680 C2340.0,1680 2340.0,1710 2280,1710 C2220.0,1710 2220.0,1680 2160,1680Z" stroke="#a76754" stroke-width="10" fill="none" mask="url(#bodymask)"/>
<path d="M2160,1740 C2220.0,1740 2220.0,1710 2280,1710 C2340.0,1710 2340.0,1740 2400,1740 C2340.0,1740 2340.0,1770 2280,1770 C2220.0,1770 2220.0,1740 2160,1740Z" stroke="#a76754" stroke-width="10" fill="none" mask="url(#bodymask)"/>
<path d="M2160,1800 C2220.0,1800 2220.0,1770 2280,1770 C2340.0,1770 2340.0,1800 2400,1800 C2340.0,1800 2340.0,1830 2280,1830 C2220.0,1830 2220.0,1800 2160,1800Z" stroke="#a76754" stroke-width="10" fill="none" mask="url(#bodymask)"/>
<path d="M2160,1860 C2220.0,1860 2220.0,1830 2280,1830 C2340.0,1830 2340.0,1860 2400,1860 C2340.0,1860 2340.0,1890 2280,1890 C2220.0,1890 2220.0,1860 2160,1860Z" stroke="#a76754" stroke-width="10" fill="none" mask="url(#bodymask)"/>
<path d="M2160,1920 C2220.0,1920 2220.0,1890 2280,1890 C2340.0,1890 2340.0,1920 2400,1920 C2340.0,1920 2340.0,1950 2280,1950 C2220.0,1950 2220.0,1920 2160,1920Z" stroke="#a76754" stroke-width="10" fill="none" mask="url(#bodymask)"/>
<path d="M2160,1980 C2220.0,1980 2220.0,1950 2280,1950 C2340.0,1950 2340.0,1980 2400,1980 C2340.0,1980 2340.0,2010 2280,2010 C2220.0,2010 2220.0,1980 2160,1980Z" stroke="#a76754" stroke-width="10" fill="none" mask="url(#bodymask)"/>
<path d="M2160,2040 C2220.0,2040 2220.0,2010 2280,2010 C2340.0,2010 2340.0,2040 2400,2040 C2340.0,2040 2340.0,2070 2280,2070 C2220.0,2070 2220.0,2040 2160,2040Z" stroke="#a76754" stroke-width="10" fill="none" mask="url(#bodymask)"/>
<path d="M2160,2100 C2220.0,2100 2220.0,2070 2280,2070 C2340.0,2070 2340.0,2100 2400,2100 C2340.0,2100 2340.0,2130 2280,2130 C2220.0,2130 2220.0,2100 2160,2100Z" stroke="#a76754" stroke-width="10" fill="none" mask="url(#bodymask)"/>
<path d="M2160,2160 C2220.0,2160 2220.0,2130 2280,2130 C2340.0,2130 2340.0,2160 2400,2160 C2340.0,2160 2340.0,2190 2280,2190 C2220.0,2190 2220.0,2160 2160,2160Z" stroke="#a76754" stroke-width="10" fill="none" mask="url(#bodymask)"/>
<path d="M2160,2220 C2220.0,2220 2220.0,2190 2280,2190 C2340.0,2190 2340.0,2220 2400,2220 C2340.0,2220 2340.0,2250 2280,2250 C2220.0,2250 2220.0,2220 2160,2220Z" stroke="#a76754" stroke-width="10" fill="none" mask="url(#bodymask)"/>
<path d="M2160,2280 C2220.0,2280 2220.0,2250 2280,2250 C2340.0,2250 2340.0,2280 2400,2280 C2340.0,2280 2340.0,2310 2280,2310 C2220.0,2310 2220.0,2280 2160,2280Z" stroke="#a76754" stroke-width="10" fill="none" mask="url(#bodymask)"/>
<path d="M2160,2340 C2220.0,2340 2220.0,2310 2280,2310 C2340.0,2310 2340.0,2340 2400,2340 C2340.0,2340 2340.0,2370 2280,2370 C2220.0,2370 2220.0,2340 2160,2340Z" stroke="#a76754" stroke-width="10" fill="none" mask="url(#bodymask)"/>
<path d="M 677 1015 L 688 1112 L 785 1123 L 725 1200 L 785 1277 L 688 1288 L 677 1385 L 600 1325 L 523 1385 L 512 1288 L 415 1277 L 475 1200 L 415 1123 L 512 1112 L 523 1015 L 600 1075 Z" fill="#ddddcc"/>
<path d="M 1877 1015 L 1888 1112 L 1985 1123 L 1925 1200 L 1985 1277 L 1888 1288 L 1877 1385 L 1800 1325 L 1723 1385 L 1712 1288 L 1615 1277 L 1675 1200 L 1615 1123 L 1712 1112 L 1723 1015 L 1800 1075 Z" fill="#ddddcc"/>
</svg>