<svg height="1200" width="1200">
<rect x="0" y="0" width="1200" height="1200" rx="0" fill="#ddddcc"/>
<rect x="75" y="75" width="1050" height="1050" rx="75" fill="#994936"/>
<path d="M 338 508 L 347 553 L 392 562 L 367 600 L 392 638 L 347 647 L 338 692 L 300 667 L 262 692 L 253 647 L 208 638 L 233 600 L 208 562 L 253 553 L 262 508 L 300 533 Z" fill="#ddddcc"/>
<path d="M 638 208 L 647 253 L 692 262 L 667 300 L 692 338 L 647 347 L 638 392 L 600 367 L 562 392 L 553 347 L 508 338 L 533 300 L 508 262 L 553 253 L 562 208 L 600 233 Z" fill="#ddddcc"/>
<path d="M 938 508 L 947 553 L 992 562 L 967 600 L 992 638 L 947 647 L 938 692 L 900 667 L 862 692 L 853 647 L 808 638 L 833 600 L 808 562 L 853 553 L 862 508 L 900 533 Z" fill="#ddddcc"/>
<path d="M 638 808 L 647 853 L 692 862 L 667 900 L 692 938 L 647 947 L 638 992 L 600 967 L 562 992 L 553 947 L 508 938 L 533 900 L 508 862 L 553 853 L 562 808 L 600 833 Z" fill="#ddddcc"/>
</svg>