<svg height="2400" width="2400">
<rect x="0" y="0" width="2400" height="2400" rx="0" fill="#ddddcc"/>
<rect x="150" y="150" width="2100" height="2100" rx="150" fill="#343445"/>
<path d="M 677 1015 L 694 1106 L 785 1123 L 733 1200 L 785 1277 L 694 1294 L 677 1385 L 600 1333 L 523 1385 L 506 1294 L 415 1277 L 467 1200 L 415 1123 L 506 1106 L 523 1015 L 600 1067 Z" fill="#ddddcc"/>
<path d="M 1277 415 L 1294 506 L 1385 523 L 1333 600 L 1385 677 L 1294 694 L 1277 785 L 1200 733 L 1123 785 L 1106 694 L 1015 677 L 1067 600 L 1015 523 L 1106 506 L 1123 415 L 1200 467 Z" fill="#ddddcc"/>
<path d="M 1877 1015 L 1894 1106 L 1985 1123 L 1933 1200 L 1985 1277 L 1894 1294 L 1877 1385 L 1800 1333 L 1723 1385 L 1706 1294 L 1615 1277 L 1667 1200 L 1615 1123 L 1706 1106 L 1723 1015 L 1800 1067 Z" fill="#ddddcc"/>
<path d="M 1277 1615 L 1294 1706 L 1385 1723 L 1333 1800 L 1385 1877 L 1294 1894 L 1277 1985 L 1200 1933 L 1123 1985 L 1106 1894 L 1015 1877 L 1067 1800 L 1015 1723 L 1106 1706 L 1123 1615 L 1200 1667 Z" fill="#ddddcc"/>
</svg>