<svg height="720" width="720">
<rect x="0" y="0" width="720" height="720" rx="0" fill="#000000"/>
<rect x="60" y="60" width="600" height="600" rx="45.0" fill="#363659"/>
<path d="M 360 210 L 510 360 L 360 510 L 210 360 Z" fill="#dbb448"/>
<path d="M 510 210 L 510 60 L 660 210 Z" fill="#dbb448"/>
<path d="M 510 510 L 660 510 L 510 660 Z" fill="#dbb448"/>
<path d="M 210 510 L 210 660 L 60 510 Z" fill="#dbb448"/>
<path d="M 210 210 L 60 210 L 210 60 Z" fill="#dbb448"/>
<path d="M 510 210 L 660 210 L 510 360 Z" fill="#994936"/>
<path d="M 510 210 L 360 210 L 510 60 Z" fill="#994936"/>
<path d="M 510 510 L 510 660 L 360 510 Z" fill="#994936"/>
<path d="M 510 510 L 510 360 L 660 510 Z" fill="#994936"/>
<path d="M 210 510 L 60 510 L 210 360 Z" fill="#994936"/>
<path d="M 210 510 L 360 510 L 210 660 Z" fill="#994936"/>
<path d="M 210 210 L 210 60 L 360 210 Z" fill="#994936"/>
<path d="M 210 210 L 210 360 L 60 210 Z" fill="#994936"/>
<path d="M 360 210 L 210 60 L 510 60 Z" fill="#478547"/>
<path d="M 510 360 L 660 210 L 660 510 Z" fill="#478547"/>
<path d="M 360 510 L 510 660 L 210 660 Z" fill="#478547"/>
<path d="M 210 360 L 60 510 L 60 210 Z" fill="#478547"/>
</svg>