<svg height="2400" width="2400">
<rect x="0" y="0" width="2400" height="2400" rx="0" fill="#000000"/>
<rect x="150" y="150" width="2100" height="2100" rx="150" fill="#343445"/>
<path d="M 1200 675 L 1725 1200 L 1200 1725 L 675 1200 Z" fill="#dbb448"/>
<path d="M 1725 675 L 1725 150 L 2250 675 Z" fill="#dbb448"/>
<path d="M 1725 1725 L 2250 1725 L 1725 2250 Z" fill="#dbb448"/>
<path d="M 675 1725 L 675 2250 L 150 1725 Z" fill="#dbb448"/>
<path d="M 675 675 L 150 675 L 675 150 Z" fill="#dbb448"/>
<path d="M 1725 675 L 2250 675 L 1725 1200 Z" fill="#994936"/>
<path d="M 1725 675 L 1200 675 L 1725 150 Z" fill="#994936"/>
<path d="M 1725 1725 L 1725 2250 L 1200 1725 Z" fill="#994936"/>
<path d="M 1725 1725 L 1725 1200 L 2250 1725 Z" fill="#994936"/>
<path d="M 675 1725 L 150 1725 L 675 1200 Z" fill="#994936"/>
<path d="M 675 1725 L 1200 1725 L 675 2250 Z" fill="#994936"/>
<path d="M 675 675 L 675 150 L 1200 675 Z" fill="#994936"/>
<path d="M 675 675 L 675 1200 L 150 675 Z" fill="#994936"/>
<path d="M 1200 675 L 675 150 L 1725 150 Z" fill="#478547"/>
<path d="M 1725 1200 L 2250 675 L 2250 1725 Z" fill="#478547"/>
<path d="M 1200 1725 L 1725 2250 L 675 2250 Z" fill="#478547"/>
<path d="M 675 1200 L 150 1725 L 150 675 Z" fill="#478547"/>
</svg>