<svg height="2400" width="2400">
<rect x="0" y="0" width="2400" height="2400" rx="0" fill="#000000"/>
<rect x="200" y="200" width="2000" height="2000" rx="150.0" fill="#363659"/>
<path d="M 1200 700 L 1700 1200 L 1200 1700 L 700 1200 Z" fill="#dbb448"/>
<path d="M 1700 700 L 1700 200 L 2200 700 Z" fill="#dbb448"/>
<path d="M 1700 1700 L 2200 1700 L 1700 2200 Z" fill="#dbb448"/>
<path d="M 700 1700 L 700 2200 L 200 1700 Z" fill="#dbb448"/>
<path d="M 700 700 L 200 700 L 700 200 Z" fill="#dbb448"/>
<path d="M 1700 700 L 2200 700 L 1700 1200 Z" fill="#994936"/>
<path d="M 1700 700 L 1200 700 L 1700 200 Z" fill="#994936"/>
<path d="M 1700 1700 L 1700 2200 L 1200 1700 Z" fill="#994936"/>
<path d="M 1700 1700 L 1700 1200 L 2200 1700 Z" fill="#994936"/>
<path d="M 700 1700 L 200 1700 L 700 1200 Z" fill="#994936"/>
<path d="M 700 1700 L 1200 1700 L 700 2200 Z" fill="#994936"/>
<path d="M 700 700 L 700 200 L 1200 700 Z" fill="#994936"/>
<path d="M 700 700 L 700 1200 L 200 700 Z" fill="#994936"/>
<path d="M 1200 700 L 700 200 L 1700 200 Z" fill="#478547"/>
<path d="M 1700 1200 L 2200 700 L 2200 1700 Z" fill="#478547"/>
<path d="M 1200 1700 L 1700 2200 L 700 2200 Z" fill="#478547"/>
<path d="M 700 1200 L 200 1700 L 200 700 Z" fill="#478547"/>
</svg>