<svg height="2400" width="2400">
<path d="M527 457A160.0 160.0 0 1 0 743 673 160.0 160.0 0 0 1 527 457z" fill="#ddddcc"/>
<path d="M527 1657A160.0 160.0 0 1 0 743 1873 160.0 160.0 0 0 1 527 1657z" fill="#ddddcc"/>
<path d="M1127 1057A160.0 160.0 0 1 0 1343 1273 160.0 160.0 0 0 1 1127 1057z" fill="#ddddcc"/>
<path d="M1727 457A160.0 160.0 0 1 0 1943 673 160.0 160.0 0 0 1 1727 457z" fill="#ddddcc"/>
<path d="M1727 1657A160.0 160.0 0 1 0 1943 1873 160.0 160.0 0 0 1 1727 1657z" fill="#ddddcc"/>
</svg>