<svg height="720" width="720">
<path d="M 203 125 L 207 153 L 235 157 L 218 180 L 235 203 L 207 207 L 203 235 L 180 218 L 157 235 L 153 207 L 125 203 L 142 180 L 125 157 L 153 153 L 157 125 L 180 142 Z" fill="#000000"/>
<path d="M 203 485 L 207 513 L 235 517 L 218 540 L 235 563 L 207 567 L 203 595 L 180 578 L 157 595 L 153 567 L 125 563 L 142 540 L 125 517 L 153 513 L 157 485 L 180 502 Z" fill="#000000"/>
<path d="M 383 305 L 387 333 L 415 337 L 398 360 L 415 383 L 387 387 L 383 415 L 360 398 L 337 415 L 333 387 L 305 383 L 322 360 L 305 337 L 333 333 L 337 305 L 360 322 Z" fill="#000000"/>
<path d="M 563 125 L 567 153 L 595 157 L 578 180 L 595 203 L 567 207 L 563 235 L 540 218 L 517 235 L 513 207 L 485 203 L 502 180 L 485 157 L 513 153 L 517 125 L 540 142 Z" fill="#000000"/>
<path d="M 563 485 L 567 513 L 595 517 L 578 540 L 595 563 L 567 567 L 563 595 L 540 578 L 517 595 L 513 567 L 485 563 L 502 540 L 485 517 L 513 513 L 517 485 L 540 502 Z" fill="#000000"/>
</svg>