<svg height="720" width="720">
<path d="M 203 305 L 207 333 L 235 337 L 218 360 L 235 383 L 207 387 L 203 415 L 180 398 L 157 415 L 153 387 L 125 383 L 142 360 L 125 337 L 153 333 L 157 305 L 180 322 Z" fill="#000000"/>
<path d="M 383 125 L 387 153 L 415 157 L 398 180 L 415 203 L 387 207 L 383 235 L 360 218 L 337 235 L 333 207 L 305 203 L 322 180 L 305 157 L 333 153 L 337 125 L 360 142 Z" fill="#000000"/>
<path d="M 563 305 L 567 333 L 595 337 L 578 360 L 595 383 L 567 387 L 563 415 L 540 398 L 517 415 L 513 387 L 485 383 L 502 360 L 485 337 L 513 333 L 517 305 L 540 322 Z" fill="#000000"/>
<path d="M 383 485 L 387 513 L 415 517 L 398 540 L 415 563 L 387 567 L 383 595 L 360 578 L 337 595 L 333 567 L 305 563 L 322 540 L 305 517 L 333 513 L 337 485 L 360 502 Z" fill="#000000"/>
</svg>