<svg height="2400" width="2400">
<path d="M 677 1015 L 688 1112 L 785 1123 L 725 1200 L 785 1277 L 688 1288 L 677 1385 L 600 1325 L 523 1385 L 512 1288 L 415 1277 L 475 1200 L 415 1123 L 512 1112 L 523 1015 L 600 1075 Z" fill="#ddddcc"/>
<path d="M 1277 415 L 1288 512 L 1385 523 L 1325 600 L 1385 677 L 1288 688 L 1277 785 L 1200 725 L 1123 785 L 1112 688 L 1015 677 L 1075 600 L 1015 523 L 1112 512 L 1123 415 L 1200 475 Z" fill="#ddddcc"/>
<path d="M 1877 1015 L 1888 1112 L 1985 1123 L 1925 1200 L 1985 1277 L 1888 1288 L 1877 1385 L 1800 1325 L 1723 1385 L 1712 1288 L 1615 1277 L 1675 1200 L 1615 1123 L 1712 1112 L 1723 1015 L 1800 1075 Z" fill="#ddddcc"/>
<path d="M 1277 1615 L 1288 1712 L 1385 1723 L 1325 1800 L 1385 1877 L 1288 1888 L 1277 1985 L 1200 1925 L 1123 1985 L 1112 1888 L 1015 1877 L 1075 1800 L 1015 1723 L 1112 1712 L 1123 1615 L 1200 1675 Z" fill="#ddddcc"/>
</svg>