<svg height="720" width="720">
<path d="M 180 120 L 197 163 L 240 180 L 197 197 L 180 240 L 163 197 L 120 180 L 163 163 Z" fill="#ddddcc"/>
<path d="M 180 480 L 197 523 L 240 540 L 197 557 L 180 600 L 163 557 L 120 540 L 163 523 Z" fill="#ddddcc"/>
<path d="M 360 300 L 377 343 L 420 360 L 377 377 L 360 420 L 343 377 L 300 360 L 343 343 Z" fill="#ddddcc"/>
<path d="M 540 120 L 557 163 L 600 180 L 557 197 L 540 240 L 523 197 L 480 180 L 523 163 Z" fill="#ddddcc"/>
<path d="M 540 480 L 557 523 L 600 540 L 557 557 L 540 600 L 523 557 L 480 540 L 523 523 Z" fill="#ddddcc"/>
</svg>