<svg height="2400" width="2400">
<path d="M 677 415 L 688 512 L 785 523 L 725 600 L 785 677 L 688 688 L 677 785 L 600 725 L 523 785 L 512 688 L 415 677 L 475 600 L 415 523 L 512 512 L 523 415 L 600 475 Z" fill="#ddddcc"/>
<path d="M 1277 1015 L 1288 1112 L 1385 1123 L 1325 1200 L 1385 1277 L 1288 1288 L 1277 1385 L 1200 1325 L 1123 1385 L 1112 1288 L 1015 1277 L 1075 1200 L 1015 1123 L 1112 1112 L 1123 1015 L 1200 1075 Z" fill="#ddddcc"/>
<path d="M 1877 1615 L 1888 1712 L 1985 1723 L 1925 1800 L 1985 1877 L 1888 1888 L 1877 1985 L 1800 1925 L 1723 1985 L 1712 1888 L 1615 1877 L 1675 1800 L 1615 1723 L 1712 1712 L 1723 1615 L 1800 1675 Z" fill="#ddddcc"/>
</svg>