<svg height="2400" width="2400">
<rect x="0" y="0" width="2400" height="2400" rx="0" fill="#000000"/>
<path d="M 1344.0 854.0 L 1366.0 1034.0 L 1546.0 1056.0 L 1434.0 1200.0 L 1546.0 1344.0 L 1366.0 1366.0 L 1344.0 1546.0 L 1200.0 1434.0 L 1056.0 1546.0 L 1034.0 1366.0 L 854.0 1344.0 L 966.0 1200.0 L 854.0 1056.0 L 1034.0 1034.0 L 1056.0 854.0 L 1200.0 966.0 Z" fill="#994936"/>
<circle cx="1668.0" cy="1668.0" r="201.9408201754364" fill="#478547"/>

    <circle cx="1668.0" cy="1668.0" r="186.7369658670766" stroke="#363659" stroke-width="40.40770861671959" fill="none"/>
    <rect x="1647.7961456916403" y="1481.2630341329234" width="40.40770861671961" height="373.4739317341532" rx="0" fill="#363659"/>
    <rect x="1481.2630341329234" y="1647.7961456916403" width="373.4739317341532" height="40.40770861671961" rx="0" fill="#363659"/>
    
<circle cx="1897.8097038856279" cy="1897.8097038856279" r="73.16462862517848" fill="#ddddcc"/>
<path d="M1720 1941A73.16462862517848 73.16462862517848 0 1 0 1616 2045 91.4557857814731 91.4557857814731 1 0 0 1720 1941z" fill="#ddddcc"/>
<path d="M1490 1846A73.16462862517848 73.16462862517848 0 1 0 1386 1950 z" fill="#ddddcc"/>
<path d="M1395 1616A73.16462862517848 73.16462862517848 0 1 0 1291 1720 91.4557857814731 91.4557857814731 0 0 1 1395 1616z" fill="#ddddcc"/>

<path d="M1720 1291A73.16462862517848 73.16462862517848 0 1 0 1616 1395 91.4557857814731 91.4557857814731 0 0 1 1720 1291z" fill="#ddddcc"/>
<path d="M1950 1386A73.16462862517848 73.16462862517848 0 1 0 1846 1490 z" fill="#ddddcc"/>
<path d="M2045 1616A73.16462862517848 73.16462862517848 0 1 0 1941 1720 91.4557857814731 91.4557857814731 1 0 0 2045 1616z" fill="#ddddcc"/>
<path d="M 2064.0 1028.0 L 2113.0 1151.0 L 2236.0 1200.0 L 2113.0 1249.0 L 2064.0 1372.0 L 2015.0 1249.0 L 1892.0 1200.0 L 2015.0 1151.0 Z" fill="#dbb448"/>
<path d="M 2064.0 1892.0 L 2113.0 2015.0 L 2236.0 2064.0 L 2113.0 2113.0 L 2064.0 2236.0 L 2015.0 2113.0 L 1892.0 2064.0 L 2015.0 2015.0 Z" fill="#dbb448"/>
<circle cx="732.0" cy="1668.0" r="201.9408201754364" fill="#478547"/>

    <circle cx="732.0" cy="1668.0" r="186.7369658670766" stroke="#363659" stroke-width="40.40770861671959" fill="none"/>
    <rect x="711.7961456916402" y="1481.2630341329234" width="40.40770861671961" height="373.4739317341532" rx="0" fill="#363659"/>
    <rect x="545.2630341329234" y="1647.7961456916403" width="373.4739317341532" height="40.40770861671961" rx="0" fill="#363659"/>
    
<circle cx="502.1902961143721" cy="1897.8097038856279" r="73.16462862517848" fill="#ddddcc"/>
<path d="M459 1720A73.16462862517848 73.16462862517848 0 1 0 355 1616 91.4557857814731 91.4557857814731 1 0 0 459 1720z" fill="#ddddcc"/>
<path d="M554 1490A73.16462862517848 73.16462862517848 0 1 0 450 1386 z" fill="#ddddcc"/>
<path d="M784 1395A73.16462862517848 73.16462862517848 0 1 0 680 1291 91.4557857814731 91.4557857814731 0 0 1 784 1395z" fill="#ddddcc"/>

<path d="M1109 1720A73.16462862517848 73.16462862517848 0 1 0 1005 1616 91.4557857814731 91.4557857814731 0 0 1 1109 1720z" fill="#ddddcc"/>
<path d="M1014 1950A73.16462862517848 73.16462862517848 0 1 0 910 1846 z" fill="#ddddcc"/>
<path d="M784 2045A73.16462862517848 73.16462862517848 0 1 0 680 1941 91.4557857814731 91.4557857814731 1 0 0 784 2045z" fill="#ddddcc"/>
<path d="M 1200.0 1892.0 L 1249.0 2015.0 L 1372.0 2064.0 L 1249.0 2113.0 L 1200.0 2236.0 L 1151.0 2113.0 L 1028.0 2064.0 L 1151.0 2015.0 Z" fill="#dbb448"/>
<path d="M 336.0 1892.0 L 385.0 2015.0 L 508.0 2064.0 L 385.0 2113.0 L 336.0 2236.0 L 287.0 2113.0 L 164.0 2064.0 L 287.0 2015.0 Z" fill="#dbb448"/>
<circle cx="731.9999999999999" cy="732.0" r="201.9408201754364" fill="#478547"/>

    <circle cx="731.9999999999999" cy="732.0" r="186.7369658670766" stroke="#363659" stroke-width="40.40770861671959" fill="none"/>
    <rect x="711.79614569164" y="545.2630341329234" width="40.40770861671961" height="373.4739317341532" rx="0" fill="#363659"/>
    <rect x="545.2630341329233" y="711.7961456916402" width="373.4739317341532" height="40.40770861671961" rx="0" fill="#363659"/>
    
<circle cx="502.1902961143719" cy="502.1902961143721" r="73.16462862517848" fill="#ddddcc"/>
<path d="M680 459A73.16462862517848 73.16462862517848 0 1 0 784 355 91.4557857814731 91.4557857814731 1 0 0 680 459z" fill="#ddddcc"/>
<path d="M910 554A73.16462862517848 73.16462862517848 0 1 0 1014 450 z" fill="#ddddcc"/>
<path d="M1005 784A73.16462862517848 73.16462862517848 0 1 0 1109 680 91.4557857814731 91.4557857814731 0 0 1 1005 784z" fill="#ddddcc"/>

<path d="M680 1109A73.16462862517848 73.16462862517848 0 1 0 784 1005 91.4557857814731 91.4557857814731 0 0 1 680 1109z" fill="#ddddcc"/>
<path d="M450 1014A73.16462862517848 73.16462862517848 0 1 0 554 910 z" fill="#ddddcc"/>
<path d="M355 784A73.16462862517848 73.16462862517848 0 1 0 459 680 91.4557857814731 91.4557857814731 1 0 0 355 784z" fill="#ddddcc"/>
<path d="M 336.0 1028.0000000000002 L 385.0 1151.0000000000002 L 508.0 1200.0000000000002 L 385.0 1249.0000000000002 L 336.0 1372.0000000000002 L 287.0 1249.0000000000002 L 164.0 1200.0000000000002 L 287.0 1151.0000000000002 Z" fill="#dbb448"/>
<path d="M 335.99999999999983 164.00000000000023 L 384.99999999999983 287.0000000000002 L 507.99999999999983 336.0000000000002 L 384.99999999999983 385.0000000000002 L 335.99999999999983 508.0000000000002 L 286.99999999999983 385.0000000000002 L 163.99999999999983 336.0000000000002 L 286.99999999999983 287.0000000000002 Z" fill="#dbb448"/>
<circle cx="1668.0" cy="731.9999999999999" r="201.9408201754364" fill="#478547"/>

    <circle cx="1668.0" cy="731.9999999999999" r="186.7369658670766" stroke="#363659" stroke-width="40.40770861671959" fill="none"/>
    <rect x="1647.7961456916403" y="545.2630341329233" width="40.40770861671961" height="373.4739317341532" rx="0" fill="#363659"/>
    <rect x="1481.2630341329234" y="711.79614569164" width="373.4739317341532" height="40.40770861671961" rx="0" fill="#363659"/>
    
<circle cx="1897.8097038856279" cy="502.1902961143719" r="73.16462862517848" fill="#ddddcc"/>
<path d="M1941 680A73.16462862517848 73.16462862517848 0 1 0 2045 784 91.4557857814731 91.4557857814731 1 0 0 1941 680z" fill="#ddddcc"/>
<path d="M1846 910A73.16462862517848 73.16462862517848 0 1 0 1950 1014 z" fill="#ddddcc"/>
<path d="M1616 1005A73.16462862517848 73.16462862517848 0 1 0 1720 1109 91.4557857814731 91.4557857814731 0 0 1 1616 1005z" fill="#ddddcc"/>

<path d="M1291 680A73.16462862517848 73.16462862517848 0 1 0 1395 784 91.4557857814731 91.4557857814731 0 0 1 1291 680z" fill="#ddddcc"/>
<path d="M1386 450A73.16462862517848 73.16462862517848 0 1 0 1490 554 z" fill="#ddddcc"/>
<path d="M1616 355A73.16462862517848 73.16462862517848 0 1 0 1720 459 91.4557857814731 91.4557857814731 1 0 0 1616 355z" fill="#ddddcc"/>
<path d="M 1199.9999999999998 164.0 L 1248.9999999999998 287.0 L 1371.9999999999998 336.0 L 1248.9999999999998 385.0 L 1199.9999999999998 508.0 L 1150.9999999999998 385.0 L 1027.9999999999998 336.0 L 1150.9999999999998 287.0 Z" fill="#dbb448"/>
<path d="M 2064.0 163.99999999999983 L 2113.0 286.99999999999983 L 2236.0 335.99999999999983 L 2113.0 384.99999999999983 L 2064.0 507.99999999999983 L 2015.0 384.99999999999983 L 1892.0 335.99999999999983 L 2015.0 286.99999999999983 Z" fill="#dbb448"/>
</svg>