<svg height="2400" width="2400">
<rect x="0" y="0" width="2400" height="2400" rx="0" fill="#000000"/>
<path d="M 1340.0 863.0 L 1361.0 1039.0 L 1537.0 1060.0 L 1428.0 1200.0 L 1537.0 1340.0 L 1361.0 1361.0 L 1340.0 1537.0 L 1200.0 1428.0 L 1060.0 1537.0 L 1039.0 1361.0 L 863.0 1340.0 L 972.0 1200.0 L 863.0 1060.0 L 1039.0 1039.0 L 1060.0 863.0 L 1200.0 972.0 Z" fill="#994936"/>
<circle cx="1655.0" cy="1655.0" r="196.19246405945208" fill="#478547"/>

    <circle cx="1655.0" cy="1655.0" r="181.5498279263245" stroke="#363659" stroke-width="39.28527226625516" fill="none"/>
    <rect x="1635.3573638668724" y="1473.4501720736755" width="39.285272266255184" height="363.099655852649" rx="0" fill="#363659"/>
    <rect x="1473.4501720736755" y="1635.3573638668724" width="363.099655852649" height="39.285272266255184" rx="0" fill="#363659"/>
    
<circle cx="1878.4261009999161" cy="1878.4261009999161" r="71.13227783003465" fill="#ddddcc"/>
<path d="M1705 1921A71.13227783003465 71.13227783003465 0 1 0 1605 2021 88.91534728754331 88.91534728754331 1 0 0 1705 1921z" fill="#ddddcc"/>
<path d="M1482 1828A71.13227783003465 71.13227783003465 0 1 0 1381 1929 z" fill="#ddddcc"/>
<path d="M1389 1605A71.13227783003465 71.13227783003465 0 1 0 1289 1705 88.91534728754331 88.91534728754331 0 0 1 1389 1605z" fill="#ddddcc"/>

<path d="M1705 1289A71.13227783003465 71.13227783003465 0 1 0 1605 1389 88.91534728754331 88.91534728754331 0 0 1 1705 1289z" fill="#ddddcc"/>
<path d="M1929 1381A71.13227783003465 71.13227783003465 0 1 0 1828 1482 z" fill="#ddddcc"/>
<path d="M2021 1605A71.13227783003465 71.13227783003465 0 1 0 1921 1705 88.91534728754331 88.91534728754331 1 0 0 2021 1605z" fill="#ddddcc"/>
<path d="M 2040.0 1032.0 L 2087.0 1153.0 L 2208.0 1200.0 L 2087.0 1247.0 L 2040.0 1368.0 L 1993.0 1247.0 L 1872.0 1200.0 L 1993.0 1153.0 Z" fill="#dbb448"/>
<path d="M 2040.0 1872.0 L 2087.0 1993.0 L 2208.0 2040.0 L 2087.0 2087.0 L 2040.0 2208.0 L 1993.0 2087.0 L 1872.0 2040.0 L 1993.0 1993.0 Z" fill="#dbb448"/>
<circle cx="745.0" cy="1655.0" r="196.19246405945208" fill="#478547"/>

    <circle cx="745.0" cy="1655.0" r="181.5498279263245" stroke="#363659" stroke-width="39.28527226625516" fill="none"/>
    <rect x="725.3573638668724" y="1473.4501720736755" width="39.285272266255184" height="363.099655852649" rx="0" fill="#363659"/>
    <rect x="563.4501720736755" y="1635.3573638668724" width="363.099655852649" height="39.285272266255184" rx="0" fill="#363659"/>
    
<circle cx="521.573899000084" cy="1878.4261009999161" r="71.13227783003465" fill="#ddddcc"/>
<path d="M479 1705A71.13227783003465 71.13227783003465 0 1 0 379 1605 88.91534728754331 88.91534728754331 1 0 0 479 1705z" fill="#ddddcc"/>
<path d="M572 1482A71.13227783003465 71.13227783003465 0 1 0 471 1381 z" fill="#ddddcc"/>
<path d="M795 1389A71.13227783003465 71.13227783003465 0 1 0 695 1289 88.91534728754331 88.91534728754331 0 0 1 795 1389z" fill="#ddddcc"/>

<path d="M1111 1705A71.13227783003465 71.13227783003465 0 1 0 1011 1605 88.91534728754331 88.91534728754331 0 0 1 1111 1705z" fill="#ddddcc"/>
<path d="M1019 1929A71.13227783003465 71.13227783003465 0 1 0 918 1828 z" fill="#ddddcc"/>
<path d="M795 2021A71.13227783003465 71.13227783003465 0 1 0 695 1921 88.91534728754331 88.91534728754331 1 0 0 795 2021z" fill="#ddddcc"/>
<path d="M 1200.0 1872.0 L 1247.0 1993.0 L 1368.0 2040.0 L 1247.0 2087.0 L 1200.0 2208.0 L 1153.0 2087.0 L 1032.0 2040.0 L 1153.0 1993.0 Z" fill="#dbb448"/>
<path d="M 360.0 1872.0 L 407.0 1993.0 L 528.0 2040.0 L 407.0 2087.0 L 360.0 2208.0 L 313.0 2087.0 L 192.0 2040.0 L 313.0 1993.0 Z" fill="#dbb448"/>
<circle cx="745.0" cy="745.0" r="196.19246405945208" fill="#478547"/>

    <circle cx="745.0" cy="745.0" r="181.5498279263245" stroke="#363659" stroke-width="39.28527226625516" fill="none"/>
    <rect x="725.3573638668724" y="563.4501720736755" width="39.285272266255184" height="363.099655852649" rx="0" fill="#363659"/>
    <rect x="563.4501720736755" y="725.3573638668724" width="363.099655852649" height="39.285272266255184" rx="0" fill="#363659"/>
    
<circle cx="521.5738990000839" cy="521.573899000084" r="71.13227783003465" fill="#ddddcc"/>
<path d="M695 479A71.13227783003465 71.13227783003465 0 1 0 795 379 88.91534728754331 88.91534728754331 1 0 0 695 479z" fill="#ddddcc"/>
<path d="M918 572A71.13227783003465 71.13227783003465 0 1 0 1019 471 z" fill="#ddddcc"/>
<path d="M1011 795A71.13227783003465 71.13227783003465 0 1 0 1111 695 88.91534728754331 88.91534728754331 0 0 1 1011 795z" fill="#ddddcc"/>

<path d="M695 1111A71.13227783003465 71.13227783003465 0 1 0 795 1011 88.91534728754331 88.91534728754331 0 0 1 695 1111z" fill="#ddddcc"/>
<path d="M471 1019A71.13227783003465 71.13227783003465 0 1 0 572 918 z" fill="#ddddcc"/>
<path d="M379 795A71.13227783003465 71.13227783003465 0 1 0 479 695 88.91534728754331 88.91534728754331 1 0 0 379 795z" fill="#ddddcc"/>
<path d="M 360.0 1032.0000000000002 L 407.0 1153.0000000000002 L 528.0 1200.0000000000002 L 407.0 1247.0000000000002 L 360.0 1368.0000000000002 L 313.0 1247.0000000000002 L 192.0 1200.0000000000002 L 313.0 1153.0000000000002 Z" fill="#dbb448"/>
<path d="M 359.99999999999983 192.00000000000023 L 406.99999999999983 313.0000000000002 L 527.9999999999998 360.0000000000002 L 406.99999999999983 407.0000000000002 L 359.99999999999983 528.0000000000002 L 312.99999999999983 407.0000000000002 L 191.99999999999983 360.0000000000002 L 312.99999999999983 313.0000000000002 Z" fill="#dbb448"/>
<circle cx="1655.0" cy="745.0" r="196.19246405945208" fill="#478547"/>

    <circle cx="1655.0" cy="745.0" r="181.5498279263245" stroke="#363659" stroke-width="39.28527226625516" fill="none"/>
    <rect x="1635.3573638668724" y="563.4501720736755" width="39.285272266255184" height="363.099655852649" rx="0" fill="#363659"/>
    <rect x="1473.4501720736755" y="725.3573638668724" width="363.099655852649" height="39.285272266255184" rx="0" fill="#363659"/>
    
<circle cx="1878.426100999916" cy="521.5738990000839" r="71.13227783003465" fill="#ddddcc"/>
<path d="M1921 695A71.13227783003465 71.13227783003465 0 1 0 2021 795 88.91534728754331 88.91534728754331 1 0 0 1921 695z" fill="#ddddcc"/>
<path d="M1828 918A71.13227783003465 71.13227783003465 0 1 0 1929 1019 z" fill="#ddddcc"/>
<path d="M1605 1011A71.13227783003465 71.13227783003465 0 1 0 1705 1111 88.91534728754331 88.91534728754331 0 0 1 1605 1011z" fill="#ddddcc"/>

<path d="M1289 695A71.13227783003465 71.13227783003465 0 1 0 1389 795 88.91534728754331 88.91534728754331 0 0 1 1289 695z" fill="#ddddcc"/>
<path d="M1381 471A71.13227783003465 71.13227783003465 0 1 0 1482 572 z" fill="#ddddcc"/>
<path d="M1605 379A71.13227783003465 71.13227783003465 0 1 0 1705 479 88.91534728754331 88.91534728754331 1 0 0 1605 379z" fill="#ddddcc"/>
<path d="M 1199.9999999999998 192.0 L 1246.9999999999998 313.0 L 1367.9999999999998 360.0 L 1246.9999999999998 407.0 L 1199.9999999999998 528.0 L 1152.9999999999998 407.0 L 1031.9999999999998 360.0 L 1152.9999999999998 313.0 Z" fill="#dbb448"/>
<path d="M 2039.9999999999998 191.99999999999983 L 2087.0 312.99999999999983 L 2208.0 359.99999999999983 L 2087.0 406.99999999999983 L 2039.9999999999998 527.9999999999998 L 1992.9999999999998 406.99999999999983 L 1871.9999999999998 359.99999999999983 L 1992.9999999999998 312.99999999999983 Z" fill="#dbb448"/>
</svg>