<svg height="720" width="720">
<rect x="0" y="0" width="720" height="720" rx="0" fill="#000000"/>
<path d="M 402.0 259.0 L 408.0 312.0 L 461.0 318.0 L 428.0 360.0 L 461.0 402.0 L 408.0 408.0 L 402.0 461.0 L 360.0 428.0 L 318.0 461.0 L 312.0 408.0 L 259.0 402.0 L 292.0 360.0 L 259.0 318.0 L 312.0 312.0 L 318.0 259.0 L 360.0 292.0 Z" fill="#994936"/>
<circle cx="496.5" cy="496.5" r="58.85773921783562" fill="#478547"/>

    <circle cx="496.5" cy="496.5" r="54.46494837789734" stroke="#363659" stroke-width="11.78558167987655" fill="none"/>
    <rect x="490.6072091600617" y="442.0350516221026" width="11.785581679876556" height="108.92989675579469" rx="0" fill="#363659"/>
    <rect x="442.0350516221026" y="490.6072091600617" width="108.92989675579469" height="11.785581679876556" rx="0" fill="#363659"/>
    
<circle cx="563.5278302999748" cy="563.5278302999748" r="21.339683349010397" fill="#ddddcc"/>
<path d="M512 576A21.339683349010397 21.339683349010397 0 1 0 481 606 26.674604186262997 26.674604186262997 1 0 0 512 576z" fill="#ddddcc"/>
<path d="M445 548A21.339683349010397 21.339683349010397 0 1 0 414 579 z" fill="#ddddcc"/>
<path d="M417 481A21.339683349010397 21.339683349010397 0 1 0 387 512 26.674604186262997 26.674604186262997 0 0 1 417 481z" fill="#ddddcc"/>

<path d="M512 387A21.339683349010397 21.339683349010397 0 1 0 481 417 26.674604186262997 26.674604186262997 0 0 1 512 387z" fill="#ddddcc"/>
<path d="M579 414A21.339683349010397 21.339683349010397 0 1 0 548 445 z" fill="#ddddcc"/>
<path d="M606 481A21.339683349010397 21.339683349010397 0 1 0 576 512 26.674604186262997 26.674604186262997 1 0 0 606 481z" fill="#ddddcc"/>
<path d="M 612.0 310.0 L 626.0 346.0 L 662.0 360.0 L 626.0 374.0 L 612.0 410.0 L 598.0 374.0 L 562.0 360.0 L 598.0 346.0 Z" fill="#dbb448"/>
<path d="M 612.0 562.0 L 626.0 598.0 L 662.0 612.0 L 626.0 626.0 L 612.0 662.0 L 598.0 626.0 L 562.0 612.0 L 598.0 598.0 Z" fill="#dbb448"/>
<circle cx="223.50000000000003" cy="496.5" r="58.85773921783562" fill="#478547"/>

    <circle cx="223.50000000000003" cy="496.5" r="54.46494837789734" stroke="#363659" stroke-width="11.78558167987655" fill="none"/>
    <rect x="217.60720916006176" y="442.0350516221026" width="11.785581679876556" height="108.92989675579469" rx="0" fill="#363659"/>
    <rect x="169.03505162210269" y="490.6072091600617" width="108.92989675579469" height="11.785581679876556" rx="0" fill="#363659"/>
    
<circle cx="156.47216970002523" cy="563.5278302999748" r="21.339683349010397" fill="#ddddcc"/>
<path d="M144 512A21.339683349010397 21.339683349010397 0 1 0 114 481 26.674604186262997 26.674604186262997 1 0 0 144 512z" fill="#ddddcc"/>
<path d="M172 445A21.339683349010397 21.339683349010397 0 1 0 141 414 z" fill="#ddddcc"/>
<path d="M239 417A21.339683349010397 21.339683349010397 0 1 0 208 387 26.674604186262997 26.674604186262997 0 0 1 239 417z" fill="#ddddcc"/>

<path d="M333 512A21.339683349010397 21.339683349010397 0 1 0 303 481 26.674604186262997 26.674604186262997 0 0 1 333 512z" fill="#ddddcc"/>
<path d="M306 579A21.339683349010397 21.339683349010397 0 1 0 275 548 z" fill="#ddddcc"/>
<path d="M239 606A21.339683349010397 21.339683349010397 0 1 0 208 576 26.674604186262997 26.674604186262997 1 0 0 239 606z" fill="#ddddcc"/>
<path d="M 360.0 562.0 L 374.0 598.0 L 410.0 612.0 L 374.0 626.0 L 360.0 662.0 L 346.0 626.0 L 310.0 612.0 L 346.0 598.0 Z" fill="#dbb448"/>
<path d="M 108.00000000000003 562.0 L 122.00000000000003 598.0 L 158.00000000000003 612.0 L 122.00000000000003 626.0 L 108.00000000000003 662.0 L 94.00000000000003 626.0 L 58.00000000000003 612.0 L 94.00000000000003 598.0 Z" fill="#dbb448"/>
<circle cx="223.5" cy="223.50000000000003" r="58.85773921783562" fill="#478547"/>

    <circle cx="223.5" cy="223.50000000000003" r="54.46494837789734" stroke="#363659" stroke-width="11.78558167987655" fill="none"/>
    <rect x="217.60720916006173" y="169.03505162210269" width="11.785581679876556" height="108.92989675579469" rx="0" fill="#363659"/>
    <rect x="169.03505162210266" y="217.60720916006176" width="108.92989675579469" height="11.785581679876556" rx="0" fill="#363659"/>
    
<circle cx="156.47216970002518" cy="156.47216970002523" r="21.339683349010397" fill="#ddddcc"/>
<path d="M208 144A21.339683349010397 21.339683349010397 0 1 0 239 114 26.674604186262997 26.674604186262997 1 0 0 208 144z" fill="#ddddcc"/>
<path d="M275 172A21.339683349010397 21.339683349010397 0 1 0 306 141 z" fill="#ddddcc"/>
<path d="M303 239A21.339683349010397 21.339683349010397 0 1 0 333 208 26.674604186262997 26.674604186262997 0 0 1 303 239z" fill="#ddddcc"/>

<path d="M208 333A21.339683349010397 21.339683349010397 0 1 0 239 303 26.674604186262997 26.674604186262997 0 0 1 208 333z" fill="#ddddcc"/>
<path d="M141 306A21.339683349010397 21.339683349010397 0 1 0 172 275 z" fill="#ddddcc"/>
<path d="M114 239A21.339683349010397 21.339683349010397 0 1 0 144 208 26.674604186262997 26.674604186262997 1 0 0 114 239z" fill="#ddddcc"/>
<path d="M 108.00000000000003 310.00000000000006 L 122.00000000000003 346.00000000000006 L 158.00000000000003 360.00000000000006 L 122.00000000000003 374.00000000000006 L 108.00000000000003 410.00000000000006 L 94.00000000000003 374.00000000000006 L 58.00000000000003 360.00000000000006 L 94.00000000000003 346.00000000000006 Z" fill="#dbb448"/>
<path d="M 107.99999999999999 58.000000000000085 L 121.99999999999999 94.00000000000009 L 158.0 108.00000000000009 L 121.99999999999999 122.00000000000009 L 107.99999999999999 158.00000000000009 L 93.99999999999999 122.00000000000009 L 57.999999999999986 108.00000000000009 L 93.99999999999999 94.00000000000009 Z" fill="#dbb448"/>
<circle cx="496.49999999999994" cy="223.5" r="58.85773921783562" fill="#478547"/>

    <circle cx="496.49999999999994" cy="223.5" r="54.46494837789734" stroke="#363659" stroke-width="11.78558167987655" fill="none"/>
    <rect x="490.60720916006164" y="169.03505162210266" width="11.785581679876556" height="108.92989675579469" rx="0" fill="#363659"/>
    <rect x="442.0350516221026" y="217.60720916006173" width="108.92989675579469" height="11.785581679876556" rx="0" fill="#363659"/>
    
<circle cx="563.5278302999748" cy="156.47216970002518" r="21.339683349010397" fill="#ddddcc"/>
<path d="M576 208A21.339683349010397 21.339683349010397 0 1 0 606 239 26.674604186262997 26.674604186262997 1 0 0 576 208z" fill="#ddddcc"/>
<path d="M548 275A21.339683349010397 21.339683349010397 0 1 0 579 306 z" fill="#ddddcc"/>
<path d="M481 303A21.339683349010397 21.339683349010397 0 1 0 512 333 26.674604186262997 26.674604186262997 0 0 1 481 303z" fill="#ddddcc"/>

<path d="M387 208A21.339683349010397 21.339683349010397 0 1 0 417 239 26.674604186262997 26.674604186262997 0 0 1 387 208z" fill="#ddddcc"/>
<path d="M414 141A21.339683349010397 21.339683349010397 0 1 0 445 172 z" fill="#ddddcc"/>
<path d="M481 114A21.339683349010397 21.339683349010397 0 1 0 512 144 26.674604186262997 26.674604186262997 1 0 0 481 114z" fill="#ddddcc"/>
<path d="M 359.99999999999994 58.00000000000003 L 373.99999999999994 94.00000000000003 L 409.99999999999994 108.00000000000003 L 373.99999999999994 122.00000000000003 L 359.99999999999994 158.00000000000003 L 345.99999999999994 122.00000000000003 L 309.99999999999994 108.00000000000003 L 345.99999999999994 94.00000000000003 Z" fill="#dbb448"/>
<path d="M 611.9999999999999 57.999999999999986 L 625.9999999999999 93.99999999999999 L 661.9999999999999 107.99999999999999 L 625.9999999999999 121.99999999999999 L 611.9999999999999 158.0 L 597.9999999999999 121.99999999999999 L 561.9999999999999 107.99999999999999 L 597.9999999999999 93.99999999999999 Z" fill="#dbb448"/>
</svg>