<svg height="1600" width="1492">
<rect width="100%" height="100%" fill="black"/>
<rect x="90" y="775" width="6" height="100" rx="0" fill="#ffffff" transform="rotate(120, 93, 825)"/>
<circle cx="50" cy="800" r="26" fill="#ffffff"/>
<circle cx="50" cy="800" r="20" fill="#0077ff"/>
<rect x="177" y="775" width="6" height="100" rx="0" fill="#ffffff" transform="rotate(60, 180, 825)"/>
<rect x="134" y="850" width="6" height="100" rx="0" fill="#ffffff" transform="rotate(0, 137, 900)"/>
<circle cx="137" cy="850" r="26" fill="#ffffff"/>
<circle cx="137" cy="850" r="20" fill="#000000"/>
<rect x="213" y="700" width="6" height="100" rx="0" fill="#ffffff" transform="rotate(0, 224, 750)"/>
<rect x="229" y="700" width="6" height="100" rx="0" fill="#ffffff" transform="rotate(0, 224, 750)"/>
<rect x="264" y="775" width="6" height="100" rx="0" fill="#ffffff" transform="rotate(120, 267, 825)"/>
<circle cx="224" cy="800" r="26" fill="#ffffff"/>
<circle cx="224" cy="800" r="20" fill="#000000"/>
<rect x="177" y="925" width="6" height="100" rx="0" fill="#ffffff" transform="rotate(120, 180, 975)"/>
<circle cx="137" cy="950" r="26" fill="#ffffff"/>
<circle cx="137" cy="950" r="20" fill="#000000"/>
<circle cx="224" cy="700" r="26" fill="#ffffff"/>
<circle cx="224" cy="700" r="20" fill="#ff0000"/>
<rect x="351" y="775" width="6" height="100" rx="0" fill="#ffffff" transform="rotate(60, 354, 825)"/>
<circle cx="311" cy="850" r="26" fill="#ffffff"/>
<circle cx="311" cy="850" r="20" fill="#0077ff"/>
<circle cx="224" cy="1000" r="26" fill="#ffffff"/>
<circle cx="224" cy="1000" r="20" fill="#ffff00"/>
<rect x="438" y="775" width="6" height="100" rx="0" fill="#ffffff" transform="rotate(120, 441, 825)"/>
<rect x="395" y="700" width="6" height="100" rx="0" fill="#ffffff" transform="rotate(0, 398, 750)"/>
<circle cx="398" cy="800" r="26" fill="#ffffff"/>
<circle cx="398" cy="800" r="20" fill="#000000"/>
<rect x="474" y="850" width="6" height="100" rx="0" fill="#ffffff" transform="rotate(0, 485, 900)"/>
<rect x="490" y="850" width="6" height="100" rx="0" fill="#ffffff" transform="rotate(0, 485, 900)"/>
<rect x="525" y="775" width="6" height="100" rx="0" fill="#ffffff" transform="rotate(60, 528, 825)"/>
<circle cx="485" cy="850" r="26" fill="#ffffff"/>
<circle cx="485" cy="850" r="20" fill="#000000"/>
<rect x="438" y="625" width="6" height="100" rx="0" fill="#ffffff" transform="rotate(60, 441, 675)"/>
<circle cx="398" cy="700" r="26" fill="#ffffff"/>
<circle cx="398" cy="700" r="20" fill="#000000"/>
<circle cx="485" cy="950" r="26" fill="#ffffff"/>
<circle cx="485" cy="950" r="20" fill="#ff0000"/>
<rect x="612" y="775" width="6" height="100" rx="0" fill="#ffffff" transform="rotate(120, 615, 825)"/>
<circle cx="572" cy="800" r="26" fill="#ffffff"/>
<circle cx="572" cy="800" r="20" fill="#0077ff"/>
<rect x="482" y="550" width="6" height="100" rx="0" fill="#ffffff" transform="rotate(0, 485, 600)"/>
<circle cx="485" cy="650" r="26" fill="#ffffff"/>
<circle cx="485" cy="650" r="20" fill="#000000"/>
<rect x="699" y="775" width="6" height="100" rx="0" fill="#ffffff" transform="rotate(60, 702, 825)"/>
<rect x="656" y="850" width="6" height="100" rx="0" fill="#ffffff" transform="rotate(0, 659, 900)"/>
<circle cx="659" cy="850" r="26" fill="#ffffff"/>
<circle cx="659" cy="850" r="20" fill="#000000"/>
<rect x="525" y="475" width="6" height="100" rx="0" fill="#ffffff" transform="rotate(60, 528, 525)"/>
<circle cx="485" cy="550" r="26" fill="#ffffff"/>
<circle cx="485" cy="550" r="20" fill="#000000"/>
<rect x="735" y="700" width="6" height="100" rx="0" fill="#ffffff" transform="rotate(0, 746, 750)"/>
<rect x="751" y="700" width="6" height="100" rx="0" fill="#ffffff" transform="rotate(0, 746, 750)"/>
<rect x="786" y="775" width="6" height="100" rx="0" fill="#ffffff" transform="rotate(120, 789, 825)"/>
<circle cx="746" cy="800" r="26" fill="#ffffff"/>
<circle cx="746" cy="800" r="20" fill="#000000"/>
<rect x="699" y="925" width="6" height="100" rx="0" fill="#ffffff" transform="rotate(120, 702, 975)"/>
<circle cx="659" cy="950" r="26" fill="#ffffff"/>
<circle cx="659" cy="950" r="20" fill="#000000"/>
<rect x="569" y="400" width="6" height="100" rx="0" fill="#ffffff" transform="rotate(0, 572, 450)"/>
<circle cx="572" cy="500" r="26" fill="#ffffff"/>
<circle cx="572" cy="500" r="20" fill="#000000"/>
<circle cx="746" cy="700" r="26" fill="#ffffff"/>
<circle cx="746" cy="700" r="20" fill="#ff0000"/>
<rect x="873" y="775" width="6" height="100" rx="0" fill="#ffffff" transform="rotate(60, 876, 825)"/>
<circle cx="833" cy="850" r="26" fill="#ffffff"/>
<circle cx="833" cy="850" r="20" fill="#0077ff"/>
<rect x="778" y="925" width="6" height="100" rx="0" fill="#ffffff" transform="rotate(60, 789, 975)"/>
<rect x="794" y="925" width="6" height="100" rx="0" fill="#ffffff" transform="rotate(60, 789, 975)"/>
<rect x="743" y="1000" width="6" height="100" rx="0" fill="#ffffff" transform="rotate(0, 746, 1050)"/>
<circle cx="746" cy="1000" r="26" fill="#ffffff"/>
<circle cx="746" cy="1000" r="20" fill="#000000"/>
<rect x="612" y="325" width="6" height="100" rx="0" fill="#ffffff" transform="rotate(60, 615, 375)"/>
<circle cx="572" cy="400" r="26" fill="#ffffff"/>
<circle cx="572" cy="400" r="20" fill="#0077ff"/>
<rect x="960" y="775" width="6" height="100" rx="0" fill="#ffffff" transform="rotate(120, 963, 825)"/>
<rect x="917" y="700" width="6" height="100" rx="0" fill="#ffffff" transform="rotate(0, 920, 750)"/>
<circle cx="920" cy="800" r="26" fill="#ffffff"/>
<circle cx="920" cy="800" r="20" fill="#000000"/>
<circle cx="833" cy="950" r="26" fill="#ffffff"/>
<circle cx="833" cy="950" r="20" fill="#ff0000"/>
<circle cx="746" cy="1100" r="26" fill="#ffffff"/>
<circle cx="746" cy="1100" r="20" fill="#0077ff"/>
<rect x="691" y="325" width="6" height="100" rx="0" fill="#ffffff" transform="rotate(120, 702, 375)"/>
<rect x="707" y="325" width="6" height="100" rx="0" fill="#ffffff" transform="rotate(120, 702, 375)"/>
<rect x="656" y="250" width="6" height="100" rx="0" fill="#ffffff" transform="rotate(0, 659, 300)"/>
<circle cx="659" cy="350" r="26" fill="#ffffff"/>
<circle cx="659" cy="350" r="20" fill="#000000"/>
<rect x="996" y="850" width="6" height="100" rx="0" fill="#ffffff" transform="rotate(0, 1007, 900)"/>
<rect x="1012" y="850" width="6" height="100" rx="0" fill="#ffffff" transform="rotate(0, 1007, 900)"/>
<rect x="1047" y="775" width="6" height="100" rx="0" fill="#ffffff" transform="rotate(60, 1050, 825)"/>
<circle cx="1007" cy="850" r="26" fill="#ffffff"/>
<circle cx="1007" cy="850" r="20" fill="#000000"/>
<rect x="960" y="625" width="6" height="100" rx="0" fill="#ffffff" transform="rotate(60, 963, 675)"/>
<circle cx="920" cy="700" r="26" fill="#ffffff"/>
<circle cx="920" cy="700" r="20" fill="#000000"/>
<circle cx="746" cy="400" r="26" fill="#ffffff"/>
<circle cx="746" cy="400" r="20" fill="#ff0000"/>
<rect x="696" y="170" width="6" height="100" rx="0" fill="#ffffff" transform="rotate(54, 699, 220)"/>
<rect x="615" y="170" width="6" height="100" rx="0" fill="#ffffff" transform="rotate(126, 618, 220)"/>
<circle cx="659" cy="250" r="26" fill="#ffffff"/>
<circle cx="659" cy="250" r="20" fill="#000000"/>
<circle cx="1007" cy="950" r="26" fill="#ffffff"/>
<circle cx="1007" cy="950" r="20" fill="#ff0000"/>
<rect x="1134" y="775" width="6" height="100" rx="0" fill="#ffffff" transform="rotate(120, 1137, 825)"/>
<circle cx="1094" cy="800" r="26" fill="#ffffff"/>
<circle cx="1094" cy="800" r="20" fill="#0077ff"/>
<rect x="1004" y="550" width="6" height="100" rx="0" fill="#ffffff" transform="rotate(0, 1007, 600)"/>
<circle cx="1007" cy="650" r="26" fill="#ffffff"/>
<circle cx="1007" cy="650" r="20" fill="#000000"/>
<rect x="721" y="93" width="6" height="100" rx="0" fill="#ffffff" transform="rotate(162, 724, 143)"/>
<circle cx="740" cy="191" r="26" fill="#ffffff"/>
<circle cx="740" cy="191" r="20" fill="#000000"/>
<rect x="582" y="93" width="6" height="100" rx="0" fill="#ffffff" transform="rotate(18, 593, 143)"/>
<rect x="598" y="93" width="6" height="100" rx="0" fill="#ffffff" transform="rotate(18, 593, 143)"/>
<circle cx="578" cy="191" r="26" fill="#ffffff"/>
<circle cx="578" cy="191" r="20" fill="#0077ff"/>
<rect x="1221" y="775" width="6" height="100" rx="0" fill="#ffffff" transform="rotate(60, 1224, 825)"/>
<rect x="1178" y="850" width="6" height="100" rx="0" fill="#ffffff" transform="rotate(0, 1181, 900)"/>
<circle cx="1181" cy="850" r="26" fill="#ffffff"/>
<circle cx="1181" cy="850" r="20" fill="#000000"/>
<rect x="1047" y="475" width="6" height="100" rx="0" fill="#ffffff" transform="rotate(60, 1050, 525)"/>
<circle cx="1007" cy="550" r="26" fill="#ffffff"/>
<circle cx="1007" cy="550" r="20" fill="#000000"/>
<rect x="656" y="46" width="6" height="100" rx="0" fill="#ffffff" transform="rotate(90, 659, 96)"/>
<circle cx="709" cy="96" r="26" fill="#ffffff"/>
<circle cx="709" cy="96" r="20" fill="#000000"/>
<circle cx="609" cy="96" r="26" fill="#ffffff"/>
<circle cx="609" cy="96" r="20" fill="#000000"/>
<rect x="1257" y="700" width="6" height="100" rx="0" fill="#ffffff" transform="rotate(0, 1268, 750)"/>
<rect x="1273" y="700" width="6" height="100" rx="0" fill="#ffffff" transform="rotate(0, 1268, 750)"/>
<rect x="1308" y="775" width="6" height="100" rx="0" fill="#ffffff" transform="rotate(120, 1311, 825)"/>
<circle cx="1268" cy="800" r="26" fill="#ffffff"/>
<circle cx="1268" cy="800" r="20" fill="#000000"/>
<rect x="1221" y="925" width="6" height="100" rx="0" fill="#ffffff" transform="rotate(120, 1224, 975)"/>
<circle cx="1181" cy="950" r="26" fill="#ffffff"/>
<circle cx="1181" cy="950" r="20" fill="#000000"/>
<rect x="1091" y="400" width="6" height="100" rx="0" fill="#ffffff" transform="rotate(0, 1094, 450)"/>
<circle cx="1094" cy="500" r="26" fill="#ffffff"/>
<circle cx="1094" cy="500" r="20" fill="#000000"/>
<circle cx="609" cy="96" r="26" fill="#ffffff"/>
<circle cx="609" cy="96" r="20" fill="#000000"/>
<circle cx="1268" cy="700" r="26" fill="#ffffff"/>
<circle cx="1268" cy="700" r="20" fill="#ff0000"/>
<circle cx="1355" cy="850" r="26" fill="#ffffff"/>
<circle cx="1355" cy="850" r="20" fill="#ff0000"/>
<rect x="1265" y="1000" width="6" height="100" rx="0" fill="#ffffff" transform="rotate(0, 1268, 1050)"/>
<circle cx="1268" cy="1000" r="26" fill="#ffffff"/>
<circle cx="1268" cy="1000" r="20" fill="#000000"/>
<rect x="1134" y="325" width="6" height="100" rx="0" fill="#ffffff" transform="rotate(60, 1137, 375)"/>
<circle cx="1094" cy="400" r="26" fill="#ffffff"/>
<circle cx="1094" cy="400" r="20" fill="#0077ff"/>
<rect x="1308" y="1075" width="6" height="100" rx="0" fill="#ffffff" transform="rotate(120, 1311, 1125)"/>
<circle cx="1268" cy="1100" r="26" fill="#ffffff"/>
<circle cx="1268" cy="1100" r="20" fill="#000000"/>
<rect x="1213" y="325" width="6" height="100" rx="0" fill="#ffffff" transform="rotate(120, 1224, 375)"/>
<rect x="1229" y="325" width="6" height="100" rx="0" fill="#ffffff" transform="rotate(120, 1224, 375)"/>
<rect x="1178" y="250" width="6" height="100" rx="0" fill="#ffffff" transform="rotate(0, 1181, 300)"/>
<circle cx="1181" cy="350" r="26" fill="#ffffff"/>
<circle cx="1181" cy="350" r="20" fill="#000000"/>
<rect x="1352" y="1150" width="6" height="100" rx="0" fill="#ffffff" transform="rotate(0, 1355, 1200)"/>
<circle cx="1355" cy="1150" r="26" fill="#ffffff"/>
<circle cx="1355" cy="1150" r="20" fill="#0077ff"/>
<circle cx="1268" cy="400" r="26" fill="#ffffff"/>
<circle cx="1268" cy="400" r="20" fill="#ff0000"/>
<rect x="1218" y="170" width="6" height="100" rx="0" fill="#ffffff" transform="rotate(54, 1221, 220)"/>
<rect x="1137" y="170" width="6" height="100" rx="0" fill="#ffffff" transform="rotate(126, 1140, 220)"/>
<circle cx="1181" cy="250" r="26" fill="#ffffff"/>
<circle cx="1181" cy="250" r="20" fill="#000000"/>
<rect x="1387" y="1225" width="6" height="100" rx="0" fill="#ffffff" transform="rotate(120, 1398, 1275)"/>
<rect x="1403" y="1225" width="6" height="100" rx="0" fill="#ffffff" transform="rotate(120, 1398, 1275)"/>
<rect x="1308" y="1225" width="6" height="100" rx="0" fill="#ffffff" transform="rotate(60, 1311, 1275)"/>
<circle cx="1355" cy="1250" r="26" fill="#ffffff"/>
<circle cx="1355" cy="1250" r="20" fill="#000000"/>
<rect x="1243" y="93" width="6" height="100" rx="0" fill="#ffffff" transform="rotate(162, 1246, 143)"/>
<circle cx="1262" cy="191" r="26" fill="#ffffff"/>
<circle cx="1262" cy="191" r="20" fill="#000000"/>
<rect x="1104" y="93" width="6" height="100" rx="0" fill="#ffffff" transform="rotate(18, 1115, 143)"/>
<rect x="1120" y="93" width="6" height="100" rx="0" fill="#ffffff" transform="rotate(18, 1115, 143)"/>
<circle cx="1100" cy="191" r="26" fill="#ffffff"/>
<circle cx="1100" cy="191" r="20" fill="#0077ff"/>
<circle cx="1442" cy="1300" r="26" fill="#ffffff"/>
<circle cx="1442" cy="1300" r="20" fill="#0077ff"/>
<circle cx="1268" cy="1300" r="26" fill="#ffffff"/>
<circle cx="1268" cy="1300" r="20" fill="#0077ff"/>
<rect x="1178" y="46" width="6" height="100" rx="0" fill="#ffffff" transform="rotate(90, 1181, 96)"/>
<circle cx="1231" cy="96" r="26" fill="#ffffff"/>
<circle cx="1231" cy="96" r="20" fill="#000000"/>
<circle cx="1131" cy="96" r="26" fill="#ffffff"/>
<circle cx="1131" cy="96" r="20" fill="#000000"/>
<circle cx="1131" cy="96" r="26" fill="#ffffff"/>
<circle cx="1131" cy="96" r="20" fill="#000000"/>
</svg>