<svg height="1400" width="1144">
<rect width="100%" height="100%" fill="black"/>
<rect x="90" y="675" width="6" height="100" rx="0" fill="#ffffff" transform="rotate(120, 93, 725)"/>
<circle cx="50" cy="700" r="26" fill="#ffffff"/>
<circle cx="50" cy="700" r="20" fill="#0077ff"/>
<rect x="177" y="675" width="6" height="100" rx="0" fill="#ffffff" transform="rotate(60, 180, 725)"/>
<rect x="134" y="750" width="6" height="100" rx="0" fill="#ffffff" transform="rotate(0, 137, 800)"/>
<circle cx="137" cy="750" r="26" fill="#ffffff"/>
<circle cx="137" cy="750" r="20" fill="#000000"/>
<rect x="213" y="600" width="6" height="100" rx="0" fill="#ffffff" transform="rotate(0, 224, 650)"/>
<rect x="229" y="600" width="6" height="100" rx="0" fill="#ffffff" transform="rotate(0, 224, 650)"/>
<rect x="264" y="675" width="6" height="100" rx="0" fill="#ffffff" transform="rotate(120, 267, 725)"/>
<circle cx="224" cy="700" r="26" fill="#ffffff"/>
<circle cx="224" cy="700" r="20" fill="#000000"/>
<circle cx="137" cy="850" r="26" fill="#ffffff"/>
<circle cx="137" cy="850" r="20" fill="#000000"/>
<circle cx="224" cy="600" r="26" fill="#ffffff"/>
<circle cx="224" cy="600" r="20" fill="#ff0000"/>
<rect x="351" y="675" width="6" height="100" rx="0" fill="#ffffff" transform="rotate(60, 354, 725)"/>
<circle cx="311" cy="750" r="26" fill="#ffffff"/>
<circle cx="311" cy="750" r="20" fill="#0077ff"/>
<rect x="438" y="675" width="6" height="100" rx="0" fill="#ffffff" transform="rotate(120, 441, 725)"/>
<rect x="395" y="600" width="6" height="100" rx="0" fill="#ffffff" transform="rotate(0, 398, 650)"/>
<circle cx="398" cy="700" r="26" fill="#ffffff"/>
<circle cx="398" cy="700" r="20" fill="#000000"/>
<rect x="474" y="750" width="6" height="100" rx="0" fill="#ffffff" transform="rotate(0, 485, 800)"/>
<rect x="490" y="750" width="6" height="100" rx="0" fill="#ffffff" transform="rotate(0, 485, 800)"/>
<rect x="525" y="675" width="6" height="100" rx="0" fill="#ffffff" transform="rotate(60, 528, 725)"/>
<circle cx="485" cy="750" r="26" fill="#ffffff"/>
<circle cx="485" cy="750" r="20" fill="#000000"/>
<rect x="438" y="525" width="6" height="100" rx="0" fill="#ffffff" transform="rotate(60, 441, 575)"/>
<circle cx="398" cy="600" r="26" fill="#ffffff"/>
<circle cx="398" cy="600" r="20" fill="#000000"/>
<circle cx="485" cy="850" r="26" fill="#ffffff"/>
<circle cx="485" cy="850" r="20" fill="#ff0000"/>
<rect x="612" y="675" width="6" height="100" rx="0" fill="#ffffff" transform="rotate(120, 615, 725)"/>
<circle cx="572" cy="700" r="26" fill="#ffffff"/>
<circle cx="572" cy="700" r="20" fill="#0077ff"/>
<rect x="482" y="450" width="6" height="100" rx="0" fill="#ffffff" transform="rotate(0, 485, 500)"/>
<rect x="525" y="525" width="6" height="100" rx="0" fill="#ffffff" transform="rotate(120, 528, 575)"/>
<circle cx="485" cy="550" r="26" fill="#ffffff"/>
<circle cx="485" cy="550" r="20" fill="#000000"/>
<rect x="699" y="675" width="6" height="100" rx="0" fill="#ffffff" transform="rotate(60, 702, 725)"/>
<rect x="656" y="750" width="6" height="100" rx="0" fill="#ffffff" transform="rotate(0, 659, 800)"/>
<circle cx="659" cy="750" r="26" fill="#ffffff"/>
<circle cx="659" cy="750" r="20" fill="#000000"/>
<circle cx="485" cy="450" r="26" fill="#ffffff"/>
<circle cx="485" cy="450" r="20" fill="#000000"/>
<circle cx="572" cy="600" r="26" fill="#ffffff"/>
<circle cx="572" cy="600" r="20" fill="#000000"/>
<rect x="735" y="600" width="6" height="100" rx="0" fill="#ffffff" transform="rotate(0, 746, 650)"/>
<rect x="751" y="600" width="6" height="100" rx="0" fill="#ffffff" transform="rotate(0, 746, 650)"/>
<rect x="786" y="675" width="6" height="100" rx="0" fill="#ffffff" transform="rotate(120, 789, 725)"/>
<circle cx="746" cy="700" r="26" fill="#ffffff"/>
<circle cx="746" cy="700" r="20" fill="#000000"/>
<rect x="612" y="825" width="6" height="100" rx="0" fill="#ffffff" transform="rotate(60, 615, 875)"/>
<rect x="699" y="825" width="6" height="100" rx="0" fill="#ffffff" transform="rotate(120, 702, 875)"/>
<circle cx="659" cy="850" r="26" fill="#ffffff"/>
<circle cx="659" cy="850" r="20" fill="#000000"/>
<circle cx="746" cy="600" r="26" fill="#ffffff"/>
<circle cx="746" cy="600" r="20" fill="#ff0000"/>
<rect x="873" y="675" width="6" height="100" rx="0" fill="#ffffff" transform="rotate(60, 876, 725)"/>
<circle cx="833" cy="750" r="26" fill="#ffffff"/>
<circle cx="833" cy="750" r="20" fill="#0077ff"/>
<circle cx="572" cy="900" r="26" fill="#ffffff"/>
<circle cx="572" cy="900" r="20" fill="#000000"/>
<rect x="743" y="900" width="6" height="100" rx="0" fill="#ffffff" transform="rotate(0, 746, 950)"/>
<circle cx="746" cy="900" r="26" fill="#ffffff"/>
<circle cx="746" cy="900" r="20" fill="#000000"/>
<rect x="960" y="675" width="6" height="100" rx="0" fill="#ffffff" transform="rotate(120, 963, 725)"/>
<rect x="917" y="600" width="6" height="100" rx="0" fill="#ffffff" transform="rotate(0, 920, 650)"/>
<circle cx="920" cy="700" r="26" fill="#ffffff"/>
<circle cx="920" cy="700" r="20" fill="#000000"/>
<circle cx="746" cy="1000" r="26" fill="#ffffff"/>
<circle cx="746" cy="1000" r="20" fill="#000000"/>
<rect x="996" y="750" width="6" height="100" rx="0" fill="#ffffff" transform="rotate(0, 1007, 800)"/>
<rect x="1012" y="750" width="6" height="100" rx="0" fill="#ffffff" transform="rotate(0, 1007, 800)"/>
<rect x="1047" y="675" width="6" height="100" rx="0" fill="#ffffff" transform="rotate(60, 1050, 725)"/>
<circle cx="1007" cy="750" r="26" fill="#ffffff"/>
<circle cx="1007" cy="750" r="20" fill="#000000"/>
<circle cx="920" cy="600" r="26" fill="#ffffff"/>
<circle cx="920" cy="600" r="20" fill="#000000"/>
<circle cx="1007" cy="850" r="26" fill="#ffffff"/>
<circle cx="1007" cy="850" r="20" fill="#ff0000"/>
<circle cx="1094" cy="700" r="26" fill="#ffffff"/>
<circle cx="1094" cy="700" r="20" fill="#ff0000"/>
</svg>