<svg height="1000" width="1000">
<path d="M 500 0C 512 54, 634 92, 646 146 C 693 116, 807 176, 854 146 C 824 193, 884 307, 854 354 C 908 366, 946 488, 1000 500 C 946 512, 908 634, 854 646 C 884 693, 824 807, 854 854 C 807 824, 693 884, 646 854 C 634 908, 512 946, 500 1000 C 488 946, 366 908, 354 854 C 307 884, 193 824, 146 854 C 176 807, 116 693, 146 646 C 92 634, 54 512, 0 500 C 54 488, 92 366, 146 354 C 116 307, 176 193, 146 146 C 193 176, 307 116, 354 146 C 366 92, 488 54, 500 0 Z" fill="black"/>
</svg>