<svg height="1000" width="1000">
<path d="M 499.9999999999999 0.0C 512.2038841172271 53.87055078389386, 634.2427252894992 92.57605862283242, 646.4466094067263 146.44660940672628 C 693.1682903883781 116.98382685728679, 806.8317096116219 175.90939195616568, 853.5533905932737 146.44660940672617 C 824.0906080438342 193.16829038837793, 883.0161731427131 306.83170961162176, 853.5533905932737 353.55339059327355 C 907.4239413771675 365.7572747105007, 946.1294492161062 487.7961158827727, 1000.0 499.9999999999999 C 946.1294492161062 512.2038841172271, 907.4239413771676 634.2427252894992, 853.5533905932738 646.4466094067263 C 883.0161731427132 693.1682903883781, 824.0906080438344 806.8317096116219, 853.5533905932739 853.5533905932737 C 806.8317096116222 824.0906080438342, 693.1682903883783 883.0161731427131, 646.4466094067266 853.5533905932737 C 634.2427252894994 907.4239413771675, 512.2038841172274 946.1294492161062, 500.00000000000017 1000.0 C 487.79611588277294 946.1294492161062, 365.75727471050095 907.4239413771676, 353.5533905932737 853.5533905932738 C 306.83170961162205 883.0161731427133, 193.16829038837835 824.0906080438345, 146.44660940672668 853.5533905932741 C 175.9093919561661 806.8317096116223, 116.98382685728693 693.1682903883784, 146.44660940672634 646.4466094067266 C 92.57605862283248 634.2427252894994, 53.87055078389386 512.2038841172274, 0.0 500.00000000000017 C 53.87055078389385 487.79611588277294, 92.57605862283238 365.75727471050095, 146.44660940672622 353.5533905932737 C 116.98382685728679 306.83170961162193, 175.9093919561659 193.16829038837784, 146.44660940672645 146.44660940672605 C 193.1682903883782 175.90939195616556, 306.8317096116223 116.98382685728662, 353.55339059327406 146.4466094067261 C 365.7572747105012 92.57605862283228, 487.79611588277277 53.87055078389384, 499.9999999999999 0.0 Z" fill="black"/>
</svg>