<svg height="2400" width="2400">
<rect width="100%" height="100%" fill="white"/>
<rect x="0" y="0" width="1200" height="1200" rx="0" fill="#8866cc"/>
<rect x="0" y="1200" width="1200" height="1200" rx="0" fill="#99ddff"/>
<rect x="1200" y="0" width="1200" height="1200" rx="0" fill="#99ddff"/>
<rect x="1200" y="1200" width="1200" height="1200" rx="0" fill="#66cc88"/>
<circle cx="0" cy="600" r="200" fill="#66cc88"/>
<circle cx="0" cy="1800" r="200" fill="#99ddff"/>
<circle cx="600" cy="0" r="200" fill="#8866cc"/>
<circle cx="600" cy="1200" r="200" fill="#66cc88"/>
<circle cx="600" cy="2400" r="200" fill="#99ddff"/>
<circle cx="1200" cy="600" r="200" fill="#8866cc"/>
<circle cx="1200" cy="1800" r="200" fill="#66cc88"/>
<circle cx="1800" cy="0" r="200" fill="#99ddff"/>
<circle cx="1800" cy="1200" r="200" fill="#8866cc"/>
<circle cx="1800" cy="2400" r="200" fill="#66cc88"/>
<circle cx="2400" cy="600" r="200" fill="#99ddff"/>
<circle cx="2400" cy="1800" r="200" fill="#8866cc"/>
</svg>