<svg height="1400" width="2188">
<rect width="100%" height="100%" fill="black"/>
<rect x="90" y="675" width="6" height="100" rx="0" fill="#ffffff" transform="rotate(120, 93, 725)"/>
<circle cx="50" cy="700" r="26" fill="#ffffff"/>
<circle cx="50" cy="700" r="20" fill="#0077ff"/>
<rect x="177" y="675" width="6" height="100" rx="0" fill="#ffffff" transform="rotate(60, 180, 725)"/>
<rect x="134" y="750" width="6" height="100" rx="0" fill="#ffffff" transform="rotate(0, 137, 800)"/>
<circle cx="137" cy="750" r="26" fill="#ffffff"/>
<circle cx="137" cy="750" r="20" fill="#000000"/>
<rect x="213" y="600" width="6" height="100" rx="0" fill="#ffffff" transform="rotate(0, 224, 650)"/>
<rect x="229" y="600" width="6" height="100" rx="0" fill="#ffffff" transform="rotate(0, 224, 650)"/>
<rect x="264" y="675" width="6" height="100" rx="0" fill="#ffffff" transform="rotate(120, 267, 725)"/>
<circle cx="224" cy="700" r="26" fill="#ffffff"/>
<circle cx="224" cy="700" r="20" fill="#000000"/>
<rect x="177" y="825" width="6" height="100" rx="0" fill="#ffffff" transform="rotate(120, 180, 875)"/>
<circle cx="137" cy="850" r="26" fill="#ffffff"/>
<circle cx="137" cy="850" r="20" fill="#000000"/>
<circle cx="224" cy="600" r="26" fill="#ffffff"/>
<circle cx="224" cy="600" r="20" fill="#ff0000"/>
<rect x="351" y="675" width="6" height="100" rx="0" fill="#ffffff" transform="rotate(60, 354, 725)"/>
<circle cx="311" cy="750" r="26" fill="#ffffff"/>
<circle cx="311" cy="750" r="20" fill="#0077ff"/>
<rect x="221" y="900" width="6" height="100" rx="0" fill="#ffffff" transform="rotate(0, 224, 950)"/>
<rect x="264" y="825" width="6" height="100" rx="0" fill="#ffffff" transform="rotate(60, 267, 875)"/>
<circle cx="224" cy="900" r="26" fill="#ffffff"/>
<circle cx="224" cy="900" r="20" fill="#000000"/>
<rect x="438" y="675" width="6" height="100" rx="0" fill="#ffffff" transform="rotate(120, 441, 725)"/>
<rect x="395" y="600" width="6" height="100" rx="0" fill="#ffffff" transform="rotate(0, 398, 650)"/>
<circle cx="398" cy="700" r="26" fill="#ffffff"/>
<circle cx="398" cy="700" r="20" fill="#000000"/>
<circle cx="224" cy="1000" r="26" fill="#ffffff"/>
<circle cx="224" cy="1000" r="20" fill="#000000"/>
<circle cx="311" cy="850" r="26" fill="#ffffff"/>
<circle cx="311" cy="850" r="20" fill="#000000"/>
<rect x="474" y="750" width="6" height="100" rx="0" fill="#ffffff" transform="rotate(0, 485, 800)"/>
<rect x="490" y="750" width="6" height="100" rx="0" fill="#ffffff" transform="rotate(0, 485, 800)"/>
<rect x="525" y="675" width="6" height="100" rx="0" fill="#ffffff" transform="rotate(60, 528, 725)"/>
<circle cx="485" cy="750" r="26" fill="#ffffff"/>
<circle cx="485" cy="750" r="20" fill="#000000"/>
<circle cx="398" cy="600" r="26" fill="#ffffff"/>
<circle cx="398" cy="600" r="20" fill="#000000"/>
<circle cx="485" cy="850" r="26" fill="#ffffff"/>
<circle cx="485" cy="850" r="20" fill="#ff0000"/>
<rect x="612" y="675" width="6" height="100" rx="0" fill="#ffffff" transform="rotate(120, 615, 725)"/>
<circle cx="572" cy="700" r="26" fill="#ffffff"/>
<circle cx="572" cy="700" r="20" fill="#0077ff"/>
<rect x="699" y="675" width="6" height="100" rx="0" fill="#ffffff" transform="rotate(60, 702, 725)"/>
<rect x="656" y="750" width="6" height="100" rx="0" fill="#ffffff" transform="rotate(0, 659, 800)"/>
<circle cx="659" cy="750" r="26" fill="#ffffff"/>
<circle cx="659" cy="750" r="20" fill="#000000"/>
<rect x="735" y="600" width="6" height="100" rx="0" fill="#ffffff" transform="rotate(0, 746, 650)"/>
<rect x="751" y="600" width="6" height="100" rx="0" fill="#ffffff" transform="rotate(0, 746, 650)"/>
<rect x="786" y="675" width="6" height="100" rx="0" fill="#ffffff" transform="rotate(120, 789, 725)"/>
<circle cx="746" cy="700" r="26" fill="#ffffff"/>
<circle cx="746" cy="700" r="20" fill="#000000"/>
<rect x="699" y="825" width="6" height="100" rx="0" fill="#ffffff" transform="rotate(120, 702, 875)"/>
<circle cx="659" cy="850" r="26" fill="#ffffff"/>
<circle cx="659" cy="850" r="20" fill="#000000"/>
<circle cx="746" cy="600" r="26" fill="#ffffff"/>
<circle cx="746" cy="600" r="20" fill="#ff0000"/>
<rect x="873" y="675" width="6" height="100" rx="0" fill="#ffffff" transform="rotate(60, 876, 725)"/>
<circle cx="833" cy="750" r="26" fill="#ffffff"/>
<circle cx="833" cy="750" r="20" fill="#0077ff"/>
<rect x="778" y="825" width="6" height="100" rx="0" fill="#ffffff" transform="rotate(60, 789, 875)"/>
<rect x="794" y="825" width="6" height="100" rx="0" fill="#ffffff" transform="rotate(60, 789, 875)"/>
<rect x="743" y="900" width="6" height="100" rx="0" fill="#ffffff" transform="rotate(0, 746, 950)"/>
<circle cx="746" cy="900" r="26" fill="#ffffff"/>
<circle cx="746" cy="900" r="20" fill="#000000"/>
<rect x="960" y="675" width="6" height="100" rx="0" fill="#ffffff" transform="rotate(120, 963, 725)"/>
<circle cx="920" cy="700" r="26" fill="#ffffff"/>
<circle cx="920" cy="700" r="20" fill="#000000"/>
<circle cx="833" cy="850" r="26" fill="#ffffff"/>
<circle cx="833" cy="850" r="20" fill="#ff0000"/>
<circle cx="746" cy="1000" r="26" fill="#ffffff"/>
<circle cx="746" cy="1000" r="20" fill="#0077ff"/>
<rect x="996" y="750" width="6" height="100" rx="0" fill="#ffffff" transform="rotate(0, 1007, 800)"/>
<rect x="1012" y="750" width="6" height="100" rx="0" fill="#ffffff" transform="rotate(0, 1007, 800)"/>
<rect x="1047" y="675" width="6" height="100" rx="0" fill="#ffffff" transform="rotate(60, 1050, 725)"/>
<circle cx="1007" cy="750" r="26" fill="#ffffff"/>
<circle cx="1007" cy="750" r="20" fill="#000000"/>
<circle cx="1007" cy="850" r="26" fill="#ffffff"/>
<circle cx="1007" cy="850" r="20" fill="#ff0000"/>
<rect x="1134" y="675" width="6" height="100" rx="0" fill="#ffffff" transform="rotate(120, 1137, 725)"/>
<circle cx="1094" cy="700" r="26" fill="#ffffff"/>
<circle cx="1094" cy="700" r="20" fill="#0077ff"/>
<rect x="1221" y="675" width="6" height="100" rx="0" fill="#ffffff" transform="rotate(60, 1224, 725)"/>
<rect x="1178" y="750" width="6" height="100" rx="0" fill="#ffffff" transform="rotate(0, 1181, 800)"/>
<circle cx="1181" cy="750" r="26" fill="#ffffff"/>
<circle cx="1181" cy="750" r="20" fill="#000000"/>
<rect x="1257" y="600" width="6" height="100" rx="0" fill="#ffffff" transform="rotate(0, 1268, 650)"/>
<rect x="1273" y="600" width="6" height="100" rx="0" fill="#ffffff" transform="rotate(0, 1268, 650)"/>
<rect x="1308" y="675" width="6" height="100" rx="0" fill="#ffffff" transform="rotate(120, 1311, 725)"/>
<circle cx="1268" cy="700" r="26" fill="#ffffff"/>
<circle cx="1268" cy="700" r="20" fill="#000000"/>
<rect x="1221" y="825" width="6" height="100" rx="0" fill="#ffffff" transform="rotate(120, 1224, 875)"/>
<circle cx="1181" cy="850" r="26" fill="#ffffff"/>
<circle cx="1181" cy="850" r="20" fill="#000000"/>
<circle cx="1268" cy="600" r="26" fill="#ffffff"/>
<circle cx="1268" cy="600" r="20" fill="#ff0000"/>
<rect x="1395" y="675" width="6" height="100" rx="0" fill="#ffffff" transform="rotate(60, 1398, 725)"/>
<circle cx="1355" cy="750" r="26" fill="#ffffff"/>
<circle cx="1355" cy="750" r="20" fill="#0077ff"/>
<circle cx="1268" cy="900" r="26" fill="#ffffff"/>
<circle cx="1268" cy="900" r="20" fill="#ffa100"/>
<rect x="1482" y="675" width="6" height="100" rx="0" fill="#ffffff" transform="rotate(120, 1485, 725)"/>
<rect x="1439" y="600" width="6" height="100" rx="0" fill="#ffffff" transform="rotate(0, 1442, 650)"/>
<circle cx="1442" cy="700" r="26" fill="#ffffff"/>
<circle cx="1442" cy="700" r="20" fill="#000000"/>
<rect x="1518" y="750" width="6" height="100" rx="0" fill="#ffffff" transform="rotate(0, 1529, 800)"/>
<rect x="1534" y="750" width="6" height="100" rx="0" fill="#ffffff" transform="rotate(0, 1529, 800)"/>
<rect x="1569" y="675" width="6" height="100" rx="0" fill="#ffffff" transform="rotate(60, 1572, 725)"/>
<circle cx="1529" cy="750" r="26" fill="#ffffff"/>
<circle cx="1529" cy="750" r="20" fill="#000000"/>
<circle cx="1442" cy="600" r="26" fill="#ffffff"/>
<circle cx="1442" cy="600" r="20" fill="#000000"/>
<circle cx="1529" cy="850" r="26" fill="#ffffff"/>
<circle cx="1529" cy="850" r="20" fill="#ff0000"/>
<rect x="1656" y="675" width="6" height="100" rx="0" fill="#ffffff" transform="rotate(120, 1659, 725)"/>
<circle cx="1616" cy="700" r="26" fill="#ffffff"/>
<circle cx="1616" cy="700" r="20" fill="#0077ff"/>
<rect x="1743" y="675" width="6" height="100" rx="0" fill="#ffffff" transform="rotate(60, 1746, 725)"/>
<circle cx="1703" cy="750" r="26" fill="#ffffff"/>
<circle cx="1703" cy="750" r="20" fill="#000000"/>
<rect x="1779" y="600" width="6" height="100" rx="0" fill="#ffffff" transform="rotate(0, 1790, 650)"/>
<rect x="1795" y="600" width="6" height="100" rx="0" fill="#ffffff" transform="rotate(0, 1790, 650)"/>
<rect x="1830" y="675" width="6" height="100" rx="0" fill="#ffffff" transform="rotate(120, 1833, 725)"/>
<circle cx="1790" cy="700" r="26" fill="#ffffff"/>
<circle cx="1790" cy="700" r="20" fill="#000000"/>
<circle cx="1790" cy="600" r="26" fill="#ffffff"/>
<circle cx="1790" cy="600" r="20" fill="#ff0000"/>
<rect x="1917" y="675" width="6" height="100" rx="0" fill="#ffffff" transform="rotate(60, 1920, 725)"/>
<circle cx="1877" cy="750" r="26" fill="#ffffff"/>
<circle cx="1877" cy="750" r="20" fill="#0077ff"/>
<rect x="2004" y="675" width="6" height="100" rx="0" fill="#ffffff" transform="rotate(120, 2007, 725)"/>
<rect x="1961" y="600" width="6" height="100" rx="0" fill="#ffffff" transform="rotate(0, 1964, 650)"/>
<circle cx="1964" cy="700" r="26" fill="#ffffff"/>
<circle cx="1964" cy="700" r="20" fill="#000000"/>
<rect x="2040" y="750" width="6" height="100" rx="0" fill="#ffffff" transform="rotate(0, 2051, 800)"/>
<rect x="2056" y="750" width="6" height="100" rx="0" fill="#ffffff" transform="rotate(0, 2051, 800)"/>
<rect x="2091" y="675" width="6" height="100" rx="0" fill="#ffffff" transform="rotate(60, 2094, 725)"/>
<circle cx="2051" cy="750" r="26" fill="#ffffff"/>
<circle cx="2051" cy="750" r="20" fill="#000000"/>
<rect x="2004" y="525" width="6" height="100" rx="0" fill="#ffffff" transform="rotate(60, 2007, 575)"/>
<circle cx="1964" cy="600" r="26" fill="#ffffff"/>
<circle cx="1964" cy="600" r="20" fill="#000000"/>
<circle cx="2051" cy="850" r="26" fill="#ffffff"/>
<circle cx="2051" cy="850" r="20" fill="#ff0000"/>
<circle cx="2138" cy="700" r="26" fill="#ffffff"/>
<circle cx="2138" cy="700" r="20" fill="#ff0000"/>
<rect x="2048" y="450" width="6" height="100" rx="0" fill="#ffffff" transform="rotate(0, 2051, 500)"/>
<circle cx="2051" cy="550" r="26" fill="#ffffff"/>
<circle cx="2051" cy="550" r="20" fill="#000000"/>
<rect x="2083" y="375" width="6" height="100" rx="0" fill="#ffffff" transform="rotate(60, 2094, 425)"/>
<rect x="2099" y="375" width="6" height="100" rx="0" fill="#ffffff" transform="rotate(60, 2094, 425)"/>
<rect x="2004" y="375" width="6" height="100" rx="0" fill="#ffffff" transform="rotate(120, 2007, 425)"/>
<circle cx="2051" cy="450" r="26" fill="#ffffff"/>
<circle cx="2051" cy="450" r="20" fill="#000000"/>
<circle cx="2138" cy="400" r="26" fill="#ffffff"/>
<circle cx="2138" cy="400" r="20" fill="#ff0000"/>
<circle cx="1964" cy="400" r="26" fill="#ffffff"/>
<circle cx="1964" cy="400" r="20" fill="#ff0000"/>
</svg>