<svg height="1200" width="1800">
<path d="M 600 600 L 0 600 L 0 0 L 0 0 Z" fill="#ffbb00"/>
<path d="M 600 600 L 0 0 L 0 0 L 600 0 Z" fill="#ffbb00"/>
<path d="M 600 600 L 600 0 L 1800 0 L 1200 0 Z" fill="#000000"/>
<path d="M 600 600 L 1200 0 L 1800 0 L 1800 600 Z" fill="#000000"/>
<path d="M 600 600 L 1800 600 L 1800 1200 L 1200 1200 Z" fill="#003355"/>
<path d="M 600 600 L 1200 1200 L 1800 1200 L 600 1200 Z" fill="#003355"/>
<path d="M 600 600 L 600 1200 L 0 1200 L 0 1200 Z" fill="#ffbb00"/>
<path d="M 600 600 L 0 1200 L 0 1200 L 0 600 Z" fill="#ffbb00"/>
<path d="M 0 582.0 L 1800 582.0 L 1800 618.0 L 0 618.0 Z" fill="#ffbb00"/>
<path d="M 582.0 0 L 600.0 0 L 600.0 1200 L 582.0 1200 Z" fill="#ffbb00"/>
<path d="M -48.72792206135786 1223.272077938642 L -23.272077938642145 1248.727922061358 L 1248.727922061358 -23.272077938642145 L 1223.272077938642 -48.72792206135786 Z" fill="#ffbb00"/>
<path d="M -48.72792206135786 -23.272077938642145 L -23.272077938642145 -48.72792206135786 L 1248.727922061358 1223.272077938642 L 1223.272077938642 1248.727922061358 Z" fill="#ffbb00"/>
<path d="M 600 176 C 607 209, 717 267, 724 300 C 753 282, 871 318, 900 300 C 882 329, 918 447, 900 476 C 933 483, 991 593, 1024 600 C 991 607, 933 717, 900 724 C 918 753, 882 871, 900 900 C 871 882, 753 918, 724 900 C 717 933, 607 991, 600 1024 C 593 991, 483 933, 476 900 C 447 918, 329 882, 300 900 C 318 871, 282 753, 300 724 C 267 717, 209 607, 176 600 C 209 593, 267 483, 300 476 C 282 447, 318 329, 300 300 C 329 318, 447 282, 476 300 C 483 267, 593 209, 600 176 Z" fill="#ffbb00"/>
<path d="M 600 227 C 607 256, 702 307, 709 336 C 734 320, 839 352, 864 336 C 848 361, 880 466, 864 491 C 893 498, 944 593, 973 600 C 944 607, 893 702, 864 709 C 880 734, 848 839, 864 864 C 839 848, 734 880, 709 864 C 702 893, 607 944, 600 973 C 593 944, 498 893, 491 864 C 466 880, 361 848, 336 864 C 352 839, 320 734, 336 709 C 307 702, 256 607, 227 600 C 256 593, 307 498, 336 491 C 320 466, 352 361, 336 336 C 361 352, 466 320, 491 336 C 498 307, 593 256, 600 227 Z" fill="#005500"/>
<path d="M 709 336 C 705 358, 759 423, 755 445 C 777 441, 842 495, 864 491 C 845 504, 838 587, 819 600 C 838 613, 845 696, 864 709 C 842 705, 777 759, 755 755 C 759 777, 705 842, 709 864 C 696 845, 613 838, 600 819 C 587 838, 504 845, 491 864 C 495 842, 441 777, 445 755 C 423 759, 358 705, 336 709 C 355 696, 362 613, 381 600 C 362 587, 355 504, 336 491 C 358 495, 423 441, 445 445 C 441 423, 495 358, 491 336 C 504 355, 587 362, 600 381 C 613 362, 696 355, 709 336 Z" fill="#ffbb00"/>
<path d="M 600 381 C 604 398, 660 428, 664 445 C 679 436, 740 454, 755 445 C 746 460, 764 521, 755 536 C 772 540, 802 596, 819 600 C 802 604, 772 660, 755 664 C 764 679, 746 740, 755 755 C 740 746, 679 764, 664 755 C 660 772, 604 802, 600 819 C 596 802, 540 772, 536 755 C 521 764, 460 746, 445 755 C 454 740, 436 679, 445 664 C 428 660, 398 604, 381 600 C 398 596, 428 540, 445 536 C 436 521, 454 460, 445 445 C 460 454, 521 436, 536 445 C 540 428, 596 398, 600 381 Z" fill="#005500"/>
<circle cx="600" cy="600" r="76" fill="#ffbb00" />
</svg>