<svg height="1200" width="1800">
<path d="M 600 600 L 0 600 L 0 0 L 0 0 Z" fill="#ffbb00"/>
<path d="M 600 600 L 0 0 L 0 0 L 600 0 Z" fill="#ffbb00"/>
<path d="M 600 600 L 600 0 L 1800 0 L 1200 0 Z" fill="#114488"/>
<path d="M 600 600 L 1200 0 L 1800 0 L 1800 600 Z" fill="#114488"/>
<path d="M 600 600 L 1800 600 L 1800 1200 L 1200 1200 Z" fill="#114488"/>
<path d="M 600 600 L 1200 1200 L 1800 1200 L 600 1200 Z" fill="#114488"/>
<path d="M 600 600 L 600 1200 L 0 1200 L 0 1200 Z" fill="#ffbb00"/>
<path d="M 600 600 L 0 1200 L 0 1200 L 0 600 Z" fill="#ffbb00"/>
<path d="M 0 579.0 L 1800 579.0 L 1800 621.0 L 0 621.0 Z" fill="#ffbb00"/>
<path d="M 579.0 0 L 600.0 0 L 600.0 1200 L 579.0 1200 Z" fill="#ffbb00"/>
<path d="M -56.8492424049175 1227.1507575950825 L -27.150757595082503 1256.8492424049175 L 1256.8492424049175 -27.150757595082503 L 1227.1507575950825 -56.8492424049175 Z" fill="#ffbb00"/>
<path d="M -56.8492424049175 -27.150757595082503 L -27.150757595082503 -56.8492424049175 L 1256.8492424049175 1227.1507575950825 L 1227.1507575950825 1256.8492424049175 Z" fill="#ffbb00"/>
<path d="M 600 176 C 607 209, 717 267, 724 300 C 753 282, 871 318, 900 300 C 882 329, 918 447, 900 476 C 933 483, 991 593, 1024 600 C 991 607, 933 717, 900 724 C 918 753, 882 871, 900 900 C 871 882, 753 918, 724 900 C 717 933, 607 991, 600 1024 C 593 991, 483 933, 476 900 C 447 918, 329 882, 300 900 C 318 871, 282 753, 300 724 C 267 717, 209 607, 176 600 C 209 593, 267 483, 300 476 C 282 447, 318 329, 300 300 C 329 318, 447 282, 476 300 C 483 267, 593 209, 600 176 Z" fill="#ffbb00"/>
<path d="M 600 235 C 606 263, 701 314, 707 342 C 732 327, 833 357, 858 342 C 843 367, 873 468, 858 493 C 886 499, 937 594, 965 600 C 937 606, 886 701, 858 707 C 873 732, 843 833, 858 858 C 833 843, 732 873, 707 858 C 701 886, 606 937, 600 965 C 594 937, 499 886, 493 858 C 468 873, 367 843, 342 858 C 357 833, 327 732, 342 707 C 314 701, 263 606, 235 600 C 263 594, 314 499, 342 493 C 327 468, 357 367, 342 342 C 367 357, 468 327, 493 342 C 499 314, 594 263, 600 235 Z" fill="#005500"/>
<path d="M 707 342 C 703 364, 755 427, 751 449 C 773 445, 836 497, 858 493 C 840 506, 832 587, 814 600 C 832 613, 840 694, 858 707 C 836 703, 773 755, 751 751 C 755 773, 703 836, 707 858 C 694 840, 613 832, 600 814 C 587 832, 506 840, 493 858 C 497 836, 445 773, 449 751 C 427 755, 364 703, 342 707 C 360 694, 368 613, 386 600 C 368 587, 360 506, 342 493 C 364 497, 427 445, 449 449 C 445 427, 497 364, 493 342 C 506 360, 587 368, 600 386 C 613 368, 694 360, 707 342 Z" fill="#ffbb00"/>
<path d="M 600 386 C 604 403, 659 432, 663 449 C 677 440, 737 458, 751 449 C 742 463, 760 523, 751 537 C 768 541, 797 596, 814 600 C 797 604, 768 659, 751 663 C 760 677, 742 737, 751 751 C 737 742, 677 760, 663 751 C 659 768, 604 797, 600 814 C 596 797, 541 768, 537 751 C 523 760, 463 742, 449 751 C 458 737, 440 677, 449 663 C 432 659, 403 604, 386 600 C 403 596, 432 541, 449 537 C 440 523, 458 463, 449 449 C 463 458, 523 440, 537 449 C 541 432, 596 403, 600 386 Z" fill="#005500"/>
<circle cx="600" cy="600" r="76" fill="#ffbb00" />
</svg>