<svg height="1000" width="1000">
<path d="M 500 0C 524 125, 620 125, 644 250 C 764 208, 813 292, 933 250 C 837 333, 885 417, 789 500 C 885 583, 837 667, 933 750 C 813 708, 764 792, 644 750 C 620 875, 524 875, 500 1000 C 476 875, 380 875, 356 750 C 236 792, 187 708, 67 750 C 163 667, 115 583, 211 500 C 115 417, 163 333, 67 250 C 187 292, 236 208, 356 250 C 380 125, 476 125, 500 0 Z" fill="black"/>
<path d="M 500 100C 519 200, 596 200, 615 300 C 711 267, 750 333, 846 300 C 769 367, 808 433, 731 500 C 808 567, 769 633, 846 700 C 750 667, 711 733, 615 700 C 596 800, 519 800, 500 900 C 481 800, 404 800, 385 700 C 289 733, 250 667, 154 700 C 231 633, 192 567, 269 500 C 192 433, 231 367, 154 300 C 250 333, 289 267, 385 300 C 404 200, 481 200, 500 100 Z" fill="#007f00"/>
<path d="M 500 200C 514 275, 573 275, 587 350 C 659 325, 688 375, 760 350 C 702 400, 731 450, 673 500 C 731 550, 702 600, 760 650 C 688 625, 659 675, 587 650 C 573 725, 514 725, 500 800 C 486 725, 427 725, 413 650 C 341 675, 312 625, 240 650 C 298 600, 269 550, 327 500 C 269 450, 298 400, 240 350 C 312 375, 341 325, 413 350 C 427 275, 486 275, 500 200 Z" fill="#ffff00"/>
<path d="M 500 300C 510 350, 548 350, 558 400 C 606 383, 625 417, 673 400 C 635 433, 653 467, 615 500 C 653 533, 635 567, 673 600 C 625 583, 606 617, 558 600 C 548 650, 510 650, 500 700 C 490 650, 452 650, 442 600 C 394 617, 375 583, 327 600 C 365 567, 347 533, 385 500 C 347 467, 365 433, 327 400 C 375 417, 394 383, 442 400 C 452 350, 490 350, 500 300 Z" fill="#7f0000"/>
</svg>