<svg height="1000" width="1000">
<path d="M 499.9999999999999 0.0C 524.0562612162344 125.0, 620.281306081172 125.0, 644.3375672974065 250.0 C 764.6188733785784 208.33333333333326, 812.7313958110473 291.6666666666665, 933.0127018922192 249.99999999999977 C 836.7876570272816 333.33333333333314, 884.9001794597505 416.6666666666665, 788.6751345948129 499.99999999999994 C 884.9001794597506 583.3333333333331, 836.7876570272819 666.6666666666664, 933.0127018922195 749.9999999999997 C 812.7313958110475 708.3333333333331, 764.6188733785787 791.6666666666665, 644.3375672974066 750.0 C 620.2813060811723 875.0, 524.0562612162346 875.0, 500.00000000000017 1000.0 C 475.94373878376575 875.0, 379.7186939188282 875.0000000000002, 355.6624327025938 750.0000000000002 C 235.38112662142183 791.6666666666671, 187.268604188953 708.3333333333338, 66.98729810778104 750.0000000000007 C 163.21234297271855 666.6666666666672, 115.0998205402496 583.333333333334, 211.3248654051871 500.0000000000006 C 115.09982054024954 416.6666666666671, 163.21234297271843 333.3333333333332, 66.98729810778087 249.99999999999966 C 187.26860418895285 291.66666666666646, 235.38112662142163 208.3333333333332, 355.6624327025936 249.99999999999997 C 379.71869391882797 124.99999999999997, 475.9437387837655 125.0, 499.9999999999999 0.0 Z" fill="black"/>
<path d="M 499.99999999999994 100.0C 519.2450089729875 200.0, 596.2250448649377 200.0, 615.4700538379252 300.0 C 711.6950987028628 266.66666666666663, 750.1851166488378 333.3333333333332, 846.4101615137754 299.99999999999983 C 769.4301256218254 366.6666666666665, 807.9201435678004 433.33333333333326, 730.9401076758504 499.99999999999994 C 807.9201435678006 566.6666666666665, 769.4301256218255 633.3333333333331, 846.4101615137756 699.9999999999998 C 750.185116648838 666.6666666666665, 711.695098702863 733.3333333333333, 615.4700538379253 700.0 C 596.2250448649378 800.0, 519.2450089729876 800.0, 500.0000000000001 900.0 C 480.7549910270126 800.0, 403.77495513506256 800.0000000000002, 384.529946162075 700.0000000000002 C 288.30490129713746 733.3333333333337, 249.8148833511624 666.6666666666671, 153.58983848622483 700.0000000000006 C 230.5698743781748 633.3333333333338, 192.07985643219968 566.6666666666673, 269.05989232414964 500.0000000000005 C 192.07985643219962 433.3333333333337, 230.56987437817475 366.6666666666666, 153.58983848622472 299.9999999999998 C 249.81488335116228 333.3333333333332, 288.3049012971373 266.6666666666665, 384.52994616207485 299.99999999999994 C 403.7749551350624 199.99999999999994, 480.7549910270124 200.0, 499.99999999999994 100.0 Z" fill="#007f00"/>
<path d="M 499.99999999999994 200.0C 514.4337567297406 275.0, 572.1687836487033 275.0, 586.6025403784439 350.0 C 658.7713240271471 324.99999999999994, 687.6388374866283 374.99999999999994, 759.8076211353315 349.9999999999999 C 702.072594216369 399.99999999999994, 730.9401076758503 449.9999999999999, 673.2050807568878 499.99999999999994 C 730.9401076758504 549.9999999999999, 702.0725942163691 599.9999999999999, 759.8076211353317 649.9999999999998 C 687.6388374866285 624.9999999999999, 658.7713240271472 674.9999999999999, 586.602540378444 650.0 C 572.1687836487034 725.0, 514.4337567297407 725.0, 500.0000000000001 800.0 C 485.56624327025946 725.0, 427.8312163512969 725.0000000000001, 413.39745962155627 650.0000000000001 C 341.2286759728531 675.0000000000002, 312.36116251337177 625.0000000000003, 240.19237886466863 650.0000000000005 C 297.9274057836311 600.0000000000003, 269.05989232414976 550.0000000000005, 326.79491924311225 500.0000000000004 C 269.0598923241497 450.0000000000002, 297.92740578363106 399.99999999999994, 240.1923788646685 349.9999999999998 C 312.3611625133717 374.99999999999983, 341.22867597285295 324.99999999999994, 413.39745962155615 350.0 C 427.83121635129675 275.0, 485.56624327025935 275.0, 499.99999999999994 200.0 Z" fill="#ffff00"/>
<path d="M 499.99999999999994 300.0C 509.6225044864937 350.0, 548.1125224324688 350.0, 557.7350269189626 400.0 C 605.8475493514314 383.3333333333333, 625.0925583244189 416.6666666666666, 673.2050807568877 399.9999999999999 C 634.7150628109126 433.33333333333326, 653.9600717839003 466.66666666666663, 615.4700538379252 500.0 C 653.9600717839003 533.3333333333333, 634.7150628109127 566.6666666666666, 673.2050807568878 599.9999999999999 C 625.092558324419 583.3333333333333, 605.8475493514314 616.6666666666666, 557.7350269189626 600.0 C 548.1125224324688 650.0, 509.6225044864938 650.0, 500.00000000000006 700.0 C 490.3774955135063 650.0, 451.8874775675313 650.0000000000001, 442.2649730810375 600.0000000000001 C 394.15245064856873 616.6666666666669, 374.9074416755812 583.3333333333335, 326.7949192431124 600.0000000000002 C 365.28493718908743 566.6666666666669, 346.0399282160998 533.3333333333336, 384.5299461620748 500.0000000000002 C 346.0399282160998 466.6666666666668, 365.2849371890874 433.3333333333333, 326.79491924311236 399.9999999999999 C 374.90744167558114 416.6666666666666, 394.1524506485687 383.3333333333333, 442.26497308103745 400.0 C 451.8874775675312 350.0, 490.3774955135062 350.0, 499.99999999999994 300.0 Z" fill="#7f0000"/>
</svg>