<svg height="1000" width="1000">
<path d="M 500 0C 518 81, 628 65, 646 146 C 716 102, 784 190, 854 146 C 810 216, 898 284, 854 354 C 935 372, 919 482, 1000 500 C 919 518, 935 628, 854 646 C 898 716, 810 784, 854 854 C 784 810, 716 898, 646 854 C 628 935, 518 919, 500 1000 C 482 919, 372 935, 354 854 C 284 898, 216 810, 146 854 C 190 784, 102 716, 146 646 C 65 628, 81 518, 0 500 C 81 482, 65 372, 146 354 C 102 284, 190 216, 146 146 C 216 190, 284 102, 354 146 C 372 65, 482 81, 500 0 Z" fill="black"/>
<path d="M 647 146C 636 209, 718 230, 707 293 C 770 282, 791 364, 854 353 C 802 390, 845 463, 793 500 C 845 537, 802 610, 854 647 C 791 636, 770 718, 707 707 C 718 770, 636 791, 647 854 C 610 802, 537 845, 500 793 C 463 845, 390 802, 353 854 C 364 791, 282 770, 293 707 C 230 718, 209 636, 146 647 C 198 610, 155 537, 207 500 C 155 463, 198 390, 146 353 C 209 364, 230 282, 293 293 C 282 230, 364 209, 353 146 C 390 198, 463 155, 500 207 C 537 155, 610 198, 647 146 Z" fill="#007f00"/>
<path d="M 500 208C 511 255, 575 247, 586 294 C 627 268, 665 320, 706 294 C 680 335, 732 373, 706 414 C 753 425, 745 489, 792 500 C 745 511, 753 575, 706 586 C 732 627, 680 665, 706 706 C 665 680, 627 732, 586 706 C 575 753, 511 745, 500 792 C 489 745, 425 753, 414 706 C 373 732, 335 680, 294 706 C 320 665, 268 627, 294 586 C 247 575, 255 511, 208 500 C 255 489, 247 425, 294 414 C 268 373, 320 335, 294 294 C 335 320, 373 268, 414 294 C 425 247, 489 255, 500 208 Z" fill="#ffff00"/>
<path d="M 584 297C 578 333, 625 345, 619 381 C 655 375, 667 422, 703 416 C 673 437, 698 479, 668 500 C 698 521, 673 563, 703 584 C 667 578, 655 625, 619 619 C 625 655, 578 667, 584 703 C 563 673, 521 698, 500 668 C 479 698, 437 673, 416 703 C 422 667, 375 655, 381 619 C 345 625, 333 578, 297 584 C 327 563, 302 521, 332 500 C 302 479, 327 437, 297 416 C 333 422, 345 375, 381 381 C 375 345, 422 333, 416 297 C 437 327, 479 302, 500 332 C 521 302, 563 327, 584 297 Z" fill="#7f0000"/>
<path d="M 500 340C 506 366, 541 361, 547 387 C 569 373, 591 401, 613 387 C 599 409, 627 431, 613 453 C 639 459, 634 494, 660 500 C 634 506, 639 541, 613 547 C 627 569, 599 591, 613 613 C 591 599, 569 627, 547 613 C 541 639, 506 634, 500 660 C 494 634, 459 639, 453 613 C 431 627, 409 599, 387 613 C 401 591, 373 569, 387 547 C 361 541, 366 506, 340 500 C 366 494, 361 459, 387 453 C 373 431, 401 409, 387 387 C 409 401, 431 373, 453 387 C 459 361, 494 366, 500 340 Z" fill="#3b0082"/>
</svg>