<svg height="1000" width="1000">
<path d="M 499.9999999999999 0.0C 518.3058261758407 80.80582617584079, 628.1407832308855 65.64078323088549, 646.4466094067263 146.44660940672628 C 716.529130879204 102.25243558256703, 783.470869120796 190.6407832308854, 853.5533905932737 146.44660940672617 C 809.3592167691145 216.52913087920382, 897.7475644174328 283.4708691207959, 853.5533905932737 353.55339059327355 C 934.3592167691145 371.8592167691143, 919.1941738241592 481.6941738241591, 1000.0 499.9999999999999 C 919.1941738241592 518.3058261758407, 934.3592167691145 628.1407832308855, 853.5533905932738 646.4466094067263 C 897.7475644174331 716.529130879204, 809.3592167691147 783.470869120796, 853.5533905932739 853.5533905932737 C 783.4708691207962 809.3592167691145, 716.5291308792042 897.7475644174328, 646.4466094067266 853.5533905932737 C 628.1407832308857 934.3592167691145, 518.3058261758409 919.1941738241592, 500.00000000000017 1000.0 C 481.69417382415935 919.1941738241592, 371.85921676911454 934.3592167691145, 353.5533905932737 853.5533905932738 C 283.4708691207962 897.7475644174331, 216.52913087920422 809.3592167691148, 146.44660940672668 853.5533905932741 C 190.6407832308858 783.4708691207964, 102.25243558256722 716.5291308792043, 146.44660940672634 646.4466094067266 C 65.64078323088555 628.1407832308857, 80.80582617584079 518.3058261758409, 0.0 500.00000000000017 C 80.80582617584078 481.69417382415935, 65.64078323088545 371.85921676911454, 146.44660940672622 353.5533905932737 C 102.25243558256706 283.470869120796, 190.64078323088563 216.52913087920376, 146.44660940672645 146.44660940672605 C 216.5291308792041 190.6407832308853, 283.4708691207964 102.25243558256686, 353.55339059327406 146.4466094067261 C 371.85921676911477 65.64078323088535, 481.6941738241592 80.80582617584076, 499.9999999999999 0.0 Z" fill="black"/>
<path d="M 646.5677545958295 146.15413904817723C 635.8355792413713 208.70584099163375, 718.0102817104517 230.17019170055016, 707.2781063559936 292.7218936440067 C 769.8298082994501 281.9897182895484, 791.2941590083663 364.16442075862864, 853.8458609518227 353.4322454041704 C 802.0263343628244 390.0741840531278, 844.9550357806571 463.3580613510425, 793.1355091916588 499.99999999999994 C 844.9550357806571 536.6419386489573, 802.0263343628245 609.925815946872, 853.8458609518228 646.5677545958295 C 791.2941590083663 635.8355792413713, 769.82980829945 718.0102817104517, 707.2781063559934 707.2781063559936 C 718.0102817104516 769.8298082994501, 635.8355792413714 791.2941590083663, 646.5677545958297 853.8458609518227 C 609.9258159468723 802.0263343628244, 536.6419386489575 844.9550357806571, 500.0000000000001 793.1355091916588 C 463.35806135104275 844.9550357806571, 390.0741840531279 802.0263343628245, 353.43224540417054 853.8458609518228 C 364.1644207586287 791.2941590083663, 281.98971828954825 769.82980829945, 292.7218936440064 707.2781063559934 C 230.17019170054994 718.0102817104516, 208.70584099163375 635.8355792413714, 146.15413904817729 646.5677545958297 C 197.9736656371756 609.9258159468723, 155.0449642193429 536.6419386489575, 206.8644908083412 500.0000000000001 C 155.04496421934283 463.35806135104275, 197.97366563717554 390.07418405312796, 146.15413904817717 353.4322454041706 C 208.7058409916337 364.16442075862875, 230.1701917005501 281.98971828954825, 292.7218936440066 292.7218936440064 C 281.98971828954836 230.17019170054994, 364.1644207586286 208.70584099163375, 353.4322454041703 146.15413904817729 C 390.07418405312774 197.9736656371756, 463.35806135104247 155.0449642193429, 499.9999999999999 206.8644908083412 C 536.6419386489573 155.04496421934286, 609.925815946872 197.97366563717557, 646.5677545958295 146.15413904817723 Z" fill="#007f00"/>
<path d="M 499.99999999999994 208.0C 510.690602486691 255.190602486691, 574.8342174068371 246.3342174068371, 585.5248198935282 293.5248198935281 C 626.4530124334551 267.71542238021914, 665.5469875665449 319.33421740683707, 706.4751801064718 293.52481989352805 C 680.6657825931628 334.453012433455, 732.2845776197809 373.5469875665448, 706.4751801064718 414.4751801064717 C 753.6657825931629 425.16578259316276, 744.809397513309 489.3093975133089, 792.0 499.99999999999994 C 744.809397513309 510.690602486691, 753.6657825931629 574.8342174068371, 706.475180106472 585.5248198935282 C 732.284577619781 626.4530124334551, 680.6657825931629 665.5469875665449, 706.475180106472 706.4751801064718 C 665.546987566545 680.6657825931628, 626.4530124334552 732.2845776197809, 585.5248198935283 706.4751801064718 C 574.8342174068373 753.6657825931629, 510.6906024866911 744.809397513309, 500.0000000000001 792.0 C 489.3093975133091 744.809397513309, 425.1657825931629 753.6657825931629, 414.47518010647184 706.475180106472 C 373.54698756654494 732.284577619781, 334.4530124334553 680.6657825931632, 293.5248198935284 706.4751801064722 C 319.3342174068373 665.5469875665451, 267.71542238021925 626.4530124334553, 293.52481989352816 585.5248198935283 C 246.33421740683713 574.8342174068373, 255.19060248669103 510.6906024866911, 208.0 500.0000000000001 C 255.190602486691 489.3093975133091, 246.3342174068371 425.1657825931629, 293.5248198935281 414.47518010647184 C 267.71542238021914 373.5469875665449, 319.3342174068372 334.453012433455, 293.5248198935283 293.52481989352805 C 334.4530124334552 319.33421740683707, 373.5469875665451 267.715422380219, 414.47518010647207 293.52481989352805 C 425.16578259316304 246.33421740683704, 489.30939751330897 255.190602486691, 499.99999999999994 208.0 Z" fill="#ffff00"/>
<path d="M 584.1903551203199 296.7465028475169C 578.0256590942603 332.6769843816173, 625.227838058223 345.0063764337364, 619.0631420321635 380.9368579678368 C 654.9936235662638 374.7721619417772, 667.3230156183827 421.97434090573967, 703.2534971524831 415.8096448796801 C 673.4877116444422 436.8572336597601, 698.1464957486803 478.95241121991995, 668.3807102406395 499.99999999999994 C 698.1464957486803 521.0475887800799, 673.4877116444422 563.1427663402399, 703.2534971524831 584.1903551203197 C 667.3230156183827 578.0256590942602, 654.9936235662635 625.2278380582229, 619.0631420321632 619.0631420321633 C 625.2278380582228 654.9936235662638, 578.0256590942603 667.3230156183827, 584.1903551203199 703.2534971524831 C 563.1427663402399 673.4877116444422, 521.04758878008 698.1464957486803, 500.00000000000006 668.3807102406395 C 478.9524112199201 698.1464957486803, 436.85723365976014 673.4877116444422, 415.8096448796802 703.2534971524831 C 421.9743409057397 667.3230156183827, 374.7721619417771 654.9936235662635, 380.9368579678366 619.0631420321632 C 345.00637643373625 625.2278380582228, 332.67698438161733 578.0256590942604, 296.746502847517 584.19035512032 C 326.5122883555578 563.14276634024, 301.8535042513197 521.0475887800801, 331.6192897593605 500.00000000000006 C 301.8535042513197 478.9524112199201, 326.51228835555776 436.8572336597602, 296.7465028475169 415.80964487968026 C 332.6769843816173 421.9743409057398, 345.00637643373636 374.7721619417771, 380.9368579678367 380.9368579678366 C 374.77216194177714 345.00637643373625, 421.97434090573967 332.67698438161733, 415.8096448796801 296.746502847517 C 436.8572336597601 326.5122883555578, 478.95241121991995 301.8535042513197, 499.99999999999994 331.6192897593605 C 521.0475887800799 301.8535042513197, 563.1427663402399 326.51228835555776, 584.1903551203199 296.7465028475169 Z" fill="#7f0000"/>
<path d="M 499.99999999999994 340.0C 505.857864376269 365.85786437626905, 541.0050506338833 361.00505063388334, 546.8629150101524 386.8629150101524 C 569.2893218813452 372.72077938642144, 590.7106781186548 401.00505063388334, 613.1370849898476 386.8629150101524 C 598.9949493661167 409.28932188134524, 627.2792206135786 430.71067811865464, 613.1370849898476 453.1370849898475 C 638.9949493661167 458.99494936611654, 634.142135623731 494.1421356237309, 660.0 499.99999999999994 C 634.142135623731 505.857864376269, 638.9949493661167 541.0050506338833, 613.1370849898476 546.8629150101524 C 627.2792206135786 569.2893218813452, 598.9949493661167 590.7106781186548, 613.1370849898476 613.1370849898476 C 590.7106781186548 598.9949493661167, 569.2893218813454 627.2792206135786, 546.8629150101525 613.1370849898476 C 541.0050506338835 638.9949493661167, 505.8578643762691 634.142135623731, 500.00000000000006 660.0 C 494.142135623731 634.142135623731, 458.99494936611666 638.9949493661167, 453.1370849898476 613.1370849898476 C 430.71067811865476 627.2792206135786, 409.28932188134536 598.9949493661168, 386.8629150101525 613.1370849898477 C 401.00505063388346 590.7106781186549, 372.72077938642155 569.2893218813454, 386.86291501015245 546.8629150101525 C 361.0050506338834 541.0050506338835, 365.85786437626905 505.8578643762691, 340.0 500.00000000000006 C 365.85786437626905 494.142135623731, 361.00505063388334 458.99494936611666, 386.8629150101524 453.1370849898476 C 372.72077938642144 430.71067811865476, 401.0050506338834 409.2893218813452, 386.86291501015245 386.86291501015234 C 409.2893218813453 401.0050506338833, 430.71067811865487 372.7207793864214, 453.1370849898477 386.86291501015234 C 458.99494936611677 361.0050506338833, 494.14213562373095 365.85786437626905, 499.99999999999994 340.0 Z" fill="#3b0082"/>
</svg>