<svg height="40" width="40">
<path d="M 2.679491924311229 30.000000000000007 L 2.679491924311222 10.000000000000004 L 19.999999999999996 0.0 L 37.32050807568878 10.000000000000007 Z" fill="#1a150f"/>
<path d="M 37.32050807568878 10.000000000000007 L 37.32050807568878 30.0 L 20.0 40.0 L 2.679491924311229 30.000000000000007 Z" fill="#478547"/>
<path d="M 21.73538290724796 15.805771365940052 L 15.5 19.40577136594005 L 9.264617092752044 15.805771365940053 L 9.26461709275204 8.605771365940054 L 15.499999999999998 5.005771365940053 L 21.73538290724796 8.605771365940054 Z" stroke="#ddddcc" stroke-width="1.2" fill="none" mask="url(#bodymask)"/>
<path d="M 15.5 12.205771365940052 L 20.17653718043597 9.505771365940053 " stroke="#ddddcc" stroke-width="1.2" fill="none" mask="url(#bodymask)"/>
<path d="M 15.5 12.205771365940052 L 15.5 17.60577136594005 " stroke="#ddddcc" stroke-width="1.2" fill="none" mask="url(#bodymask)"/>
<path d="M 15.5 12.205771365940052 L 10.82346281956403 9.505771365940053 " stroke="#ddddcc" stroke-width="1.2" fill="none" mask="url(#bodymask)"/>
<path d="M 23.291362416683228 27.096421399979313 A 3.192 3.192 0 0 1 21.847009978345906 23.1939227789539 A 3.192 3.192 0 0 0 24.50449670321899 19.991827564823076 A 3.192 3.192 0 0 0 27.16198342809208 23.1939227789539 A 3.192 3.192 0 0 1 25.717630989754756 27.096421399979313 A 3.192 3.192 0 0 1 29.819470152965167 27.796824806873897 A 3.192 3.192 0 0 0 31.263822591302493 31.69932342789931 A 3.192 3.192 0 0 0 27.161983428092086 32.3997268347939 A 3.192 3.192 0 0 1 24.504496703218997 29.19763162066308 A 3.192 3.192 0 0 1 21.84700997834591 32.3997268347939 A 3.192 3.192 0 0 0 17.745170815135502 31.699323427899312 A 3.192 3.192 0 0 0 19.189523253472824 27.7968248068739 A 3.192 3.192 0 0 1 23.291362416683235 27.09642139997931 " stroke="#ddddcc" stroke-width="1.2" fill="none" mask="url(#bodymask)"/>
</svg>