<svg height="300" width="600">
<rect x="0" y="0" width="100" height="100" rx="0" fill="#0f5741"/>
<rect x="0" y="100" width="100" height="100" rx="0" fill="#22c393"/>
<rect x="0" y="200" width="100" height="100" rx="0" fill="#7de8c8"/>
<rect x="100" y="0" width="100" height="100" rx="0" fill="#0f4157"/>
<rect x="100" y="100" width="100" height="100" rx="0" fill="#2293c3"/>
<rect x="100" y="200" width="100" height="100" rx="0" fill="#7dc8e8"/>
<rect x="200" y="0" width="100" height="100" rx="0" fill="#0f1657"/>
<rect x="200" y="100" width="100" height="100" rx="0" fill="#2232c3"/>
<rect x="200" y="200" width="100" height="100" rx="0" fill="#7d88e8"/>
<rect x="300" y="0" width="100" height="100" rx="0" fill="#330f57"/>
<rect x="300" y="100" width="100" height="100" rx="0" fill="#7322c3"/>
<rect x="300" y="200" width="100" height="100" rx="0" fill="#b27de8"/>
<rect x="400" y="0" width="100" height="100" rx="0" fill="#570f50"/>
<rect x="400" y="100" width="100" height="100" rx="0" fill="#c322b3"/>
<rect x="400" y="200" width="100" height="100" rx="0" fill="#e87ddd"/>
<rect x="500" y="0" width="100" height="100" rx="0" fill="#570f25"/>
<rect x="500" y="100" width="100" height="100" rx="0" fill="#c32253"/>
<rect x="500" y="200" width="100" height="100" rx="0" fill="#e87d9d"/>
</svg>